IntelOneMono-Medium.ufo
<glyph name="exclam" format="2">
  <advance width="614"/>
  <unicode hex="0021"/>
  <outline>
    <contour>
      <point x="270" y="258" type="line"/>
      <point x="344" y="258" type="line"/>
      <point x="412" y="710" type="line"/>
      <point x="203" y="710" type="line"/>
    </contour>
    <contour>
      <point x="302" y="-15" type="curve" smooth="yes"/>
      <point x="370" y="-15"/>
      <point x="401" y="10"/>
      <point x="401" y="59" type="curve" smooth="yes"/>
      <point x="401" y="109"/>
      <point x="376" y="135"/>
      <point x="304" y="135" type="curve" smooth="yes"/>
      <point x="232" y="135"/>
      <point x="205" y="105"/>
      <point x="205" y="60" type="curve" smooth="yes"/>
      <point x="205" y="10"/>
      <point x="233" y="-15"/>
    </contour>
  </outline>
</glyph>
<glyph name="dollar" format="2">
  <advance width="614"/>
  <unicode hex="0024"/>
  <outline>
    <contour>
      <point x="303" y="93" type="curve" smooth="yes"/>
      <point x="248" y="93"/>
      <point x="174" y="110"/>
      <point x="85" y="139" type="curve"/>
      <point x="62" y="44" type="line"/>
      <point x="141" y="18"/>
      <point x="208" y="4"/>
      <point x="275" y="1" type="curve"/>
      <point x="275" y="-142" type="line"/>
      <point x="352" y="-142" type="line"/>
      <point x="352" y="3" type="line"/>
      <point x="476" y="18"/>
      <point x="542" y="89"/>
      <point x="542" y="188" type="curve" smooth="yes"/>
      <point x="542" y="286"/>
      <point x="496" y="334"/>
      <point x="377" y="370" type="curve" smooth="yes"/>
      <point x="308" y="391" type="line" smooth="yes"/>
      <point x="220" y="418"/>
      <point x="199" y="444"/>
      <point x="199" y="490" type="curve" smooth="yes"/>
      <point x="199" y="532"/>
      <point x="231" y="562"/>
      <point x="316" y="562" type="curve" smooth="yes"/>
      <point x="364" y="562"/>
      <point x="425" y="552"/>
      <point x="505" y="532" type="curve"/>
      <point x="520" y="627" type="line"/>
      <point x="458" y="641"/>
      <point x="409" y="651"/>
      <point x="352" y="654" type="curve"/>
      <point x="352" y="796" type="line"/>
      <point x="275" y="796" type="line"/>
      <point x="275" y="653" type="line"/>
      <point x="149" y="639"/>
      <point x="86" y="565"/>
      <point x="86" y="481" type="curve" smooth="yes"/>
      <point x="86" y="390"/>
      <point x="134" y="333"/>
      <point x="252" y="297" type="curve" smooth="yes"/>
      <point x="319" y="276" type="line" smooth="yes"/>
      <point x="407" y="247"/>
      <point x="429" y="225"/>
      <point x="429" y="181" type="curve" smooth="yes"/>
      <point x="429" y="127"/>
      <point x="392" y="93"/>
    </contour>
  </outline>
</glyph>
<glyph name="percent" format="2">
  <advance width="614"/>
  <unicode hex="0025"/>
  <outline>
    <contour>
      <point x="42" y="494" type="curve" smooth="yes"/>
      <point x="42" y="385"/>
      <point x="90" y="317"/>
      <point x="188" y="317" type="curve" smooth="yes"/>
      <point x="287" y="317"/>
      <point x="337" y="386"/>
      <point x="337" y="495" type="curve" smooth="yes"/>
      <point x="337" y="604"/>
      <point x="287" y="670"/>
      <point x="189" y="670" type="curve" smooth="yes"/>
      <point x="91" y="670"/>
      <point x="42" y="603"/>
    </contour>
    <contour>
      <point x="402" y="377" type="line"/>
      <point x="593" y="654" type="line"/>
      <point x="593" y="660" type="line"/>
      <point x="483" y="660" type="line"/>
      <point x="357" y="377" type="line"/>
    </contour>
    <contour>
      <point x="188" y="606" type="curve" smooth="yes"/>
      <point x="240" y="606"/>
      <point x="263" y="564"/>
      <point x="263" y="494" type="curve" smooth="yes"/>
      <point x="263" y="422"/>
      <point x="241" y="383"/>
      <point x="189" y="383" type="curve" smooth="yes"/>
      <point x="137" y="383"/>
      <point x="115" y="423"/>
      <point x="115" y="495" type="curve" smooth="yes"/>
      <point x="115" y="564"/>
      <point x="136" y="606"/>
    </contour>
    <contour>
      <point x="277" y="160" type="curve" smooth="yes"/>
      <point x="277" y="51"/>
      <point x="327" y="-15"/>
      <point x="425" y="-15" type="curve" smooth="yes"/>
      <point x="523" y="-15"/>
      <point x="572" y="52"/>
      <point x="572" y="161" type="curve" smooth="yes"/>
      <point x="572" y="270"/>
      <point x="524" y="338"/>
      <point x="426" y="338" type="curve" smooth="yes"/>
      <point x="327" y="338"/>
      <point x="277" y="269"/>
    </contour>
    <contour>
      <point x="212" y="278" type="line"/>
      <point x="21" y="1" type="line"/>
      <point x="21" y="-5" type="line"/>
      <point x="131" y="-5" type="line"/>
      <point x="257" y="278" type="line"/>
    </contour>
    <contour>
      <point x="426" y="49" type="curve" smooth="yes"/>
      <point x="374" y="49"/>
      <point x="351" y="91"/>
      <point x="351" y="161" type="curve" smooth="yes"/>
      <point x="351" y="233"/>
      <point x="373" y="272"/>
      <point x="425" y="272" type="curve" smooth="yes"/>
      <point x="477" y="272"/>
      <point x="499" y="232"/>
      <point x="499" y="160" type="curve" smooth="yes"/>
      <point x="499" y="91"/>
      <point x="478" y="49"/>
    </contour>
  </outline>
</glyph>
<glyph name="ampersand" format="2">
  <advance width="614"/>
  <unicode hex="0026"/>
  <outline>
    <contour>
      <point x="476" y="652" type="line"/>
      <point x="404" y="664"/>
      <point x="359" y="669"/>
      <point x="325" y="669" type="curve" smooth="yes"/>
      <point x="210" y="669"/>
      <point x="147" y="601"/>
      <point x="147" y="519" type="curve" smooth="yes"/>
      <point x="147" y="475"/>
      <point x="163" y="436"/>
      <point x="206" y="373" type="curve" smooth="yes"/>
      <point x="212" y="364" type="line"/>
      <point x="82" y="321"/>
      <point x="50" y="268"/>
      <point x="50" y="168" type="curve" smooth="yes"/>
      <point x="50" y="54"/>
      <point x="121" y="-11"/>
      <point x="223" y="-11" type="curve" smooth="yes"/>
      <point x="307" y="-11"/>
      <point x="353" y="14"/>
      <point x="402" y="94" type="curve"/>
      <point x="466" y="-1" type="line"/>
      <point x="586" y="-1" type="line"/>
      <point x="459" y="185" type="line"/>
      <point x="556" y="390" type="line"/>
      <point x="472" y="423" type="line"/>
      <point x="401" y="262" type="line"/>
      <point x="285" y="435" type="line" smooth="yes"/>
      <point x="256" y="478"/>
      <point x="249" y="500"/>
      <point x="249" y="521" type="curve" smooth="yes"/>
      <point x="249" y="557"/>
      <point x="278" y="581"/>
      <point x="329" y="581" type="curve" smooth="yes"/>
      <point x="361" y="581"/>
      <point x="398" y="578"/>
      <point x="463" y="566" type="curve"/>
    </contour>
    <contour>
      <point x="154" y="180" type="curve" smooth="yes"/>
      <point x="154" y="239"/>
      <point x="164" y="267"/>
      <point x="257" y="298" type="curve"/>
      <point x="350" y="160" type="line"/>
      <point x="317" y="95"/>
      <point x="287" y="83"/>
      <point x="241" y="83" type="curve" smooth="yes"/>
      <point x="189" y="83"/>
      <point x="154" y="114"/>
    </contour>
  </outline>
</glyph>
<glyph name="quotesingle" format="2">
  <advance width="614"/>
  <unicode hex="0027"/>
  <outline>
    <contour>
      <point x="250" y="385" type="line"/>
      <point x="364" y="385" type="line"/>
      <point x="382" y="710" type="line"/>
      <point x="232" y="710" type="line"/>
    </contour>
  </outline>
</glyph>
<glyph name="parenleft" format="2">
  <advance width="614"/>
  <unicode hex="0028"/>
  <outline>
    <contour>
      <point x="108" y="326" type="curve" smooth="yes"/>
      <point x="108" y="149"/>
      <point x="227" y="-13"/>
      <point x="479" y="-149" type="curve"/>
      <point x="537" y="-76" type="line"/>
      <point x="297" y="54"/>
      <point x="222" y="187"/>
      <point x="222" y="329" type="curve" smooth="yes"/>
      <point x="222" y="471"/>
      <point x="297" y="604"/>
      <point x="537" y="734" type="curve"/>
      <point x="479" y="807" type="line"/>
      <point x="226" y="671"/>
      <point x="108" y="505"/>
    </contour>
  </outline>
</glyph>
<glyph name="parenright" format="2">
  <advance width="614"/>
  <unicode hex="0029"/>
  <outline>
    <contour>
      <point x="506" y="332" type="curve" smooth="yes"/>
      <point x="506" y="509"/>
      <point x="387" y="671"/>
      <point x="135" y="807" type="curve"/>
      <point x="77" y="734" type="line"/>
      <point x="317" y="604"/>
      <point x="392" y="471"/>
      <point x="392" y="329" type="curve" smooth="yes"/>
      <point x="392" y="187"/>
      <point x="317" y="54"/>
      <point x="77" y="-76" type="curve"/>
      <point x="135" y="-149" type="line"/>
      <point x="388" y="-13"/>
      <point x="506" y="153"/>
    </contour>
  </outline>
</glyph>
<glyph name="asterisk" format="2">
  <advance width="614"/>
  <unicode hex="002A"/>
  <guideline x="279" y="344" angle="274.2857142857143" identifier="YkQCsAMSsB"/>
  <outline>
    <contour>
      <point x="106" y="230" type="curve"/>
      <point x="191" y="157" type="line"/>
      <point x="234" y="206"/>
      <point x="257" y="284"/>
      <point x="308" y="347" type="curve"/>
      <point x="359" y="284"/>
      <point x="382" y="206"/>
      <point x="425" y="157" type="curve"/>
      <point x="510" y="230" type="line"/>
      <point x="467" y="280"/>
      <point x="393" y="313"/>
      <point x="338" y="372" type="curve"/>
      <point x="415" y="396"/>
      <point x="496" y="389"/>
      <point x="557" y="410" type="curve"/>
      <point x="519" y="517" type="line"/>
      <point x="459" y="495"/>
      <point x="402" y="441"/>
      <point x="327" y="410" type="curve"/>
      <point x="330" y="490"/>
      <point x="364" y="565"/>
      <point x="364" y="630" type="curve"/>
      <point x="251" y="630" type="line"/>
      <point x="251" y="565"/>
      <point x="286" y="492"/>
      <point x="289" y="410" type="curve"/>
      <point x="215" y="440"/>
      <point x="157" y="495"/>
      <point x="96" y="517" type="curve"/>
      <point x="59" y="410" type="line"/>
      <point x="120" y="389"/>
      <point x="201" y="396"/>
      <point x="278" y="372" type="curve"/>
      <point x="223" y="313"/>
      <point x="148" y="280"/>
    </contour>
  </outline>
</glyph>
<glyph name="comma" format="2">
  <advance width="614"/>
  <unicode hex="002C"/>
  <outline>
    <contour>
      <point x="114" y="-161" type="line"/>
      <point x="220" y="-161" type="line"/>
      <point x="341" y="-63"/>
      <point x="388" y="2"/>
      <point x="412" y="145" type="curve"/>
      <point x="240" y="145" type="line"/>
      <point x="227" y="18"/>
      <point x="206" y="-29"/>
      <point x="114" y="-159" type="curve"/>
    </contour>
  </outline>
</glyph>
<glyph name="period" format="2">
  <advance width="614"/>
  <unicode hex="002E"/>
  <outline>
    <contour>
      <point x="306" y="-15" type="curve" smooth="yes"/>
      <point x="372" y="-15"/>
      <point x="410" y="18"/>
      <point x="410" y="79" type="curve" smooth="yes"/>
      <point x="410" y="140"/>
      <point x="377" y="172"/>
      <point x="307" y="172" type="curve" smooth="yes"/>
      <point x="240" y="172"/>
      <point x="204" y="136"/>
      <point x="204" y="78" type="curve" smooth="yes"/>
      <point x="204" y="17"/>
      <point x="238" y="-15"/>
    </contour>
  </outline>
</glyph>
<glyph name="zero" format="2">
  <advance width="614"/>
  <unicode hex="0030"/>
  <outline>
    <contour>
      <point x="548" y="328" type="curve" smooth="yes"/>
      <point x="548" y="558"/>
      <point x="461" y="670"/>
      <point x="308" y="670" type="curve" smooth="yes"/>
      <point x="155" y="670"/>
      <point x="66" y="554"/>
      <point x="66" y="326" type="curve" smooth="yes"/>
      <point x="66" y="96"/>
      <point x="154" y="-15"/>
      <point x="306" y="-15" type="curve" smooth="yes"/>
      <point x="459" y="-15"/>
      <point x="548" y="99"/>
    </contour>
    <contour>
      <point x="174" y="328" type="curve" smooth="yes"/>
      <point x="174" y="505"/>
      <point x="217" y="573"/>
      <point x="307" y="573" type="curve" smooth="yes"/>
      <point x="366" y="573"/>
      <point x="405" y="543"/>
      <point x="425" y="470" type="curve"/>
      <point x="176" y="262" type="line"/>
      <point x="175" y="282"/>
      <point x="174" y="304"/>
    </contour>
    <contour>
      <point x="440" y="326" type="curve" smooth="yes"/>
      <point x="440" y="149"/>
      <point x="396" y="82"/>
      <point x="307" y="82" type="curve" smooth="yes"/>
      <point x="249" y="82"/>
      <point x="210" y="111"/>
      <point x="190" y="182" type="curve"/>
      <point x="438" y="389" type="line"/>
      <point x="439" y="370"/>
      <point x="440" y="349"/>
    </contour>
  </outline>
</glyph>
<glyph name="two" format="2">
  <advance width="614"/>
  <unicode hex="0032"/>
  <outline>
    <contour>
      <point x="79" y="0" type="line"/>
      <point x="551" y="0" type="line"/>
      <point x="551" y="94" type="line"/>
      <point x="223" y="94" type="line"/>
      <point x="223" y="97" type="line"/>
      <point x="374" y="244" type="line" smooth="yes"/>
      <point x="508" y="373"/>
      <point x="531" y="419"/>
      <point x="531" y="489" type="curve" smooth="yes"/>
      <point x="531" y="601"/>
      <point x="447" y="670"/>
      <point x="329" y="670" type="curve" smooth="yes"/>
      <point x="241" y="670"/>
      <point x="174" y="637"/>
      <point x="63" y="533" type="curve"/>
      <point x="125" y="458" type="line"/>
      <point x="224" y="550"/>
      <point x="265" y="573"/>
      <point x="322" y="573" type="curve" smooth="yes"/>
      <point x="384" y="573"/>
      <point x="417" y="538"/>
      <point x="417" y="485" type="curve" smooth="yes"/>
      <point x="417" y="438"/>
      <point x="399" y="404"/>
      <point x="280" y="285" type="curve" smooth="yes"/>
      <point x="79" y="83" type="line"/>
    </contour>
  </outline>
</glyph>
<glyph name="three" format="2">
  <advance width="614"/>
  <unicode hex="0033"/>
  <outline>
    <contour>
      <point x="73" y="561" type="line"/>
      <point x="367" y="561" type="line"/>
      <point x="367" y="558" type="line"/>
      <point x="175" y="354" type="line"/>
      <point x="198" y="297" type="line"/>
      <point x="236" y="304"/>
      <point x="266" y="307"/>
      <point x="295" y="307" type="curve" smooth="yes"/>
      <point x="388" y="307"/>
      <point x="427" y="272"/>
      <point x="427" y="218" type="curve" smooth="yes"/>
      <point x="427" y="154"/>
      <point x="372" y="113"/>
      <point x="205" y="101" type="curve" smooth="yes"/>
      <point x="84" y="92" type="line"/>
      <point x="94" y="-10" type="line"/>
      <point x="216" y="-2" type="line" smooth="yes"/>
      <point x="451" y="14"/>
      <point x="542" y="97"/>
      <point x="542" y="218" type="curve" smooth="yes"/>
      <point x="542" y="302"/>
      <point x="481" y="390"/>
      <point x="333" y="392" type="curve"/>
      <point x="333" y="394" type="line"/>
      <point x="512" y="581" type="line"/>
      <point x="512" y="655" type="line"/>
      <point x="73" y="655" type="line"/>
    </contour>
  </outline>
</glyph>
<glyph name="five" format="2">
  <advance width="614"/>
  <unicode hex="0035"/>
  <outline>
    <contour>
      <point x="539" y="233" type="curve" smooth="yes"/>
      <point x="539" y="354"/>
      <point x="453" y="422"/>
      <point x="349" y="422" type="curve" smooth="yes"/>
      <point x="294" y="422"/>
      <point x="244" y="408"/>
      <point x="199" y="379" type="curve"/>
      <point x="214" y="561" type="line"/>
      <point x="500" y="561" type="line"/>
      <point x="500" y="655" type="line"/>
      <point x="120" y="655" type="line"/>
      <point x="97" y="307" type="line"/>
      <point x="100" y="302" type="line"/>
      <point x="179" y="288" type="line"/>
      <point x="225" y="318"/>
      <point x="274" y="335"/>
      <point x="322" y="335" type="curve" smooth="yes"/>
      <point x="380" y="335"/>
      <point x="425" y="300"/>
      <point x="425" y="236" type="curve" smooth="yes"/>
      <point x="425" y="159"/>
      <point x="373" y="115"/>
      <point x="198" y="99" type="curve" smooth="yes"/>
      <point x="79" y="88" type="line"/>
      <point x="90" y="-10" type="line"/>
      <point x="206" y="0" type="line" smooth="yes"/>
      <point x="449" y="21"/>
      <point x="539" y="104"/>
    </contour>
  </outline>
</glyph>
<glyph name="six" format="2">
  <advance width="614"/>
  <unicode hex="0036"/>
  <outline>
    <contour>
      <point x="546" y="214" type="curve" smooth="yes"/>
      <point x="546" y="351"/>
      <point x="464" y="430"/>
      <point x="332" y="430" type="curve" smooth="yes"/>
      <point x="305" y="430"/>
      <point x="275" y="427"/>
      <point x="244" y="418" type="curve"/>
      <point x="268" y="454"/>
      <point x="300" y="490"/>
      <point x="340" y="527" type="curve" smooth="yes"/>
      <point x="479" y="653" type="line"/>
      <point x="478" y="655" type="line"/>
      <point x="330" y="655" type="line"/>
      <point x="242" y="569" type="line" smooth="yes"/>
      <point x="118" y="448"/>
      <point x="69" y="355"/>
      <point x="69" y="225" type="curve" smooth="yes"/>
      <point x="69" y="79"/>
      <point x="166" y="-15"/>
      <point x="303" y="-15" type="curve" smooth="yes"/>
      <point x="446" y="-15"/>
      <point x="546" y="79"/>
    </contour>
    <contour>
      <point x="183" y="229" type="curve" smooth="yes"/>
      <point x="183" y="265"/>
      <point x="189" y="301"/>
      <point x="203" y="337" type="curve"/>
      <point x="236" y="347"/>
      <point x="268" y="351"/>
      <point x="302" y="351" type="curve" smooth="yes"/>
      <point x="384" y="351"/>
      <point x="431" y="301"/>
      <point x="431" y="216" type="curve" smooth="yes"/>
      <point x="431" y="132"/>
      <point x="382" y="77"/>
      <point x="305" y="77" type="curve" smooth="yes"/>
      <point x="235" y="77"/>
      <point x="183" y="134"/>
    </contour>
  </outline>
</glyph>
<glyph name="eight" format="2">
  <advance width="614"/>
  <unicode hex="0038"/>
  <outline>
    <contour>
      <point x="306" y="-15" type="curve" smooth="yes"/>
      <point x="443" y="-15"/>
      <point x="545" y="58"/>
      <point x="545" y="174" type="curve" smooth="yes"/>
      <point x="545" y="252"/>
      <point x="487" y="311"/>
      <point x="400" y="336" type="curve"/>
      <point x="400" y="341" type="line"/>
      <point x="477" y="365"/>
      <point x="526" y="419"/>
      <point x="526" y="491" type="curve" smooth="yes"/>
      <point x="526" y="602"/>
      <point x="435" y="670"/>
      <point x="309" y="670" type="curve" smooth="yes"/>
      <point x="182" y="670"/>
      <point x="88" y="601"/>
      <point x="88" y="489" type="curve" smooth="yes"/>
      <point x="88" y="418"/>
      <point x="137" y="364"/>
      <point x="214" y="341" type="curve"/>
      <point x="214" y="336" type="line"/>
      <point x="126" y="310"/>
      <point x="69" y="250"/>
      <point x="69" y="172" type="curve" smooth="yes"/>
      <point x="69" y="56"/>
      <point x="171" y="-15"/>
    </contour>
    <contour>
      <point x="307" y="374" type="curve" smooth="yes"/>
      <point x="247" y="374"/>
      <point x="196" y="413"/>
      <point x="196" y="478" type="curve" smooth="yes"/>
      <point x="196" y="544"/>
      <point x="244" y="582"/>
      <point x="308" y="582" type="curve" smooth="yes"/>
      <point x="372" y="582"/>
      <point x="418" y="545"/>
      <point x="418" y="480" type="curve" smooth="yes"/>
      <point x="418" y="415"/>
      <point x="368" y="374"/>
    </contour>
    <contour>
      <point x="307" y="72" type="curve" smooth="yes"/>
      <point x="233" y="72"/>
      <point x="178" y="114"/>
      <point x="178" y="183" type="curve" smooth="yes"/>
      <point x="178" y="253"/>
      <point x="234" y="297"/>
      <point x="307" y="297" type="curve" smooth="yes"/>
      <point x="380" y="297"/>
      <point x="436" y="255"/>
      <point x="436" y="185" type="curve" smooth="yes"/>
      <point x="436" y="115"/>
      <point x="381" y="72"/>
    </contour>
  </outline>
</glyph>
<glyph name="nine" format="2">
  <advance width="614"/>
  <unicode hex="0039"/>
  <outline>
    <contour>
      <point x="373" y="86" type="line" smooth="yes"/>
      <point x="495" y="205"/>
      <point x="546" y="304"/>
      <point x="546" y="430" type="curve" smooth="yes"/>
      <point x="546" y="576"/>
      <point x="451" y="670"/>
      <point x="314" y="670" type="curve" smooth="yes"/>
      <point x="169" y="670"/>
      <point x="68" y="576"/>
      <point x="68" y="441" type="curve" smooth="yes"/>
      <point x="68" y="304"/>
      <point x="150" y="225"/>
      <point x="283" y="225" type="curve" smooth="yes"/>
      <point x="310" y="225"/>
      <point x="339" y="228"/>
      <point x="371" y="237" type="curve"/>
      <point x="347" y="201"/>
      <point x="315" y="165"/>
      <point x="274" y="128" type="curve" smooth="yes"/>
      <point x="136" y="2" type="line"/>
      <point x="137" y="0" type="line"/>
      <point x="285" y="0" type="line"/>
    </contour>
    <contour>
      <point x="432" y="426" type="curve" smooth="yes"/>
      <point x="432" y="390"/>
      <point x="426" y="354"/>
      <point x="412" y="318" type="curve"/>
      <point x="378" y="308"/>
      <point x="346" y="304"/>
      <point x="313" y="304" type="curve" smooth="yes"/>
      <point x="230" y="304"/>
      <point x="183" y="354"/>
      <point x="183" y="439" type="curve" smooth="yes"/>
      <point x="183" y="523"/>
      <point x="232" y="578"/>
      <point x="309" y="578" type="curve" smooth="yes"/>
      <point x="380" y="578"/>
      <point x="432" y="521"/>
    </contour>
  </outline>
</glyph>
<glyph name="colon" format="2">
  <advance width="614"/>
  <unicode hex="003A"/>
  <outline>
    <contour>
      <point x="306" y="308" type="curve" smooth="yes"/>
      <point x="372" y="308"/>
      <point x="410" y="338"/>
      <point x="410" y="396" type="curve" smooth="yes"/>
      <point x="410" y="454"/>
      <point x="377" y="484"/>
      <point x="307" y="484" type="curve" smooth="yes"/>
      <point x="240" y="484"/>
      <point x="204" y="448"/>
      <point x="204" y="396" type="curve" smooth="yes"/>
      <point x="204" y="337"/>
      <point x="243" y="308"/>
    </contour>
    <contour>
      <point x="306" y="-15" type="curve" smooth="yes"/>
      <point x="372" y="-15"/>
      <point x="410" y="16"/>
      <point x="410" y="72" type="curve" smooth="yes"/>
      <point x="410" y="131"/>
      <point x="377" y="161"/>
      <point x="307" y="161" type="curve" smooth="yes"/>
      <point x="240" y="161"/>
      <point x="204" y="125"/>
      <point x="204" y="74" type="curve" smooth="yes"/>
      <point x="204" y="14"/>
      <point x="243" y="-15"/>
    </contour>
  </outline>
</glyph>
<glyph name="semicolon" format="2">
  <advance width="614"/>
  <unicode hex="003B"/>
  <outline>
    <contour>
      <point x="319" y="308" type="curve" smooth="yes"/>
      <point x="385" y="308"/>
      <point x="423" y="338"/>
      <point x="423" y="396" type="curve" smooth="yes"/>
      <point x="423" y="454"/>
      <point x="391" y="484"/>
      <point x="321" y="484" type="curve" smooth="yes"/>
      <point x="253" y="484"/>
      <point x="217" y="448"/>
      <point x="217" y="396" type="curve" smooth="yes"/>
      <point x="217" y="337"/>
      <point x="256" y="308"/>
    </contour>
    <contour>
      <point x="108" y="-161" type="line"/>
      <point x="212" y="-161" type="line"/>
      <point x="334" y="-63"/>
      <point x="381" y="2"/>
      <point x="405" y="145" type="curve"/>
      <point x="234" y="145" type="line"/>
      <point x="221" y="18"/>
      <point x="200" y="-29"/>
      <point x="108" y="-159" type="curve"/>
    </contour>
  </outline>
</glyph>
<glyph name="question" format="2">
  <advance width="614"/>
  <unicode hex="003F"/>
  <outline>
    <contour>
      <point x="293" y="258" type="line"/>
      <point x="304" y="326"/>
      <point x="307" y="334"/>
      <point x="339" y="350" type="curve" smooth="yes"/>
      <point x="414" y="386" type="line" smooth="yes"/>
      <point x="506" y="433"/>
      <point x="545" y="469"/>
      <point x="545" y="550" type="curve" smooth="yes"/>
      <point x="545" y="656"/>
      <point x="483" y="725"/>
      <point x="332" y="725" type="curve" smooth="yes"/>
      <point x="253" y="725"/>
      <point x="192" y="716"/>
      <point x="64" y="678" type="curve"/>
      <point x="86" y="581" type="line"/>
      <point x="206" y="621"/>
      <point x="271" y="631"/>
      <point x="321" y="631" type="curve" smooth="yes"/>
      <point x="393" y="631"/>
      <point x="430" y="603"/>
      <point x="430" y="550" type="curve" smooth="yes"/>
      <point x="430" y="513"/>
      <point x="413" y="494"/>
      <point x="341" y="459" type="curve" smooth="yes"/>
      <point x="259" y="419" type="line" smooth="yes"/>
      <point x="214" y="397"/>
      <point x="202" y="384"/>
      <point x="202" y="359" type="curve" smooth="yes"/>
      <point x="202" y="342"/>
      <point x="205" y="319"/>
      <point x="218" y="258" type="curve"/>
    </contour>
    <contour>
      <point x="249" y="-15" type="curve" smooth="yes"/>
      <point x="318" y="-15"/>
      <point x="349" y="10"/>
      <point x="349" y="59" type="curve" smooth="yes"/>
      <point x="349" y="109"/>
      <point x="324" y="135"/>
      <point x="251" y="135" type="curve" smooth="yes"/>
      <point x="179" y="135"/>
      <point x="152" y="105"/>
      <point x="152" y="60" type="curve" smooth="yes"/>
      <point x="152" y="10"/>
      <point x="181" y="-15"/>
    </contour>
  </outline>
</glyph>
<glyph name="at" format="2">
  <advance width="614"/>
  <unicode hex="0040"/>
  <guideline x="471" y="-28" angle="77.1489107691877" identifier="3whqXdGgid"/>
  <outline>
    <contour>
      <point x="492" y="-60" type="curve"/>
      <point x="483" y="-11" type="line"/>
      <point x="425" y="-24"/>
      <point x="381" y="-28"/>
      <point x="346" y="-28" type="curve" smooth="yes"/>
      <point x="193" y="-28"/>
      <point x="115" y="57"/>
      <point x="115" y="320" type="curve" smooth="yes"/>
      <point x="115" y="598"/>
      <point x="196" y="674"/>
      <point x="328" y="674" type="curve" smooth="yes"/>
      <point x="428" y="674"/>
      <point x="478" y="647"/>
      <point x="496" y="515" type="curve"/>
      <point x="402" y="515" type="line" smooth="yes"/>
      <point x="278" y="515"/>
      <point x="212" y="461"/>
      <point x="212" y="323" type="curve" smooth="yes"/>
      <point x="212" y="188"/>
      <point x="265" y="129"/>
      <point x="382" y="129" type="curve" smooth="yes"/>
      <point x="497" y="129"/>
      <point x="560" y="179"/>
      <point x="560" y="358" type="curve" smooth="yes"/>
      <point x="560" y="661"/>
      <point x="484" y="725"/>
      <point x="334" y="725" type="curve" smooth="yes"/>
      <point x="165" y="725"/>
      <point x="60" y="627"/>
      <point x="60" y="315" type="curve" smooth="yes"/>
      <point x="60" y="24"/>
      <point x="152" y="-79"/>
      <point x="341" y="-79" type="curve" smooth="yes"/>
      <point x="390" y="-79"/>
      <point x="432" y="-73"/>
    </contour>
    <contour>
      <point x="291" y="322" type="curve" smooth="yes"/>
      <point x="291" y="412"/>
      <point x="326" y="444"/>
      <point x="400" y="444" type="curve" smooth="yes"/>
      <point x="503" y="444" type="line"/>
      <point x="504" y="418"/>
      <point x="505" y="388"/>
      <point x="505" y="356" type="curve" smooth="yes"/>
      <point x="505" y="234"/>
      <point x="471" y="200"/>
      <point x="386" y="200" type="curve" smooth="yes"/>
      <point x="324" y="200"/>
      <point x="291" y="231"/>
    </contour>
  </outline>
</glyph>
<glyph name="A" format="2">
  <advance width="614"/>
  <unicode hex="0041"/>
  <anchor x="301" y="691" name="aboveUC"/>
  <anchor x="301" y="651" name="aboveUCx"/>
  <anchor x="505" y="-10" name="belowogonek"/>
  <anchor x="301" y="-33" name="below"/>
  <anchor x="301" y="0" name="belowx"/>
  <outline>
    <contour>
      <point x="147" y="0" type="line"/>
      <point x="195" y="155" type="line"/>
      <point x="413" y="155" type="line"/>
      <point x="461" y="0" type="line"/>
      <point x="579" y="0" type="line"/>
      <point x="377" y="655" type="line"/>
      <point x="237" y="655" type="line"/>
      <point x="35" y="0" type="line"/>
    </contour>
    <contour>
      <point x="219" y="244" type="line"/>
      <point x="304" y="538" type="line"/>
      <point x="388" y="244" type="line"/>
    </contour>
  </outline>
</glyph>
<glyph name="B" format="2">
  <advance width="614"/>
  <unicode hex="0042"/>
  <anchor x="316" y="-35" name="below"/>
  <outline>
    <contour>
      <point x="88" y="655" type="line"/>
      <point x="88" y="0" type="line"/>
      <point x="339" y="0" type="line" smooth="yes"/>
      <point x="512" y="0"/>
      <point x="569" y="68"/>
      <point x="569" y="164" type="curve" smooth="yes"/>
      <point x="569" y="258"/>
      <point x="505" y="319"/>
      <point x="390" y="335" type="curve"/>
      <point x="390" y="339" type="line"/>
      <point x="498" y="366"/>
      <point x="540" y="427"/>
      <point x="540" y="502" type="curve" smooth="yes"/>
      <point x="540" y="594"/>
      <point x="481" y="655"/>
      <point x="337" y="655" type="curve" smooth="yes"/>
    </contour>
    <contour>
      <point x="321" y="568" type="line" smooth="yes"/>
      <point x="393" y="568"/>
      <point x="427" y="540"/>
      <point x="427" y="481" type="curve" smooth="yes"/>
      <point x="427" y="423"/>
      <point x="386" y="379"/>
      <point x="287" y="374" type="curve" smooth="yes"/>
      <point x="199" y="369" type="line"/>
      <point x="199" y="568" type="line"/>
    </contour>
    <contour>
      <point x="300" y="285" type="line" smooth="yes"/>
      <point x="413" y="280"/>
      <point x="456" y="238"/>
      <point x="456" y="178" type="curve" smooth="yes"/>
      <point x="456" y="122"/>
      <point x="421" y="86"/>
      <point x="334" y="86" type="curve" smooth="yes"/>
      <point x="199" y="86" type="line"/>
      <point x="199" y="290" type="line"/>
    </contour>
  </outline>
</glyph>
<glyph name="C" format="2">
  <advance width="614"/>
  <unicode hex="0043"/>
  <anchor x="351" y="694" name="aboveUC"/>
  <anchor x="351" y="659" name="aboveUCx"/>
  <anchor x="345" y="-40" name="below"/>
  <anchor x="336" y="-15" name="belowcedilla"/>
  <outline>
    <contour>
      <point x="329" y="-15" type="curve" smooth="yes"/>
      <point x="402" y="-15"/>
      <point x="480" y="9"/>
      <point x="571" y="76" type="curve"/>
      <point x="520" y="153" type="line"/>
      <point x="442" y="97"/>
      <point x="389" y="79"/>
      <point x="344" y="79" type="curve" smooth="yes"/>
      <point x="247" y="79"/>
      <point x="168" y="152"/>
      <point x="168" y="328" type="curve" smooth="yes"/>
      <point x="168" y="490"/>
      <point x="250" y="576"/>
      <point x="350" y="576" type="curve" smooth="yes"/>
      <point x="392" y="576"/>
      <point x="433" y="564"/>
      <point x="512" y="504" type="curve"/>
      <point x="565" y="585" type="line"/>
      <point x="476" y="649"/>
      <point x="420" y="670"/>
      <point x="348" y="670" type="curve" smooth="yes"/>
      <point x="174" y="670"/>
      <point x="53" y="528"/>
      <point x="53" y="326" type="curve" smooth="yes"/>
      <point x="53" y="107"/>
      <point x="156" y="-15"/>
    </contour>
  </outline>
</glyph>
<glyph name="D" format="2">
  <advance width="614"/>
  <unicode hex="0044"/>
  <anchor x="279" y="691" name="aboveUC"/>
  <anchor x="280" y="-35" name="below"/>
  <outline>
    <contour>
      <point x="85" y="655" type="line"/>
      <point x="85" y="0" type="line"/>
      <point x="172" y="0" type="line" smooth="yes"/>
      <point x="439" y="0"/>
      <point x="565" y="132"/>
      <point x="565" y="335" type="curve" smooth="yes"/>
      <point x="565" y="536"/>
      <point x="438" y="655"/>
      <point x="199" y="655" type="curve" smooth="yes"/>
    </contour>
    <contour>
      <point x="234" y="560" type="line" smooth="yes"/>
      <point x="364" y="556"/>
      <point x="450" y="486"/>
      <point x="450" y="333" type="curve" smooth="yes"/>
      <point x="450" y="174"/>
      <point x="368" y="101"/>
      <point x="212" y="95" type="curve" smooth="yes"/>
      <point x="197" y="94" type="line"/>
      <point x="197" y="562" type="line"/>
    </contour>
  </outline>
</glyph>
<glyph name="G" format="2">
  <advance width="614"/>
  <unicode hex="0047"/>
  <anchor x="339" y="693" name="aboveUC"/>
  <anchor x="339" y="658" name="aboveUCx"/>
  <anchor x="348" y="-40" name="below"/>
  <outline>
    <contour>
      <point x="498" y="562" type="curve"/>
      <point x="507" y="655" type="line"/>
      <point x="461" y="662"/>
      <point x="434" y="665"/>
      <point x="399" y="665" type="curve" smooth="yes"/>
      <point x="182" y="665"/>
      <point x="52" y="537"/>
      <point x="52" y="324" type="curve" smooth="yes"/>
      <point x="52" y="99"/>
      <point x="159" y="-15"/>
      <point x="364" y="-15" type="curve" smooth="yes"/>
      <point x="427" y="-15"/>
      <point x="491" y="-5"/>
      <point x="555" y="12" type="curve"/>
      <point x="555" y="362" type="line"/>
      <point x="310" y="362" type="line"/>
      <point x="310" y="274" type="line"/>
      <point x="448" y="274" type="line"/>
      <point x="448" y="87" type="line"/>
      <point x="423" y="81"/>
      <point x="399" y="79"/>
      <point x="376" y="79" type="curve" smooth="yes"/>
      <point x="233" y="79"/>
      <point x="168" y="156"/>
      <point x="168" y="328" type="curve" smooth="yes"/>
      <point x="168" y="491"/>
      <point x="258" y="570"/>
      <point x="405" y="570" type="curve" smooth="yes"/>
      <point x="436" y="570"/>
      <point x="459" y="568"/>
    </contour>
  </outline>
</glyph>
<glyph name="I" format="2">
  <advance width="614"/>
  <unicode hex="0049"/>
  <anchor x="307" y="-35" name="below"/>
  <anchor x="307" y="-10" name="belowogonek"/>
  <anchor x="307" y="691" name="aboveUC"/>
  <anchor x="307" y="661" name="aboveUCx"/>
  <outline>
    <contour>
      <point x="123" y="59" type="line"/>
      <point x="123" y="0" type="line"/>
      <point x="491" y="0" type="line"/>
      <point x="491" y="59" type="line"/>
      <point x="364" y="83" type="line"/>
      <point x="364" y="572" type="line"/>
      <point x="491" y="596" type="line"/>
      <point x="491" y="655" type="line"/>
      <point x="123" y="655" type="line"/>
      <point x="123" y="596" type="line"/>
      <point x="252" y="572" type="line"/>
      <point x="252" y="83" type="line"/>
    </contour>
  </outline>
</glyph>
<glyph name="J" format="2">
  <advance width="614"/>
  <unicode hex="004A"/>
  <anchor x="471" y="691" name="aboveUC"/>
  <anchor x="471" y="651" name="aboveUCx"/>
  <outline>
    <contour>
      <point x="325" y="-13" type="curve" smooth="yes"/>
      <point x="460" y="-13"/>
      <point x="528" y="69"/>
      <point x="528" y="189" type="curve" smooth="yes"/>
      <point x="528" y="655" type="line"/>
      <point x="415" y="655" type="line"/>
      <point x="415" y="198" type="line" smooth="yes"/>
      <point x="415" y="124"/>
      <point x="383" y="88"/>
      <point x="320" y="88" type="curve" smooth="yes"/>
      <point x="272" y="88"/>
      <point x="222" y="112"/>
      <point x="110" y="212" type="curve"/>
      <point x="41" y="130" type="line"/>
      <point x="172" y="13"/>
      <point x="238" y="-13"/>
    </contour>
  </outline>
</glyph>
<glyph name="L" format="2">
  <advance width="614"/>
  <unicode hex="004C"/>
  <anchor x="154" y="691" name="aboveUC"/>
  <anchor x="326" y="-35" name="below"/>
  <anchor x="353" y="655" name="topright"/>
  <outline>
    <contour>
      <point x="93" y="655" type="line"/>
      <point x="93" y="0" type="line"/>
      <point x="548" y="0" type="line"/>
      <point x="548" y="93" type="line"/>
      <point x="206" y="93" type="line"/>
      <point x="206" y="655" type="line"/>
    </contour>
  </outline>
</glyph>
<glyph name="O" format="2">
  <advance width="614"/>
  <unicode hex="004F"/>
  <anchor x="308" y="696" name="aboveUC"/>
  <anchor x="308" y="661" name="aboveUCx"/>
  <anchor x="309" y="-40" name="below"/>
  <anchor x="318" y="-15" name="belowogonek"/>
  <outline>
    <contour>
      <point x="561" y="328" type="curve" smooth="yes"/>
      <point x="561" y="558"/>
      <point x="464" y="670"/>
      <point x="308" y="670" type="curve" smooth="yes"/>
      <point x="152" y="670"/>
      <point x="53" y="554"/>
      <point x="53" y="326" type="curve" smooth="yes"/>
      <point x="53" y="96"/>
      <point x="151" y="-15"/>
      <point x="306" y="-15" type="curve" smooth="yes"/>
      <point x="462" y="-15"/>
      <point x="561" y="99"/>
    </contour>
    <contour>
      <point x="168" y="328" type="curve" smooth="yes"/>
      <point x="168" y="508"/>
      <point x="220" y="576"/>
      <point x="307" y="576" type="curve" smooth="yes"/>
      <point x="393" y="576"/>
      <point x="446" y="508"/>
      <point x="446" y="326" type="curve" smooth="yes"/>
      <point x="446" y="146"/>
      <point x="394" y="79"/>
      <point x="307" y="79" type="curve" smooth="yes"/>
      <point x="221" y="79"/>
      <point x="168" y="147"/>
    </contour>
  </outline>
</glyph>
<glyph name="P" format="2">
  <advance width="614"/>
  <unicode hex="0050"/>
  <anchor x="323" y="691" name="aboveUC"/>
  <outline>
    <contour>
      <point x="88" y="655" type="line"/>
      <point x="88" y="0" type="line"/>
      <point x="201" y="0" type="line"/>
      <point x="201" y="222" type="line"/>
      <point x="305" y="222" type="line" smooth="yes"/>
      <point x="472" y="222"/>
      <point x="572" y="298"/>
      <point x="572" y="441" type="curve" smooth="yes"/>
      <point x="572" y="572"/>
      <point x="482" y="655"/>
      <point x="314" y="655" type="curve" smooth="yes"/>
    </contour>
    <contour>
      <point x="319" y="561" type="line" smooth="yes"/>
      <point x="411" y="561"/>
      <point x="458" y="517"/>
      <point x="458" y="439" type="curve" smooth="yes"/>
      <point x="458" y="361"/>
      <point x="407" y="313"/>
      <point x="312" y="313" type="curve" smooth="yes"/>
      <point x="201" y="313" type="line"/>
      <point x="201" y="561" type="line"/>
    </contour>
  </outline>
</glyph>
<glyph name="Q" format="2">
  <advance width="614"/>
  <unicode hex="0051"/>
  <outline>
    <contour>
      <point x="616" y="-110" type="line"/>
      <point x="477" y="61" type="line"/>
      <point x="530" y="119"/>
      <point x="561" y="209"/>
      <point x="561" y="328" type="curve" smooth="yes"/>
      <point x="561" y="558"/>
      <point x="464" y="670"/>
      <point x="308" y="670" type="curve" smooth="yes"/>
      <point x="152" y="670"/>
      <point x="53" y="555"/>
      <point x="53" y="325" type="curve" smooth="yes"/>
      <point x="53" y="97"/>
      <point x="151" y="-13"/>
      <point x="306" y="-13" type="curve" smooth="yes"/>
      <point x="342" y="-13"/>
      <point x="376" y="-6"/>
      <point x="407" y="9" type="curve"/>
      <point x="518" y="-173" type="line"/>
    </contour>
    <contour>
      <point x="168" y="327" type="curve" smooth="yes"/>
      <point x="168" y="509"/>
      <point x="220" y="576"/>
      <point x="307" y="576" type="curve" smooth="yes"/>
      <point x="393" y="576"/>
      <point x="446" y="508"/>
      <point x="446" y="326" type="curve" smooth="yes"/>
      <point x="446" y="142"/>
      <point x="399" y="78"/>
      <point x="307" y="78" type="curve" smooth="yes"/>
      <point x="221" y="78"/>
      <point x="168" y="146"/>
    </contour>
  </outline>
</glyph>
<glyph name="R" format="2">
  <advance width="614"/>
  <unicode hex="0052"/>
  <anchor x="315" y="691" name="aboveUC"/>
  <anchor x="315" y="-35" name="below"/>
  <anchor x="315" y="0" name="belowx"/>
  <outline>
    <contour>
      <point x="590" y="4" type="line"/>
      <point x="443" y="182" type="line" smooth="yes"/>
      <point x="399" y="235"/>
      <point x="373" y="253"/>
      <point x="332" y="272" type="curve"/>
      <point x="332" y="278" type="line"/>
      <point x="499" y="304"/>
      <point x="546" y="375"/>
      <point x="546" y="471" type="curve" smooth="yes"/>
      <point x="546" y="585"/>
      <point x="473" y="655"/>
      <point x="331" y="655" type="curve" smooth="yes"/>
      <point x="88" y="655" type="line"/>
      <point x="88" y="0" type="line"/>
      <point x="200" y="0" type="line"/>
      <point x="200" y="250" type="line"/>
      <point x="261" y="243"/>
      <point x="284" y="224"/>
      <point x="327" y="165" type="curve" smooth="yes"/>
      <point x="449" y="0" type="line"/>
      <point x="590" y="0" type="line"/>
    </contour>
    <contour>
      <point x="313" y="565" type="line" smooth="yes"/>
      <point x="396" y="565"/>
      <point x="433" y="528"/>
      <point x="433" y="461" type="curve" smooth="yes"/>
      <point x="433" y="397"/>
      <point x="401" y="353"/>
      <point x="236" y="332" type="curve" smooth="yes"/>
      <point x="200" y="327" type="line"/>
      <point x="200" y="565" type="line"/>
    </contour>
  </outline>
</glyph>
<glyph name="S" format="2">
  <advance width="614"/>
  <unicode hex="0053"/>
  <guideline x="364" y="413" angle="181.0597480223014" identifier="ylsDMwWxaG"/>
  <anchor x="318" y="696" name="aboveUC"/>
  <anchor x="318" y="661" name="aboveUCx"/>
  <anchor x="300" y="-38" name="below"/>
  <anchor x="303" y="-15" name="belowcedilla"/>
  <outline>
    <contour>
      <point x="305" y="80" type="curve" smooth="yes"/>
      <point x="251" y="80"/>
      <point x="177" y="98"/>
      <point x="88" y="129" type="curve"/>
      <point x="64" y="33" type="line"/>
      <point x="154" y="2"/>
      <point x="229" y="-14"/>
      <point x="303" y="-14" type="curve" smooth="yes"/>
      <point x="460" y="-14"/>
      <point x="545" y="65"/>
      <point x="545" y="182" type="curve" smooth="yes"/>
      <point x="545" y="282"/>
      <point x="499" y="333"/>
      <point x="379" y="369" type="curve" smooth="yes"/>
      <point x="310" y="391" type="line" smooth="yes"/>
      <point x="222" y="419"/>
      <point x="201" y="448"/>
      <point x="201" y="496" type="curve" smooth="yes"/>
      <point x="201" y="541"/>
      <point x="233" y="574"/>
      <point x="319" y="574" type="curve" smooth="yes"/>
      <point x="367" y="574"/>
      <point x="427" y="564"/>
      <point x="507" y="542" type="curve"/>
      <point x="523" y="638" type="line"/>
      <point x="449" y="657"/>
      <point x="393" y="667"/>
      <point x="321" y="667" type="curve" smooth="yes"/>
      <point x="166" y="667"/>
      <point x="88" y="582"/>
      <point x="88" y="487" type="curve" smooth="yes"/>
      <point x="88" y="392"/>
      <point x="136" y="334"/>
      <point x="254" y="296" type="curve" smooth="yes"/>
      <point x="321" y="275" type="line" smooth="yes"/>
      <point x="411" y="247"/>
      <point x="431" y="221"/>
      <point x="431" y="174" type="curve" smooth="yes"/>
      <point x="431" y="116"/>
      <point x="394" y="80"/>
    </contour>
  </outline>
</glyph>
<glyph name="T" format="2">
  <advance width="614"/>
  <unicode hex="0054"/>
  <anchor x="307" y="691" name="aboveUC"/>
  <anchor x="307" y="-35" name="below"/>
  <anchor x="305" y="-9" name="belowcedilla"/>
  <outline>
    <contour>
      <point x="45" y="561" type="line"/>
      <point x="251" y="561" type="line"/>
      <point x="251" y="0" type="line"/>
      <point x="363" y="0" type="line"/>
      <point x="363" y="561" type="line"/>
      <point x="569" y="561" type="line"/>
      <point x="569" y="655" type="line"/>
      <point x="45" y="655" type="line"/>
    </contour>
  </outline>
</glyph>
<glyph name="U" format="2">
  <advance width="614"/>
  <unicode hex="0055"/>
  <anchor x="307" y="691" name="aboveUC"/>
  <anchor x="307" y="656" name="aboveUCx"/>
  <anchor x="307" y="-40" name="below"/>
  <anchor x="316" y="-15" name="belowogonek"/>
  <outline>
    <contour>
      <point x="429" y="229" type="line" smooth="yes"/>
      <point x="429" y="129"/>
      <point x="387" y="87"/>
      <point x="307" y="87" type="curve" smooth="yes"/>
      <point x="228" y="87"/>
      <point x="186" y="131"/>
      <point x="186" y="229" type="curve" smooth="yes"/>
      <point x="186" y="655" type="line"/>
      <point x="73" y="655" type="line"/>
      <point x="73" y="230" type="line" smooth="yes"/>
      <point x="73" y="65"/>
      <point x="150" y="-15"/>
      <point x="304" y="-15" type="curve" smooth="yes"/>
      <point x="462" y="-15"/>
      <point x="541" y="62"/>
      <point x="541" y="230" type="curve" smooth="yes"/>
      <point x="541" y="655" type="line"/>
      <point x="429" y="655" type="line"/>
    </contour>
  </outline>
</glyph>
<glyph name="Y" format="2">
  <advance width="614"/>
  <unicode hex="0059"/>
  <anchor x="308" y="691" name="aboveUC"/>
  <anchor x="308" y="656" name="aboveUCx"/>
  <anchor x="309" y="-35" name="below"/>
  <outline>
    <contour>
      <point x="585" y="655" type="line"/>
      <point x="461" y="655" type="line"/>
      <point x="309" y="384" type="line"/>
      <point x="157" y="655" type="line"/>
      <point x="29" y="655" type="line"/>
      <point x="251" y="277" type="line"/>
      <point x="251" y="0" type="line"/>
      <point x="363" y="0" type="line"/>
      <point x="363" y="280" type="line"/>
    </contour>
  </outline>
</glyph>
<glyph name="Z" format="2">
  <advance width="614"/>
  <unicode hex="005A"/>
  <anchor x="313" y="691" name="aboveUC"/>
  <anchor x="313" y="-35" name="below"/>
  <anchor x="313" y="-10" name="belowcedilla"/>
  <outline>
    <contour>
      <point x="61" y="0" type="line"/>
      <point x="554" y="0" type="line"/>
      <point x="554" y="97" type="line"/>
      <point x="206" y="97" type="line"/>
      <point x="206" y="101" type="line"/>
      <point x="541" y="577" type="line"/>
      <point x="541" y="655" type="line"/>
      <point x="74" y="655" type="line"/>
      <point x="74" y="557" type="line"/>
      <point x="391" y="557" type="line"/>
      <point x="391" y="552" type="line"/>
      <point x="61" y="77" type="line"/>
    </contour>
  </outline>
</glyph>
<glyph name="a" format="2">
  <advance width="614"/>
  <unicode hex="0061"/>
  <anchor x="296" y="-35" name="below"/>
  <anchor x="466" y="-10" name="belowogonek"/>
  <anchor x="301" y="507" name="aboveLC"/>
  <anchor x="301" y="472" name="aboveLCx"/>
  <outline>
    <contour>
      <point x="502" y="131" type="curve" smooth="yes"/>
      <point x="502" y="324" type="line" smooth="yes"/>
      <point x="502" y="433"/>
      <point x="449" y="480"/>
      <point x="289" y="480" type="curve" smooth="yes"/>
      <point x="248" y="480"/>
      <point x="183" y="476"/>
      <point x="102" y="464" type="curve"/>
      <point x="113" y="375" type="line"/>
      <point x="188" y="386"/>
      <point x="249" y="391"/>
      <point x="284" y="391" type="curve" smooth="yes"/>
      <point x="375" y="391"/>
      <point x="395" y="372"/>
      <point x="395" y="323" type="curve" smooth="yes"/>
      <point x="395" y="294" type="line"/>
      <point x="225" y="276" type="line" smooth="yes"/>
      <point x="97" y="261"/>
      <point x="57" y="218"/>
      <point x="57" y="128" type="curve" smooth="yes"/>
      <point x="57" y="39"/>
      <point x="116" y="-9"/>
      <point x="201" y="-9" type="curve" smooth="yes"/>
      <point x="273" y="-9"/>
      <point x="335" y="15"/>
      <point x="390" y="59" type="curve"/>
      <point x="400" y="59" type="line"/>
      <point x="414" y="20"/>
      <point x="447" y="2"/>
      <point x="512" y="-1" type="curve" smooth="yes"/>
      <point x="575" y="-5" type="line"/>
      <point x="584" y="79" type="line"/>
      <point x="539" y="83" type="line" smooth="yes"/>
      <point x="509" y="85"/>
      <point x="502" y="95"/>
    </contour>
    <contour>
      <point x="230" y="75" type="curve" smooth="yes"/>
      <point x="187" y="75"/>
      <point x="166" y="98"/>
      <point x="166" y="135" type="curve" smooth="yes"/>
      <point x="166" y="173"/>
      <point x="181" y="197"/>
      <point x="251" y="206" type="curve" smooth="yes"/>
      <point x="395" y="225" type="line"/>
      <point x="395" y="144" type="line"/>
      <point x="319" y="90"/>
      <point x="273" y="75"/>
    </contour>
  </outline>
</glyph>
<glyph name="b" format="2">
  <advance width="614"/>
  <unicode hex="0062"/>
  <anchor x="314" y="-35" name="below"/>
  <outline>
    <contour>
      <point x="197" y="710" type="line"/>
      <point x="85" y="710" type="line"/>
      <point x="85" y="-1" type="line"/>
      <point x="105" y="-1" type="line"/>
      <point x="161" y="26" type="line"/>
      <point x="206" y="2"/>
      <point x="253" y="-8"/>
      <point x="301" y="-8" type="curve" smooth="yes"/>
      <point x="463" y="-8"/>
      <point x="562" y="104"/>
      <point x="562" y="245" type="curve" smooth="yes"/>
      <point x="562" y="393"/>
      <point x="469" y="482"/>
      <point x="355" y="482" type="curve" smooth="yes"/>
      <point x="297" y="482"/>
      <point x="248" y="462"/>
      <point x="197" y="412" type="curve"/>
    </contour>
    <contour>
      <point x="317" y="389" type="curve" smooth="yes"/>
      <point x="390" y="389"/>
      <point x="446" y="332"/>
      <point x="446" y="238" type="curve" smooth="yes"/>
      <point x="446" y="158"/>
      <point x="392" y="85"/>
      <point x="290" y="85" type="curve" smooth="yes"/>
      <point x="260" y="85"/>
      <point x="231" y="93"/>
      <point x="197" y="114" type="curve"/>
      <point x="197" y="331" type="line"/>
      <point x="246" y="376"/>
      <point x="280" y="389"/>
    </contour>
  </outline>
</glyph>
<glyph name="c" format="2">
  <advance width="614"/>
  <unicode hex="0063"/>
  <anchor x="303" y="-15" name="belowcedilla"/>
  <anchor x="319" y="472" name="aboveLCx"/>
  <anchor x="315" y="-37" name="below"/>
  <anchor x="319" y="507" name="aboveLC"/>
  <outline>
    <contour>
      <point x="332" y="390" type="curve" smooth="yes"/>
      <point x="375" y="390"/>
      <point x="415" y="383"/>
      <point x="497" y="329" type="curve"/>
      <point x="549" y="410" type="line"/>
      <point x="453" y="473"/>
      <point x="392" y="484"/>
      <point x="328" y="484" type="curve" smooth="yes"/>
      <point x="177" y="484"/>
      <point x="63" y="375"/>
      <point x="63" y="237" type="curve" smooth="yes"/>
      <point x="63" y="82"/>
      <point x="166" y="-14"/>
      <point x="315" y="-14" type="curve" smooth="yes"/>
      <point x="390" y="-14"/>
      <point x="454" y="2"/>
      <point x="552" y="60" type="curve"/>
      <point x="503" y="137" type="line"/>
      <point x="419" y="91"/>
      <point x="372" y="80"/>
      <point x="324" y="80" type="curve" smooth="yes"/>
      <point x="242" y="80"/>
      <point x="180" y="141"/>
      <point x="180" y="237" type="curve" smooth="yes"/>
      <point x="180" y="326"/>
      <point x="242" y="390"/>
    </contour>
  </outline>
</glyph>
<glyph name="d" format="2">
  <advance width="614"/>
  <unicode hex="0064"/>
  <anchor x="322" y="-35" name="below"/>
  <anchor x="646" y="788" name="topright"/>
  <outline>
    <contour>
      <point x="259" y="-10" type="curve" smooth="yes"/>
      <point x="320" y="-10"/>
      <point x="371" y="11"/>
      <point x="424" y="67" type="curve"/>
      <point x="433" y="0" type="line"/>
      <point x="529" y="0" type="line"/>
      <point x="529" y="710" type="line"/>
      <point x="417" y="710" type="line"/>
      <point x="417" y="439" type="line"/>
      <point x="376" y="468"/>
      <point x="337" y="477"/>
      <point x="292" y="477" type="curve" smooth="yes"/>
      <point x="153" y="477"/>
      <point x="52" y="373"/>
      <point x="52" y="227" type="curve" smooth="yes"/>
      <point x="52" y="78"/>
      <point x="145" y="-10"/>
    </contour>
    <contour>
      <point x="168" y="233" type="curve" smooth="yes"/>
      <point x="168" y="322"/>
      <point x="222" y="386"/>
      <point x="313" y="386" type="curve" smooth="yes"/>
      <point x="342" y="386"/>
      <point x="375" y="378"/>
      <point x="417" y="346" type="curve"/>
      <point x="417" y="141" type="line"/>
      <point x="368" y="96"/>
      <point x="334" y="83"/>
      <point x="297" y="83" type="curve" smooth="yes"/>
      <point x="224" y="83"/>
      <point x="168" y="139"/>
    </contour>
  </outline>
</glyph>
<glyph name="f" format="2">
  <advance width="614"/>
  <unicode hex="0066"/>
  <outline>
    <contour>
      <point x="72" y="365" type="line"/>
      <point x="225" y="365" type="line"/>
      <point x="225" y="0" type="line"/>
      <point x="336" y="0" type="line"/>
      <point x="336" y="365" type="line"/>
      <point x="517" y="365" type="line"/>
      <point x="517" y="460" type="line"/>
      <point x="333" y="460" type="line"/>
      <point x="333" y="519" type="line" smooth="yes"/>
      <point x="333" y="585"/>
      <point x="354" y="610"/>
      <point x="429" y="616" type="curve" smooth="yes"/>
      <point x="558" y="624" type="line"/>
      <point x="551" y="720" type="line"/>
      <point x="419" y="711" type="line" smooth="yes"/>
      <point x="272" y="701"/>
      <point x="225" y="655"/>
      <point x="225" y="512" type="curve" smooth="yes"/>
      <point x="225" y="460" type="line"/>
      <point x="72" y="460" type="line"/>
    </contour>
  </outline>
</glyph>
<glyph name="g" format="2">
  <advance width="614"/>
  <unicode hex="0067"/>
  <anchor x="309" y="505" name="aboveLC"/>
  <anchor x="309" y="470" name="aboveLCx"/>
  <outline>
    <contour>
      <point x="52" y="240" type="curve" smooth="yes"/>
      <point x="52" y="99"/>
      <point x="146" y="14"/>
      <point x="255" y="14" type="curve" smooth="yes"/>
      <point x="318" y="14"/>
      <point x="367" y="32"/>
      <point x="418" y="84" type="curve"/>
      <point x="418" y="-2" type="line" smooth="yes"/>
      <point x="418" y="-90"/>
      <point x="385" y="-130"/>
      <point x="292" y="-135" type="curve" smooth="yes"/>
      <point x="132" y="-144" type="line"/>
      <point x="136" y="-239" type="line"/>
      <point x="304" y="-231" type="line" smooth="yes"/>
      <point x="476" y="-222"/>
      <point x="530" y="-154"/>
      <point x="530" y="1" type="curve" smooth="yes"/>
      <point x="530" y="475" type="line"/>
      <point x="513" y="475" type="line"/>
      <point x="448" y="451" type="line"/>
      <point x="405" y="472"/>
      <point x="359" y="482"/>
      <point x="313" y="482" type="curve" smooth="yes"/>
      <point x="151" y="482"/>
      <point x="52" y="374"/>
    </contour>
    <contour>
      <point x="168" y="247" type="curve" smooth="yes"/>
      <point x="168" y="320"/>
      <point x="222" y="388"/>
      <point x="325" y="388" type="curve" smooth="yes"/>
      <point x="354" y="388"/>
      <point x="384" y="381"/>
      <point x="418" y="360" type="curve"/>
      <point x="418" y="164" type="line"/>
      <point x="369" y="120"/>
      <point x="335" y="107"/>
      <point x="297" y="107" type="curve" smooth="yes"/>
      <point x="225" y="107"/>
      <point x="168" y="159"/>
    </contour>
  </outline>
</glyph>
<glyph name="h" format="2">
  <advance width="614"/>
  <unicode hex="0068"/>
  <anchor x="315" y="-35" name="below"/>
  <anchor x="315" y="0" name="belowx"/>
  <anchor x="143" y="-10" name="belowcedilla"/>
  <anchor x="143" y="740" name="aboveLC"/>
  <anchor x="143" y="679" name="aboveLCx"/>
  <outline>
    <contour>
      <point x="200" y="710" type="line"/>
      <point x="88" y="710" type="line"/>
      <point x="88" y="0" type="line"/>
      <point x="200" y="0" type="line"/>
      <point x="200" y="284" type="line"/>
      <point x="274" y="350"/>
      <point x="316" y="375"/>
      <point x="354" y="375" type="curve" smooth="yes"/>
      <point x="399" y="375"/>
      <point x="418" y="352"/>
      <point x="418" y="305" type="curve" smooth="yes"/>
      <point x="418" y="0" type="line"/>
      <point x="530" y="0" type="line"/>
      <point x="530" y="325" type="line" smooth="yes"/>
      <point x="530" y="424"/>
      <point x="486" y="479"/>
      <point x="391" y="479" type="curve" smooth="yes"/>
      <point x="331" y="479"/>
      <point x="279" y="454"/>
      <point x="200" y="384" type="curve"/>
    </contour>
  </outline>
</glyph>
<glyph name="i" format="2">
  <advance width="614"/>
  <unicode hex="0069"/>
  <anchor x="321" y="-35" name="below"/>
  <anchor x="322" y="-10" name="belowogonek"/>
  <outline>
    <contour>
      <point x="314" y="592" type="curve" smooth="yes"/>
      <point x="368" y="592"/>
      <point x="403" y="618"/>
      <point x="403" y="665" type="curve" smooth="yes"/>
      <point x="403" y="713"/>
      <point x="372" y="740"/>
      <point x="315" y="740" type="curve" smooth="yes"/>
      <point x="261" y="740"/>
      <point x="227" y="708"/>
      <point x="227" y="666" type="curve" smooth="yes"/>
      <point x="227" y="617"/>
      <point x="261" y="592"/>
    </contour>
    <contour>
      <point x="104" y="95" type="line"/>
      <point x="104" y="0" type="line"/>
      <point x="541" y="0" type="line"/>
      <point x="541" y="95" type="line"/>
      <point x="378" y="95" type="line"/>
      <point x="378" y="471" type="line"/>
      <point x="124" y="471" type="line"/>
      <point x="124" y="376" type="line"/>
      <point x="266" y="376" type="line"/>
      <point x="266" y="95" type="line"/>
    </contour>
  </outline>
</glyph>
<glyph name="j" format="2">
  <advance width="614"/>
  <unicode hex="006A"/>
  <outline>
    <contour>
      <point x="375" y="592" type="curve" smooth="yes"/>
      <point x="429" y="592"/>
      <point x="464" y="618"/>
      <point x="464" y="664" type="curve" smooth="yes"/>
      <point x="464" y="711"/>
      <point x="433" y="736"/>
      <point x="377" y="736" type="curve" smooth="yes"/>
      <point x="322" y="736"/>
      <point x="289" y="706"/>
      <point x="289" y="664" type="curve" smooth="yes"/>
      <point x="289" y="617"/>
      <point x="323" y="592"/>
    </contour>
    <contour>
      <point x="440" y="-24" type="curve" smooth="yes"/>
      <point x="440" y="471" type="line"/>
      <point x="113" y="471" type="line"/>
      <point x="113" y="376" type="line"/>
      <point x="328" y="376" type="line"/>
      <point x="328" y="-31" type="line" smooth="yes"/>
      <point x="328" y="-100"/>
      <point x="302" y="-127"/>
      <point x="229" y="-132" type="curve" smooth="yes"/>
      <point x="100" y="-141" type="line"/>
      <point x="104" y="-237" type="line"/>
      <point x="237" y="-230" type="line" smooth="yes"/>
      <point x="386" y="-222"/>
      <point x="440" y="-173"/>
    </contour>
  </outline>
</glyph>
<glyph name="k" format="2">
  <advance width="614"/>
  <unicode hex="006B"/>
  <anchor x="309" y="-35" name="below"/>
  <anchor x="309" y="0" name="belowx"/>
  <outline>
    <contour>
      <point x="210" y="710" type="line"/>
      <point x="98" y="710" type="line"/>
      <point x="98" y="0" type="line"/>
      <point x="210" y="0" type="line"/>
      <point x="210" y="224" type="line"/>
      <point x="423" y="0" type="line"/>
      <point x="570" y="0" type="line"/>
      <point x="570" y="2" type="line"/>
      <point x="327" y="245" type="line"/>
      <point x="568" y="469" type="line"/>
      <point x="568" y="471" type="line"/>
      <point x="427" y="471" type="line"/>
      <point x="210" y="259" type="line"/>
    </contour>
  </outline>
</glyph>
<glyph name="l" format="2">
  <advance width="614"/>
  <unicode hex="006C"/>
  <anchor x="310" y="-35" name="below"/>
  <anchor x="281" y="752" name="aboveLC"/>
  <anchor x="281" y="715" name="aboveLCx"/>
  <anchor x="482" y="788" name="topright"/>
  <outline>
    <contour>
      <point x="230" y="182" type="line" smooth="yes"/>
      <point x="230" y="50"/>
      <point x="275" y="7"/>
      <point x="409" y="0" type="curve" smooth="yes"/>
      <point x="533" y="-6" type="line"/>
      <point x="538" y="90" type="line"/>
      <point x="429" y="96" type="line" smooth="yes"/>
      <point x="365" y="100"/>
      <point x="341" y="124"/>
      <point x="341" y="192" type="curve" smooth="yes"/>
      <point x="341" y="710" type="line"/>
      <point x="58" y="710" type="line"/>
      <point x="58" y="615" type="line"/>
      <point x="230" y="615" type="line"/>
    </contour>
  </outline>
</glyph>
<glyph name="m" format="2">
  <advance width="614"/>
  <unicode hex="006D"/>
  <anchor x="308" y="502" name="aboveLC"/>
  <anchor x="310" y="-35" name="below"/>
  <outline>
    <contour>
      <point x="127" y="471" type="line"/>
      <point x="47" y="471" type="line"/>
      <point x="47" y="0" type="line"/>
      <point x="146" y="0" type="line"/>
      <point x="146" y="299" type="line"/>
      <point x="190" y="349"/>
      <point x="211" y="359"/>
      <point x="230" y="359" type="curve" smooth="yes"/>
      <point x="253" y="359"/>
      <point x="263" y="348"/>
      <point x="263" y="325" type="curve" smooth="yes"/>
      <point x="263" y="0" type="line"/>
      <point x="355" y="0" type="line"/>
      <point x="355" y="300" type="line"/>
      <point x="399" y="349"/>
      <point x="420" y="359"/>
      <point x="438" y="359" type="curve" smooth="yes"/>
      <point x="460" y="359"/>
      <point x="471" y="349"/>
      <point x="471" y="323" type="curve" smooth="yes"/>
      <point x="471" y="0" type="line"/>
      <point x="569" y="0" type="line"/>
      <point x="569" y="376" type="line" smooth="yes"/>
      <point x="569" y="447"/>
      <point x="545" y="475"/>
      <point x="494" y="475" type="curve" smooth="yes"/>
      <point x="451" y="475"/>
      <point x="420" y="456"/>
      <point x="369" y="375" type="curve"/>
      <point x="353" y="375" type="line"/>
      <point x="353" y="384" type="line"/>
      <point x="353" y="450"/>
      <point x="328" y="475"/>
      <point x="282" y="475" type="curve" smooth="yes"/>
      <point x="239" y="475"/>
      <point x="203" y="456"/>
      <point x="151" y="372" type="curve"/>
      <point x="138" y="372" type="line"/>
    </contour>
  </outline>
</glyph>
<glyph name="n" format="2">
  <advance width="614"/>
  <unicode hex="006E"/>
  <anchor x="308" y="502" name="aboveLC"/>
  <anchor x="312" y="-35" name="below"/>
  <anchor x="312" y="0" name="belowx"/>
  <outline>
    <contour>
      <point x="184" y="471" type="line"/>
      <point x="88" y="471" type="line"/>
      <point x="88" y="0" type="line"/>
      <point x="200" y="0" type="line"/>
      <point x="200" y="284" type="line"/>
      <point x="274" y="350"/>
      <point x="316" y="375"/>
      <point x="354" y="375" type="curve" smooth="yes"/>
      <point x="399" y="375"/>
      <point x="418" y="352"/>
      <point x="418" y="305" type="curve" smooth="yes"/>
      <point x="418" y="0" type="line"/>
      <point x="530" y="0" type="line"/>
      <point x="530" y="325" type="line" smooth="yes"/>
      <point x="530" y="424"/>
      <point x="486" y="479"/>
      <point x="391" y="479" type="curve" smooth="yes"/>
      <point x="329" y="479"/>
      <point x="276" y="452"/>
      <point x="193" y="377" type="curve"/>
    </contour>
  </outline>
</glyph>
<glyph name="o" format="2">
  <advance width="614"/>
  <unicode hex="006F"/>
  <anchor x="308" y="507" name="aboveLC"/>
  <anchor x="308" y="472" name="aboveLCx"/>
  <anchor x="307" y="-40" name="below"/>
  <anchor x="313" y="-15" name="belowogonek"/>
  <outline>
    <contour>
      <point x="305" y="-15" type="curve" smooth="yes"/>
      <point x="453" y="-15"/>
      <point x="558" y="88"/>
      <point x="558" y="235" type="curve" smooth="yes"/>
      <point x="558" y="383"/>
      <point x="455" y="486"/>
      <point x="309" y="486" type="curve" smooth="yes"/>
      <point x="160" y="486"/>
      <point x="56" y="380"/>
      <point x="56" y="236" type="curve" smooth="yes"/>
      <point x="56" y="85"/>
      <point x="159" y="-15"/>
    </contour>
    <contour>
      <point x="307" y="78" type="curve" smooth="yes"/>
      <point x="224" y="78"/>
      <point x="172" y="135"/>
      <point x="172" y="236" type="curve" smooth="yes"/>
      <point x="172" y="337"/>
      <point x="227" y="392"/>
      <point x="307" y="392" type="curve" smooth="yes"/>
      <point x="390" y="392"/>
      <point x="442" y="333"/>
      <point x="442" y="235" type="curve" smooth="yes"/>
      <point x="442" y="131"/>
      <point x="388" y="78"/>
    </contour>
  </outline>
</glyph>
<glyph name="p" format="2">
  <advance width="614"/>
  <unicode hex="0070"/>
  <anchor x="323" y="502" name="aboveLC"/>
  <outline>
    <contour>
      <point x="85" y="-230" type="line"/>
      <point x="197" y="-230" type="line"/>
      <point x="197" y="48" type="line"/>
      <point x="246" y="5"/>
      <point x="289" y="-6"/>
      <point x="334" y="-6" type="curve" smooth="yes"/>
      <point x="461" y="-6"/>
      <point x="562" y="95"/>
      <point x="562" y="244" type="curve" smooth="yes"/>
      <point x="562" y="392"/>
      <point x="468" y="480"/>
      <point x="359" y="480" type="curve" smooth="yes"/>
      <point x="294" y="480"/>
      <point x="245" y="457"/>
      <point x="190" y="399" type="curve"/>
      <point x="181" y="471" type="line"/>
      <point x="85" y="471" type="line"/>
    </contour>
    <contour>
      <point x="317" y="388" type="curve" smooth="yes"/>
      <point x="390" y="388"/>
      <point x="446" y="331"/>
      <point x="446" y="237" type="curve" smooth="yes"/>
      <point x="446" y="152"/>
      <point x="393" y="85"/>
      <point x="299" y="85" type="curve" smooth="yes"/>
      <point x="271" y="85"/>
      <point x="239" y="93"/>
      <point x="197" y="126" type="curve"/>
      <point x="197" y="330" type="line"/>
      <point x="245" y="374"/>
      <point x="279" y="388"/>
    </contour>
  </outline>
</glyph>
<glyph name="q" format="2">
  <advance width="614"/>
  <unicode hex="0071"/>
  <outline>
    <contour>
      <point x="52" y="226" type="curve" smooth="yes"/>
      <point x="52" y="77"/>
      <point x="145" y="-11"/>
      <point x="259" y="-11" type="curve" smooth="yes"/>
      <point x="317" y="-11"/>
      <point x="366" y="8"/>
      <point x="417" y="59" type="curve"/>
      <point x="417" y="-230" type="line"/>
      <point x="529" y="-230" type="line"/>
      <point x="529" y="471" type="line"/>
      <point x="509" y="471" type="line"/>
      <point x="453" y="445" type="line"/>
      <point x="408" y="468"/>
      <point x="361" y="479"/>
      <point x="313" y="479" type="curve" smooth="yes"/>
      <point x="151" y="479"/>
      <point x="52" y="367"/>
    </contour>
    <contour>
      <point x="168" y="232" type="curve" smooth="yes"/>
      <point x="168" y="312"/>
      <point x="222" y="385"/>
      <point x="324" y="385" type="curve" smooth="yes"/>
      <point x="354" y="385"/>
      <point x="383" y="377"/>
      <point x="417" y="357" type="curve"/>
      <point x="417" y="140" type="line"/>
      <point x="368" y="95"/>
      <point x="334" y="82"/>
      <point x="297" y="82" type="curve" smooth="yes"/>
      <point x="224" y="82"/>
      <point x="168" y="139"/>
    </contour>
  </outline>
</glyph>
<glyph name="r" format="2">
  <advance width="614"/>
  <unicode hex="0072"/>
  <anchor x="306" y="502" name="aboveLC"/>
  <anchor x="235" y="-35" name="below"/>
  <outline>
    <contour>
      <point x="53" y="95" type="line"/>
      <point x="53" y="0" type="line"/>
      <point x="417" y="0" type="line"/>
      <point x="417" y="95" type="line"/>
      <point x="278" y="95" type="line"/>
      <point x="278" y="232" type="line"/>
      <point x="375" y="339"/>
      <point x="393" y="348"/>
      <point x="475" y="355" type="curve" smooth="yes"/>
      <point x="565" y="362" type="line"/>
      <point x="557" y="475" type="line"/>
      <point x="464" y="468" type="line" smooth="yes"/>
      <point x="403" y="464"/>
      <point x="365" y="449"/>
      <point x="271" y="323" type="curve"/>
      <point x="265" y="471" type="line"/>
      <point x="73" y="471" type="line"/>
      <point x="73" y="376" type="line"/>
      <point x="166" y="376" type="line"/>
      <point x="166" y="95" type="line"/>
    </contour>
  </outline>
</glyph>
<glyph name="s" format="2">
  <advance width="614"/>
  <unicode hex="0073"/>
  <guideline x="255" y="199" angle="264.712618086979" identifier="MYhE05PKT0"/>
  <anchor x="317" y="507" name="aboveLC"/>
  <anchor x="300" y="-40" name="below"/>
  <anchor x="298" y="-15" name="belowcedilla"/>
  <anchor x="317" y="472" name="aboveLCx"/>
  <outline>
    <contour>
      <point x="530" y="136" type="curve" smooth="yes"/>
      <point x="530" y="207"/>
      <point x="503" y="248"/>
      <point x="376" y="276" type="curve" smooth="yes"/>
      <point x="283" y="296" type="line" smooth="yes"/>
      <point x="223" y="311"/>
      <point x="210" y="323"/>
      <point x="210" y="349" type="curve" smooth="yes"/>
      <point x="210" y="376"/>
      <point x="234" y="394"/>
      <point x="324" y="394" type="curve" smooth="yes"/>
      <point x="364" y="394"/>
      <point x="424" y="388"/>
      <point x="495" y="375" type="curve"/>
      <point x="506" y="467" type="line"/>
      <point x="442" y="478"/>
      <point x="371" y="484"/>
      <point x="327" y="484" type="curve" smooth="yes"/>
      <point x="162" y="484"/>
      <point x="96" y="426"/>
      <point x="96" y="342" type="curve" smooth="yes"/>
      <point x="96" y="274"/>
      <point x="121" y="233"/>
      <point x="246" y="206" type="curve" smooth="yes"/>
      <point x="341" y="186" type="line" smooth="yes"/>
      <point x="402" y="172"/>
      <point x="416" y="157"/>
      <point x="416" y="130" type="curve" smooth="yes"/>
      <point x="416" y="99"/>
      <point x="388" y="76"/>
      <point x="294" y="76" type="curve" smooth="yes"/>
      <point x="253" y="76"/>
      <point x="180" y="83"/>
      <point x="99" y="98" type="curve"/>
      <point x="87" y="6" type="line"/>
      <point x="161" y="-7"/>
      <point x="220" y="-13"/>
      <point x="291" y="-13" type="curve" smooth="yes"/>
      <point x="454" y="-13"/>
      <point x="530" y="53"/>
    </contour>
  </outline>
</glyph>
<glyph name="t" format="2">
  <advance width="614"/>
  <unicode hex="0074"/>
  <anchor x="421" y="788" name="topright"/>
  <anchor x="322" y="-35" name="below"/>
  <anchor x="320" y="-10" name="belowcedilla"/>
  <outline>
    <contour>
      <point x="209" y="186" type="line" smooth="yes"/>
      <point x="209" y="47"/>
      <point x="244" y="7"/>
      <point x="381" y="0" type="curve" smooth="yes"/>
      <point x="535" y="-7" type="line"/>
      <point x="543" y="89" type="line"/>
      <point x="407" y="97" type="line" smooth="yes"/>
      <point x="339" y="101"/>
      <point x="321" y="123"/>
      <point x="321" y="200" type="curve" smooth="yes"/>
      <point x="321" y="376" type="line"/>
      <point x="517" y="376" type="line"/>
      <point x="517" y="471" type="line"/>
      <point x="319" y="471" type="line"/>
      <point x="319" y="639" type="line"/>
      <point x="210" y="639" type="line"/>
      <point x="210" y="471" type="line"/>
      <point x="57" y="471" type="line"/>
      <point x="57" y="376" type="line"/>
      <point x="209" y="376" type="line"/>
    </contour>
  </outline>
</glyph>
<glyph name="u" format="2">
  <advance width="614"/>
  <unicode hex="0075"/>
  <anchor x="314" y="502" name="aboveLC"/>
  <anchor x="309" y="-35" name="below"/>
  <anchor x="476" y="-10" name="belowogonek"/>
  <anchor x="314" y="465" name="aboveLCx"/>
  <outline>
    <contour>
      <point x="526" y="0" type="line"/>
      <point x="526" y="471" type="line"/>
      <point x="414" y="471" type="line"/>
      <point x="414" y="187" type="line"/>
      <point x="340" y="121"/>
      <point x="298" y="96"/>
      <point x="260" y="96" type="curve" smooth="yes"/>
      <point x="215" y="96"/>
      <point x="196" y="119"/>
      <point x="196" y="166" type="curve" smooth="yes"/>
      <point x="196" y="471" type="line"/>
      <point x="84" y="471" type="line"/>
      <point x="84" y="145" type="line" smooth="yes"/>
      <point x="84" y="47"/>
      <point x="128" y="-9"/>
      <point x="223" y="-9" type="curve" smooth="yes"/>
      <point x="285" y="-9"/>
      <point x="338" y="18"/>
      <point x="420" y="93" type="curve"/>
      <point x="427" y="0" type="line"/>
    </contour>
  </outline>
</glyph>
<glyph name="v" format="2">
  <advance width="614"/>
  <unicode hex="0076"/>
  <anchor x="305" y="-35" name="below"/>
  <outline>
    <contour>
      <point x="46" y="471" type="line"/>
      <point x="239" y="0" type="line"/>
      <point x="376" y="0" type="line"/>
      <point x="568" y="471" type="line"/>
      <point x="450" y="471" type="line"/>
      <point x="310" y="98" type="line"/>
      <point x="170" y="471" type="line"/>
    </contour>
  </outline>
</glyph>
<glyph name="w" format="2">
  <advance width="614"/>
  <unicode hex="0077"/>
  <anchor x="306" y="502" name="aboveLC"/>
  <anchor x="306" y="465" name="aboveLCx"/>
  <outline>
    <contour>
      <point x="486" y="0" type="line"/>
      <point x="578" y="471" type="line"/>
      <point x="471" y="471" type="line"/>
      <point x="414" y="131" type="line"/>
      <point x="315" y="411" type="line"/>
      <point x="300" y="411" type="line"/>
      <point x="201" y="127" type="line"/>
      <point x="144" y="471" type="line"/>
      <point x="37" y="471" type="line"/>
      <point x="127" y="0" type="line"/>
      <point x="230" y="0" type="line"/>
      <point x="305" y="224" type="line"/>
      <point x="380" y="0" type="line"/>
    </contour>
  </outline>
</glyph>
<glyph name="x" format="2">
  <advance width="614"/>
  <unicode hex="0078"/>
  <anchor x="308" y="502" name="aboveLC"/>
  <anchor x="305" y="-35" name="below"/>
  <anchor x="305" y="-3" name="belowx"/>
  <anchor x="308" y="470" name="aboveLCx"/>
  <outline>
    <contour>
      <point x="51" y="0" type="line"/>
      <point x="181" y="0" type="line"/>
      <point x="305" y="179" type="line"/>
      <point x="429" y="0" type="line"/>
      <point x="564" y="0" type="line"/>
      <point x="375" y="242" type="line"/>
      <point x="549" y="471" type="line"/>
      <point x="418" y="471" type="line"/>
      <point x="308" y="312" type="line"/>
      <point x="199" y="471" type="line"/>
      <point x="63" y="471" type="line"/>
      <point x="237" y="242" type="line"/>
    </contour>
  </outline>
</glyph>
<glyph name="y" format="2">
  <advance width="614"/>
  <unicode hex="0079"/>
  <anchor x="312" y="502" name="aboveLC"/>
  <anchor x="492" y="-35" name="below"/>
  <anchor x="312" y="470" name="aboveLCx"/>
  <outline>
    <contour>
      <point x="331" y="-109" type="curve" smooth="yes"/>
      <point x="570" y="471" type="line"/>
      <point x="450" y="471" type="line"/>
      <point x="312" y="106" type="line"/>
      <point x="171" y="471" type="line"/>
      <point x="47" y="471" type="line"/>
      <point x="252" y="-24" type="line"/>
      <point x="227" y="-82" type="line" smooth="yes"/>
      <point x="211" y="-121"/>
      <point x="193" y="-132"/>
      <point x="132" y="-134" type="curve" smooth="yes"/>
      <point x="39" y="-139" type="line"/>
      <point x="42" y="-235" type="line"/>
      <point x="164" y="-229" type="line" smooth="yes"/>
      <point x="251" y="-225"/>
      <point x="293" y="-202"/>
    </contour>
  </outline>
</glyph>
<glyph name="z" format="2">
  <advance width="614"/>
  <unicode hex="007A"/>
  <anchor x="309" y="502" name="aboveLC"/>
  <anchor x="309" y="-35" name="below"/>
  <anchor x="309" y="-10" name="belowcedilla"/>
  <outline>
    <contour>
      <point x="82" y="0" type="line"/>
      <point x="539" y="0" type="line"/>
      <point x="539" y="89" type="line"/>
      <point x="237" y="89" type="line"/>
      <point x="237" y="92" type="line"/>
      <point x="523" y="393" type="line"/>
      <point x="523" y="471" type="line"/>
      <point x="94" y="471" type="line"/>
      <point x="94" y="382" type="line"/>
      <point x="371" y="382" type="line"/>
      <point x="371" y="379" type="line"/>
      <point x="82" y="77" type="line"/>
    </contour>
  </outline>
</glyph>
<glyph name="braceleft" format="2">
  <advance width="614"/>
  <unicode hex="007B"/>
  <outline>
    <contour>
      <point x="185" y="-11" type="curve" smooth="yes"/>
      <point x="185" y="-60"/>
      <point x="213" y="-93"/>
      <point x="311" y="-108" type="curve" smooth="yes"/>
      <point x="551" y="-143" type="line"/>
      <point x="565" y="-49" type="line"/>
      <point x="345" y="-18" type="line" smooth="yes"/>
      <point x="318" y="-14"/>
      <point x="310" y="-6"/>
      <point x="310" y="7" type="curve" smooth="yes"/>
      <point x="310" y="16"/>
      <point x="315" y="26"/>
      <point x="338" y="51" type="curve" smooth="yes"/>
      <point x="387" y="103" type="line" smooth="yes"/>
      <point x="435" y="154"/>
      <point x="442" y="173"/>
      <point x="442" y="194" type="curve" smooth="yes"/>
      <point x="442" y="235"/>
      <point x="422" y="270"/>
      <point x="161" y="325" type="curve"/>
      <point x="161" y="337" type="line"/>
      <point x="423" y="392"/>
      <point x="442" y="427"/>
      <point x="442" y="468" type="curve" smooth="yes"/>
      <point x="442" y="489"/>
      <point x="435" y="508"/>
      <point x="387" y="559" type="curve" smooth="yes"/>
      <point x="338" y="611" type="line" smooth="yes"/>
      <point x="315" y="637"/>
      <point x="310" y="646"/>
      <point x="310" y="655" type="curve" smooth="yes"/>
      <point x="310" y="668"/>
      <point x="318" y="676"/>
      <point x="345" y="680" type="curve" smooth="yes"/>
      <point x="565" y="711" type="line"/>
      <point x="551" y="805" type="line"/>
      <point x="311" y="770" type="line" smooth="yes"/>
      <point x="213" y="755"/>
      <point x="185" y="722"/>
      <point x="185" y="673" type="curve" smooth="yes"/>
      <point x="185" y="645"/>
      <point x="198" y="616"/>
      <point x="237" y="574" type="curve" smooth="yes"/>
      <point x="286" y="522" type="line" smooth="yes"/>
      <point x="311" y="494"/>
      <point x="315" y="486"/>
      <point x="315" y="475" type="curve" smooth="yes"/>
      <point x="315" y="454"/>
      <point x="303" y="438"/>
      <point x="68" y="380" type="curve"/>
      <point x="68" y="282" type="line"/>
      <point x="303" y="224"/>
      <point x="315" y="208"/>
      <point x="315" y="187" type="curve" smooth="yes"/>
      <point x="315" y="177"/>
      <point x="311" y="168"/>
      <point x="286" y="140" type="curve" smooth="yes"/>
      <point x="237" y="88" type="line" smooth="yes"/>
      <point x="198" y="46"/>
      <point x="185" y="17"/>
    </contour>
  </outline>
</glyph>
<glyph name="braceright" format="2">
  <advance width="614"/>
  <unicode hex="007D"/>
  <outline>
    <contour>
      <point x="429" y="-11" type="curve" smooth="yes"/>
      <point x="429" y="17"/>
      <point x="416" y="46"/>
      <point x="377" y="88" type="curve" smooth="yes"/>
      <point x="328" y="140" type="line" smooth="yes"/>
      <point x="303" y="168"/>
      <point x="299" y="177"/>
      <point x="299" y="187" type="curve" smooth="yes"/>
      <point x="299" y="208"/>
      <point x="311" y="224"/>
      <point x="546" y="282" type="curve"/>
      <point x="546" y="380" type="line"/>
      <point x="311" y="438"/>
      <point x="299" y="454"/>
      <point x="299" y="475" type="curve" smooth="yes"/>
      <point x="299" y="485"/>
      <point x="303" y="494"/>
      <point x="328" y="522" type="curve" smooth="yes"/>
      <point x="377" y="574" type="line" smooth="yes"/>
      <point x="416" y="616"/>
      <point x="429" y="645"/>
      <point x="429" y="673" type="curve" smooth="yes"/>
      <point x="429" y="722"/>
      <point x="401" y="755"/>
      <point x="303" y="770" type="curve" smooth="yes"/>
      <point x="63" y="805" type="line"/>
      <point x="49" y="711" type="line"/>
      <point x="269" y="680" type="line" smooth="yes"/>
      <point x="296" y="676"/>
      <point x="304" y="668"/>
      <point x="304" y="655" type="curve" smooth="yes"/>
      <point x="304" y="646"/>
      <point x="299" y="636"/>
      <point x="276" y="611" type="curve" smooth="yes"/>
      <point x="227" y="559" type="line" smooth="yes"/>
      <point x="179" y="508"/>
      <point x="172" y="489"/>
      <point x="172" y="468" type="curve" smooth="yes"/>
      <point x="172" y="427"/>
      <point x="192" y="392"/>
      <point x="453" y="337" type="curve"/>
      <point x="453" y="325" type="line"/>
      <point x="192" y="270"/>
      <point x="172" y="235"/>
      <point x="172" y="194" type="curve" smooth="yes"/>
      <point x="172" y="173"/>
      <point x="179" y="154"/>
      <point x="227" y="103" type="curve" smooth="yes"/>
      <point x="276" y="51" type="line" smooth="yes"/>
      <point x="299" y="26"/>
      <point x="304" y="16"/>
      <point x="304" y="7" type="curve" smooth="yes"/>
      <point x="304" y="-6"/>
      <point x="296" y="-14"/>
      <point x="269" y="-18" type="curve" smooth="yes"/>
      <point x="49" y="-49" type="line"/>
      <point x="63" y="-143" type="line"/>
      <point x="303" y="-108" type="line" smooth="yes"/>
      <point x="401" y="-93"/>
      <point x="429" y="-60"/>
    </contour>
  </outline>
</glyph>
<glyph name="asciitilde" format="2">
  <advance width="614"/>
  <unicode hex="007E"/>
  <outline>
    <contour>
      <point x="577" y="430" type="curve"/>
      <point x="490" y="456" type="line"/>
      <point x="449" y="343"/>
      <point x="437" y="319"/>
      <point x="418" y="319" type="curve" smooth="yes"/>
      <point x="402" y="319"/>
      <point x="391" y="325"/>
      <point x="322" y="378" type="curve" smooth="yes"/>
      <point x="248" y="434"/>
      <point x="226" y="449"/>
      <point x="191" y="449" type="curve" smooth="yes"/>
      <point x="130" y="449"/>
      <point x="92" y="414"/>
      <point x="37" y="233" type="curve"/>
      <point x="124" y="207" type="line"/>
      <point x="165" y="319"/>
      <point x="177" y="343"/>
      <point x="196" y="343" type="curve" smooth="yes"/>
      <point x="212" y="343"/>
      <point x="223" y="337"/>
      <point x="292" y="284" type="curve" smooth="yes"/>
      <point x="365" y="228"/>
      <point x="388" y="213"/>
      <point x="423" y="213" type="curve" smooth="yes"/>
      <point x="484" y="213"/>
      <point x="522" y="248"/>
    </contour>
  </outline>
</glyph>
<glyph name="exclamdown" format="2">
  <advance width="614"/>
  <unicode hex="00A1"/>
  <outline>
    <contour>
      <point x="313" y="725" type="curve" smooth="yes"/>
      <point x="245" y="725"/>
      <point x="214" y="700"/>
      <point x="214" y="651" type="curve" smooth="yes"/>
      <point x="214" y="601"/>
      <point x="238" y="575"/>
      <point x="311" y="575" type="curve" smooth="yes"/>
      <point x="383" y="575"/>
      <point x="410" y="605"/>
      <point x="410" y="650" type="curve" smooth="yes"/>
      <point x="410" y="700"/>
      <point x="381" y="725"/>
    </contour>
    <contour>
      <point x="344" y="452" type="line"/>
      <point x="271" y="452" type="line"/>
      <point x="202" y="0" type="line"/>
      <point x="412" y="0" type="line"/>
    </contour>
  </outline>
</glyph>
<glyph name="cent" format="2">
  <advance width="614"/>
  <unicode hex="00A2"/>
  <outline>
    <contour>
      <point x="298" y="-142" type="line"/>
      <point x="376" y="-142" type="line"/>
      <point x="376" y="4" type="line"/>
      <point x="428" y="12"/>
      <point x="481" y="33"/>
      <point x="551" y="75" type="curve"/>
      <point x="502" y="151" type="line"/>
      <point x="418" y="105"/>
      <point x="371" y="95"/>
      <point x="322" y="95" type="curve" smooth="yes"/>
      <point x="241" y="95"/>
      <point x="179" y="154"/>
      <point x="179" y="247" type="curve" smooth="yes"/>
      <point x="179" y="334"/>
      <point x="241" y="395"/>
      <point x="331" y="395" type="curve" smooth="yes"/>
      <point x="373" y="395"/>
      <point x="414" y="389"/>
      <point x="496" y="334" type="curve"/>
      <point x="548" y="416" type="line"/>
      <point x="474" y="463"/>
      <point x="423" y="481"/>
      <point x="376" y="487" type="curve"/>
      <point x="376" y="632" type="line"/>
      <point x="298" y="632" type="line"/>
      <point x="298" y="489" type="line"/>
      <point x="162" y="476"/>
      <point x="62" y="374"/>
      <point x="62" y="248" type="curve" smooth="yes"/>
      <point x="62" y="100"/>
      <point x="158" y="7"/>
      <point x="298" y="0" type="curve"/>
    </contour>
  </outline>
</glyph>
<glyph name="sterling" format="2">
  <advance width="614"/>
  <unicode hex="00A3"/>
  <outline>
    <contour>
      <point x="66" y="0" type="line"/>
      <point x="557" y="0" type="line"/>
      <point x="557" y="94" type="line"/>
      <point x="200" y="94" type="line"/>
      <point x="294" y="183"/>
      <point x="320" y="222"/>
      <point x="327" y="256" type="curve"/>
      <point x="504" y="256" type="line"/>
      <point x="504" y="323" type="line"/>
      <point x="325" y="323" type="line"/>
      <point x="317" y="346"/>
      <point x="299" y="371"/>
      <point x="258" y="408" type="curve" smooth="yes"/>
      <point x="214" y="450"/>
      <point x="208" y="470"/>
      <point x="208" y="498" type="curve" smooth="yes"/>
      <point x="208" y="540"/>
      <point x="248" y="576"/>
      <point x="313" y="576" type="curve" smooth="yes"/>
      <point x="373" y="576"/>
      <point x="416" y="550"/>
      <point x="497" y="481" type="curve"/>
      <point x="558" y="559" type="line"/>
      <point x="467" y="635"/>
      <point x="398" y="670"/>
      <point x="305" y="670" type="curve" smooth="yes"/>
      <point x="169" y="670"/>
      <point x="93" y="586"/>
      <point x="93" y="502" type="curve" smooth="yes"/>
      <point x="93" y="452"/>
      <point x="108" y="421"/>
      <point x="166" y="369" type="curve" smooth="yes"/>
      <point x="195" y="343"/>
      <point x="211" y="327"/>
      <point x="221" y="315" type="curve"/>
      <point x="78" y="315" type="line"/>
      <point x="78" y="249" type="line"/>
      <point x="225" y="249" type="line"/>
      <point x="210" y="224"/>
      <point x="169" y="182"/>
      <point x="66" y="89" type="curve"/>
    </contour>
  </outline>
</glyph>
<glyph name="section" format="2">
  <advance width="614"/>
  <unicode hex="00A7"/>
  <outline>
    <contour>
      <point x="53" y="192" type="curve" smooth="yes"/>
      <point x="53" y="127"/>
      <point x="81" y="77"/>
      <point x="204" y="25" type="curve" smooth="yes"/>
      <point x="327" y="-27" type="line" smooth="yes"/>
      <point x="390" y="-54"/>
      <point x="399" y="-69"/>
      <point x="399" y="-93" type="curve" smooth="yes"/>
      <point x="399" y="-125"/>
      <point x="378" y="-147"/>
      <point x="294" y="-147" type="curve" smooth="yes"/>
      <point x="244" y="-147"/>
      <point x="184" y="-138"/>
      <point x="103" y="-119" type="curve"/>
      <point x="89" y="-215" type="line"/>
      <point x="164" y="-231"/>
      <point x="219" y="-240"/>
      <point x="292" y="-240" type="curve" smooth="yes"/>
      <point x="448" y="-240"/>
      <point x="511" y="-175"/>
      <point x="511" y="-86" type="curve" smooth="yes"/>
      <point x="511" y="-17"/>
      <point x="478" y="23"/>
      <point x="409" y="56" type="curve"/>
      <point x="534" y="120"/>
      <point x="561" y="168"/>
      <point x="561" y="236" type="curve" smooth="yes"/>
      <point x="561" y="301"/>
      <point x="533" y="351"/>
      <point x="410" y="403" type="curve" smooth="yes"/>
      <point x="287" y="455" type="line" smooth="yes"/>
      <point x="224" y="482"/>
      <point x="215" y="497"/>
      <point x="215" y="522" type="curve" smooth="yes"/>
      <point x="215" y="553"/>
      <point x="236" y="575"/>
      <point x="320" y="575" type="curve" smooth="yes"/>
      <point x="371" y="575"/>
      <point x="430" y="566"/>
      <point x="511" y="547" type="curve"/>
      <point x="525" y="643" type="line"/>
      <point x="450" y="659"/>
      <point x="395" y="668"/>
      <point x="322" y="668" type="curve" smooth="yes"/>
      <point x="167" y="668"/>
      <point x="103" y="603"/>
      <point x="103" y="514" type="curve" smooth="yes"/>
      <point x="103" y="445"/>
      <point x="136" y="405"/>
      <point x="205" y="372" type="curve"/>
      <point x="80" y="308"/>
      <point x="53" y="260"/>
    </contour>
    <contour>
      <point x="262" y="120" type="line" smooth="yes"/>
      <point x="180" y="155"/>
      <point x="166" y="179"/>
      <point x="166" y="215" type="curve" smooth="yes"/>
      <point x="166" y="247"/>
      <point x="176" y="276"/>
      <point x="284" y="337" type="curve"/>
      <point x="352" y="308" type="line" smooth="yes"/>
      <point x="435" y="273"/>
      <point x="448" y="249"/>
      <point x="448" y="213" type="curve" smooth="yes"/>
      <point x="448" y="181"/>
      <point x="439" y="152"/>
      <point x="330" y="91" type="curve"/>
    </contour>
  </outline>
</glyph>
<glyph name="copyright" format="2">
  <advance width="614"/>
  <unicode hex="00A9"/>
  <outline>
    <contour>
      <point x="557" y="328" type="curve" smooth="yes"/>
      <point x="557" y="630"/>
      <point x="462" y="725"/>
      <point x="307" y="725" type="curve" smooth="yes"/>
      <point x="153" y="725"/>
      <point x="57" y="630"/>
      <point x="57" y="328" type="curve" smooth="yes"/>
      <point x="57" y="26"/>
      <point x="153" y="-70"/>
      <point x="307" y="-70" type="curve" smooth="yes"/>
      <point x="462" y="-70"/>
      <point x="557" y="26"/>
    </contour>
    <contour>
      <point x="106" y="328" type="curve" smooth="yes"/>
      <point x="106" y="605"/>
      <point x="182" y="680"/>
      <point x="307" y="680" type="curve" smooth="yes"/>
      <point x="433" y="680"/>
      <point x="508" y="605"/>
      <point x="508" y="328" type="curve" smooth="yes"/>
      <point x="508" y="51"/>
      <point x="433" y="-25"/>
      <point x="307" y="-25" type="curve" smooth="yes"/>
      <point x="182" y="-25"/>
      <point x="106" y="51"/>
    </contour>
    <contour>
      <point x="310" y="97" type="curve" smooth="yes"/>
      <point x="352" y="97"/>
      <point x="393" y="106"/>
      <point x="445" y="187" type="curve"/>
      <point x="397" y="222" type="line"/>
      <point x="361" y="167"/>
      <point x="339" y="163"/>
      <point x="316" y="163" type="curve" smooth="yes"/>
      <point x="277" y="163"/>
      <point x="250" y="215"/>
      <point x="250" y="328" type="curve" smooth="yes"/>
      <point x="250" y="431"/>
      <point x="279" y="492"/>
      <point x="319" y="492" type="curve" smooth="yes"/>
      <point x="343" y="492"/>
      <point x="356" y="484"/>
      <point x="392" y="424" type="curve"/>
      <point x="443" y="460" type="line"/>
      <point x="397" y="543"/>
      <point x="366" y="558"/>
      <point x="319" y="558" type="curve" smooth="yes"/>
      <point x="238" y="558"/>
      <point x="179" y="467"/>
      <point x="179" y="326" type="curve" smooth="yes"/>
      <point x="179" y="184"/>
      <point x="225" y="97"/>
    </contour>
  </outline>
</glyph>
<glyph name="ordfeminine" format="2">
  <advance width="614"/>
  <unicode hex="00AA"/>
  <outline>
    <contour>
      <point x="459" y="431" type="curve" smooth="yes"/>
      <point x="459" y="573" type="line" smooth="yes"/>
      <point x="459" y="656"/>
      <point x="416" y="692"/>
      <point x="285" y="692" type="curve" smooth="yes"/>
      <point x="257" y="692"/>
      <point x="204" y="688"/>
      <point x="138" y="679" type="curve"/>
      <point x="146" y="608" type="line"/>
      <point x="208" y="617"/>
      <point x="255" y="621"/>
      <point x="281" y="621" type="curve" smooth="yes"/>
      <point x="357" y="621"/>
      <point x="374" y="607"/>
      <point x="374" y="573" type="curve" smooth="yes"/>
      <point x="374" y="555" type="line"/>
      <point x="236" y="541" type="line" smooth="yes"/>
      <point x="133" y="531"/>
      <point x="103" y="495"/>
      <point x="103" y="427" type="curve" smooth="yes"/>
      <point x="103" y="361"/>
      <point x="150" y="325"/>
      <point x="218" y="325" type="curve" smooth="yes"/>
      <point x="275" y="325"/>
      <point x="325" y="342"/>
      <point x="368" y="377" type="curve"/>
      <point x="378" y="377" type="line"/>
      <point x="389" y="348"/>
      <point x="416" y="331"/>
      <point x="465" y="330" type="curve" smooth="yes"/>
      <point x="512" y="328" type="line"/>
      <point x="518" y="393" type="line"/>
      <point x="487" y="396" type="line" smooth="yes"/>
      <point x="466" y="397"/>
      <point x="459" y="407"/>
    </contour>
    <contour>
      <point x="240" y="393" type="curve" smooth="yes"/>
      <point x="206" y="393"/>
      <point x="190" y="408"/>
      <point x="190" y="432" type="curve" smooth="yes"/>
      <point x="190" y="462"/>
      <point x="203" y="478"/>
      <point x="258" y="484" type="curve" smooth="yes"/>
      <point x="374" y="499" type="line"/>
      <point x="374" y="446" type="line"/>
      <point x="315" y="403"/>
      <point x="276" y="393"/>
    </contour>
    <contour>
      <point x="122" y="238" type="line"/>
      <point x="122" y="171" type="line"/>
      <point x="504" y="171" type="line"/>
      <point x="504" y="238" type="line"/>
    </contour>
  </outline>
</glyph>
<glyph name="registered" format="2">
  <advance width="614"/>
  <unicode hex="00AE"/>
  <outline>
    <contour>
      <point x="68" y="465" type="curve" smooth="yes"/>
      <point x="68" y="310"/>
      <point x="160" y="208"/>
      <point x="307" y="208" type="curve" smooth="yes"/>
      <point x="452" y="208"/>
      <point x="546" y="311"/>
      <point x="546" y="467" type="curve" smooth="yes"/>
      <point x="546" y="626"/>
      <point x="453" y="725"/>
      <point x="307" y="725" type="curve" smooth="yes"/>
      <point x="161" y="725"/>
      <point x="68" y="624"/>
    </contour>
    <contour>
      <point x="307" y="243" type="curve" smooth="yes"/>
      <point x="186" y="243"/>
      <point x="108" y="329"/>
      <point x="108" y="467" type="curve" smooth="yes"/>
      <point x="108" y="605"/>
      <point x="184" y="689"/>
      <point x="307" y="689" type="curve" smooth="yes"/>
      <point x="431" y="689"/>
      <point x="507" y="604"/>
      <point x="507" y="465" type="curve" smooth="yes"/>
      <point x="507" y="328"/>
      <point x="431" y="243"/>
    </contour>
    <contour>
      <point x="424" y="345" type="line"/>
      <point x="369" y="416" type="line" smooth="yes"/>
      <point x="353" y="437"/>
      <point x="342" y="444"/>
      <point x="325" y="452" type="curve"/>
      <point x="325" y="454" type="line"/>
      <point x="391" y="464"/>
      <point x="410" y="492"/>
      <point x="410" y="531" type="curve" smooth="yes"/>
      <point x="410" y="577"/>
      <point x="381" y="604"/>
      <point x="323" y="604" type="curve" smooth="yes"/>
      <point x="217" y="604" type="line"/>
      <point x="217" y="343" type="line"/>
      <point x="271" y="343" type="line"/>
      <point x="271" y="442" type="line"/>
      <point x="289" y="438"/>
      <point x="297" y="430"/>
      <point x="311" y="409" type="curve" smooth="yes"/>
      <point x="356" y="343" type="line"/>
      <point x="424" y="343" type="line"/>
    </contour>
    <contour>
      <point x="314" y="560" type="line" smooth="yes"/>
      <point x="342" y="560"/>
      <point x="355" y="548"/>
      <point x="355" y="526" type="curve" smooth="yes"/>
      <point x="355" y="504"/>
      <point x="344" y="489"/>
      <point x="283" y="481" type="curve" smooth="yes"/>
      <point x="271" y="480" type="line"/>
      <point x="271" y="560" type="line"/>
    </contour>
  </outline>
</glyph>
<glyph name="degree" format="2">
  <advance width="614"/>
  <unicode hex="00B0"/>
  <outline>
    <contour>
      <point x="98" y="489" type="curve" smooth="yes"/>
      <point x="98" y="367"/>
      <point x="185" y="288"/>
      <point x="307" y="288" type="curve" smooth="yes"/>
      <point x="430" y="288"/>
      <point x="516" y="369"/>
      <point x="516" y="490" type="curve" smooth="yes"/>
      <point x="516" y="612"/>
      <point x="431" y="692"/>
      <point x="308" y="692" type="curve" smooth="yes"/>
      <point x="186" y="692"/>
      <point x="98" y="611"/>
    </contour>
    <contour>
      <point x="307" y="613" type="curve" smooth="yes"/>
      <point x="374" y="613"/>
      <point x="426" y="563"/>
      <point x="426" y="489" type="curve" smooth="yes"/>
      <point x="426" y="415"/>
      <point x="376" y="366"/>
      <point x="308" y="366" type="curve" smooth="yes"/>
      <point x="238" y="366"/>
      <point x="189" y="416"/>
      <point x="189" y="490" type="curve" smooth="yes"/>
      <point x="189" y="564"/>
      <point x="237" y="613"/>
    </contour>
  </outline>
</glyph>
<glyph name="mu" format="2">
  <advance width="614"/>
  <unicode hex="00B5"/>
  <outline>
    <contour>
      <point x="251" y="-9" type="curve" smooth="yes"/>
      <point x="306" y="-9"/>
      <point x="345" y="18"/>
      <point x="420" y="92" type="curve"/>
      <point x="427" y="0" type="line"/>
      <point x="526" y="0" type="line"/>
      <point x="526" y="471" type="line"/>
      <point x="414" y="471" type="line"/>
      <point x="414" y="187" type="line"/>
      <point x="340" y="121"/>
      <point x="298" y="96"/>
      <point x="260" y="96" type="curve" smooth="yes"/>
      <point x="215" y="96"/>
      <point x="196" y="119"/>
      <point x="196" y="166" type="curve" smooth="yes"/>
      <point x="196" y="471" type="line"/>
      <point x="84" y="471" type="line"/>
      <point x="84" y="-230" type="line"/>
      <point x="201" y="-230" type="line"/>
      <point x="201" y="-213" type="line"/>
      <point x="176" y="23" type="line"/>
      <point x="197" y="2"/>
      <point x="223" y="-9"/>
    </contour>
  </outline>
</glyph>
<glyph name="paragraph" format="2">
  <advance width="614"/>
  <unicode hex="00B6"/>
  <outline>
    <contour>
      <point x="313" y="261" type="line"/>
      <point x="313" y="574" type="line"/>
      <point x="410" y="574" type="line"/>
      <point x="410" y="0" type="line"/>
      <point x="515" y="0" type="line"/>
      <point x="515" y="655" type="line"/>
      <point x="317" y="655" type="line" smooth="yes"/>
      <point x="148" y="655"/>
      <point x="74" y="584"/>
      <point x="74" y="460" type="curve" smooth="yes"/>
      <point x="74" y="337"/>
      <point x="152" y="261"/>
      <point x="309" y="261" type="curve" smooth="yes"/>
    </contour>
  </outline>
</glyph>
<glyph name="ordmasculine" format="2">
  <advance width="614"/>
  <unicode hex="00BA"/>
  <outline>
    <contour>
      <point x="305" y="324" type="curve" smooth="yes"/>
      <point x="417" y="324"/>
      <point x="499" y="401"/>
      <point x="499" y="509" type="curve" smooth="yes"/>
      <point x="499" y="617"/>
      <point x="418" y="692"/>
      <point x="308" y="692" type="curve" smooth="yes"/>
      <point x="195" y="692"/>
      <point x="113" y="615"/>
      <point x="113" y="508" type="curve" smooth="yes"/>
      <point x="113" y="398"/>
      <point x="194" y="324"/>
    </contour>
    <contour>
      <point x="306" y="398" type="curve" smooth="yes"/>
      <point x="244" y="398"/>
      <point x="202" y="437"/>
      <point x="202" y="508" type="curve" smooth="yes"/>
      <point x="202" y="580"/>
      <point x="246" y="618"/>
      <point x="306" y="618" type="curve" smooth="yes"/>
      <point x="368" y="618"/>
      <point x="410" y="578"/>
      <point x="410" y="508" type="curve" smooth="yes"/>
      <point x="410" y="436"/>
      <point x="367" y="398"/>
    </contour>
    <contour>
      <point x="122" y="238" type="line"/>
      <point x="122" y="171" type="line"/>
      <point x="500" y="171" type="line"/>
      <point x="500" y="238" type="line"/>
    </contour>
  </outline>
</glyph>
<glyph name="questiondown" format="2">
  <advance width="614"/>
  <unicode hex="00BF"/>
  <outline>
    <contour>
      <point x="368" y="725" type="curve" smooth="yes"/>
      <point x="299" y="725"/>
      <point x="269" y="700"/>
      <point x="269" y="651" type="curve" smooth="yes"/>
      <point x="269" y="601"/>
      <point x="293" y="575"/>
      <point x="366" y="575" type="curve" smooth="yes"/>
      <point x="438" y="575"/>
      <point x="465" y="605"/>
      <point x="465" y="650" type="curve" smooth="yes"/>
      <point x="465" y="700"/>
      <point x="436" y="725"/>
    </contour>
    <contour>
      <point x="324" y="452" type="line"/>
      <point x="314" y="384"/>
      <point x="310" y="376"/>
      <point x="278" y="360" type="curve" smooth="yes"/>
      <point x="203" y="324" type="line" smooth="yes"/>
      <point x="111" y="277"/>
      <point x="72" y="241"/>
      <point x="72" y="160" type="curve" smooth="yes"/>
      <point x="72" y="54"/>
      <point x="135" y="-15"/>
      <point x="285" y="-15" type="curve" smooth="yes"/>
      <point x="364" y="-15"/>
      <point x="425" y="-6"/>
      <point x="553" y="32" type="curve"/>
      <point x="531" y="129" type="line"/>
      <point x="411" y="89"/>
      <point x="346" y="79"/>
      <point x="296" y="79" type="curve" smooth="yes"/>
      <point x="224" y="79"/>
      <point x="187" y="107"/>
      <point x="187" y="160" type="curve" smooth="yes"/>
      <point x="187" y="197"/>
      <point x="204" y="216"/>
      <point x="276" y="251" type="curve" smooth="yes"/>
      <point x="358" y="291" type="line" smooth="yes"/>
      <point x="404" y="313"/>
      <point x="415" y="326"/>
      <point x="415" y="351" type="curve" smooth="yes"/>
      <point x="415" y="368"/>
      <point x="412" y="391"/>
      <point x="399" y="452" type="curve"/>
    </contour>
  </outline>
</glyph>
<glyph name="Aring" format="2">
  <advance width="614"/>
  <unicode hex="00C5"/>
  <outline>
    <contour>
      <point x="147" y="0" type="line"/>
      <point x="195" y="155" type="line"/>
      <point x="413" y="155" type="line"/>
      <point x="461" y="0" type="line"/>
      <point x="579" y="0" type="line"/>
      <point x="397" y="588" type="line"/>
      <point x="442" y="609"/>
      <point x="468" y="648"/>
      <point x="468" y="697" type="curve" smooth="yes"/>
      <point x="468" y="774"/>
      <point x="406" y="823"/>
      <point x="307" y="823" type="curve" smooth="yes"/>
      <point x="207" y="823"/>
      <point x="144" y="773"/>
      <point x="144" y="696" type="curve" smooth="yes"/>
      <point x="144" y="646"/>
      <point x="170" y="607"/>
      <point x="216" y="586" type="curve"/>
      <point x="35" y="0" type="line"/>
    </contour>
    <contour>
      <point x="306" y="634" type="curve" smooth="yes"/>
      <point x="251" y="634"/>
      <point x="223" y="655"/>
      <point x="223" y="695" type="curve" smooth="yes"/>
      <point x="223" y="738"/>
      <point x="249" y="759"/>
      <point x="306" y="759" type="curve" smooth="yes"/>
      <point x="361" y="759"/>
      <point x="389" y="738"/>
      <point x="389" y="698" type="curve" smooth="yes"/>
      <point x="389" y="655"/>
      <point x="362" y="634"/>
    </contour>
    <contour>
      <point x="219" y="244" type="line"/>
      <point x="304" y="538" type="line"/>
      <point x="388" y="244" type="line"/>
    </contour>
  </outline>
</glyph>
<glyph name="Ccedilla" format="2">
  <advance width="614"/>
  <unicode hex="00C7"/>
  <outline>
    <contour>
      <point x="493" y="-152" type="curve" smooth="yes"/>
      <point x="493" y="-107"/>
      <point x="465" y="-76"/>
      <point x="344" y="-63" type="curve"/>
      <point x="360" y="-14" type="line"/>
      <point x="424" y="-8"/>
      <point x="493" y="18"/>
      <point x="571" y="76" type="curve"/>
      <point x="520" y="153" type="line"/>
      <point x="442" y="97"/>
      <point x="389" y="79"/>
      <point x="344" y="79" type="curve" smooth="yes"/>
      <point x="247" y="79"/>
      <point x="168" y="152"/>
      <point x="168" y="328" type="curve" smooth="yes"/>
      <point x="168" y="490"/>
      <point x="250" y="576"/>
      <point x="350" y="576" type="curve" smooth="yes"/>
      <point x="392" y="576"/>
      <point x="433" y="564"/>
      <point x="512" y="504" type="curve"/>
      <point x="565" y="585" type="line"/>
      <point x="476" y="649"/>
      <point x="420" y="670"/>
      <point x="348" y="670" type="curve" smooth="yes"/>
      <point x="174" y="670"/>
      <point x="53" y="528"/>
      <point x="53" y="326" type="curve" smooth="yes"/>
      <point x="53" y="117"/>
      <point x="146" y="-3"/>
      <point x="305" y="-14" type="curve"/>
      <point x="274" y="-104" type="line"/>
      <point x="280" y="-114" type="line"/>
      <point x="393" y="-118"/>
      <point x="414" y="-132"/>
      <point x="414" y="-154" type="curve" smooth="yes"/>
      <point x="414" y="-180"/>
      <point x="389" y="-194"/>
      <point x="222" y="-209" type="curve"/>
      <point x="239" y="-270" type="line"/>
      <point x="466" y="-251"/>
      <point x="493" y="-212"/>
    </contour>
  </outline>
</glyph>
<glyph name="Eth" format="2">
  <advance width="614"/>
  <unicode hex="00D0"/>
  <outline>
    <contour>
      <point x="26" y="298" type="line"/>
      <point x="106" y="298" type="line"/>
      <point x="106" y="0" type="line"/>
      <point x="172" y="0" type="line" smooth="yes"/>
      <point x="439" y="0"/>
      <point x="565" y="132"/>
      <point x="565" y="335" type="curve" smooth="yes"/>
      <point x="565" y="536"/>
      <point x="438" y="655"/>
      <point x="199" y="655" type="curve" smooth="yes"/>
      <point x="106" y="655" type="line"/>
      <point x="106" y="362" type="line"/>
      <point x="26" y="362" type="line"/>
    </contour>
    <contour>
      <point x="323" y="298" type="line"/>
      <point x="323" y="362" type="line"/>
      <point x="216" y="362" type="line"/>
      <point x="216" y="564" type="line"/>
      <point x="363" y="561"/>
      <point x="453" y="486"/>
      <point x="453" y="333" type="curve" smooth="yes"/>
      <point x="453" y="175"/>
      <point x="369" y="100"/>
      <point x="216" y="92" type="curve"/>
      <point x="216" y="298" type="line"/>
    </contour>
  </outline>
</glyph>
<glyph name="Oslash" format="2">
  <advance width="614"/>
  <unicode hex="00D8"/>
  <outline>
    <contour>
      <point x="561" y="328" type="curve" smooth="yes"/>
      <point x="561" y="437"/>
      <point x="534" y="521"/>
      <point x="491" y="579" type="curve"/>
      <point x="582" y="726" type="line"/>
      <point x="489" y="726" type="line"/>
      <point x="438" y="630" type="line"/>
      <point x="401" y="656"/>
      <point x="356" y="670"/>
      <point x="308" y="670" type="curve" smooth="yes"/>
      <point x="152" y="670"/>
      <point x="53" y="554"/>
      <point x="53" y="326" type="curve" smooth="yes"/>
      <point x="53" y="218"/>
      <point x="79" y="134"/>
      <point x="122" y="76" type="curve"/>
      <point x="32" y="-71" type="line"/>
      <point x="123" y="-71" type="line"/>
      <point x="174" y="25" type="line"/>
      <point x="212" y="-1"/>
      <point x="257" y="-15"/>
      <point x="306" y="-15" type="curve" smooth="yes"/>
      <point x="462" y="-15"/>
      <point x="561" y="99"/>
    </contour>
    <contour>
      <point x="168" y="328" type="curve" smooth="yes"/>
      <point x="168" y="508"/>
      <point x="220" y="576"/>
      <point x="307" y="576" type="curve" smooth="yes"/>
      <point x="397" y="576"/>
      <point x="446" y="513"/>
      <point x="446" y="326" type="curve" smooth="yes"/>
      <point x="446" y="146"/>
      <point x="394" y="79"/>
      <point x="307" y="79" type="curve" smooth="yes"/>
      <point x="216" y="79"/>
      <point x="168" y="140"/>
    </contour>
  </outline>
</glyph>
<glyph name="Thorn" format="2">
  <advance width="614"/>
  <unicode hex="00DE"/>
  <outline>
    <contour>
      <point x="88" y="655" type="line"/>
      <point x="88" y="0" type="line"/>
      <point x="201" y="0" type="line"/>
      <point x="201" y="138" type="line"/>
      <point x="332" y="138" type="line" smooth="yes"/>
      <point x="478" y="138"/>
      <point x="572" y="210"/>
      <point x="572" y="329" type="curve" smooth="yes"/>
      <point x="572" y="443"/>
      <point x="489" y="516"/>
      <point x="341" y="516" type="curve" smooth="yes"/>
      <point x="201" y="516" type="line"/>
      <point x="201" y="655" type="line"/>
    </contour>
    <contour>
      <point x="345" y="422" type="line" smooth="yes"/>
      <point x="420" y="422"/>
      <point x="458" y="388"/>
      <point x="458" y="327" type="curve" smooth="yes"/>
      <point x="458" y="267"/>
      <point x="417" y="230"/>
      <point x="339" y="230" type="curve" smooth="yes"/>
      <point x="201" y="230" type="line"/>
      <point x="201" y="422" type="line"/>
    </contour>
  </outline>
</glyph>
<glyph name="germandbls" format="2">
  <advance width="614"/>
  <unicode hex="00DF"/>
  <outline>
    <contour>
      <point x="448" y="153" type="curve" smooth="yes"/>
      <point x="448" y="120"/>
      <point x="429" y="100"/>
      <point x="384" y="97" type="curve" smooth="yes"/>
      <point x="316" y="93" type="line"/>
      <point x="322" y="-4" type="line"/>
      <point x="394" y="0" type="line" smooth="yes"/>
      <point x="517" y="7"/>
      <point x="565" y="56"/>
      <point x="565" y="143" type="curve" smooth="yes"/>
      <point x="565" y="202"/>
      <point x="549" y="250"/>
      <point x="417" y="365" type="curve"/>
      <point x="517" y="477"/>
      <point x="528" y="516"/>
      <point x="528" y="568" type="curve" smooth="yes"/>
      <point x="528" y="657"/>
      <point x="457" y="725"/>
      <point x="325" y="725" type="curve" smooth="yes"/>
      <point x="172" y="725"/>
      <point x="85" y="624"/>
      <point x="85" y="488" type="curve" smooth="yes"/>
      <point x="85" y="0" type="line"/>
      <point x="197" y="0" type="line"/>
      <point x="197" y="488" type="line" smooth="yes"/>
      <point x="197" y="578"/>
      <point x="241" y="631"/>
      <point x="324" y="631" type="curve" smooth="yes"/>
      <point x="381" y="631"/>
      <point x="413" y="601"/>
      <point x="413" y="559" type="curve" smooth="yes"/>
      <point x="413" y="526"/>
      <point x="408" y="494"/>
      <point x="308" y="382" type="curve"/>
      <point x="308" y="334" type="line"/>
      <point x="433" y="223"/>
      <point x="448" y="189"/>
    </contour>
  </outline>
</glyph>
<glyph name="ae" format="2">
  <advance width="614"/>
  <unicode hex="00E6"/>
  <outline>
    <contour>
      <point x="517" y="74" type="line"/>
      <point x="473" y="77" type="line" smooth="yes"/>
      <point x="390" y="81"/>
      <point x="357" y="113"/>
      <point x="350" y="197" type="curve"/>
      <point x="590" y="197" type="line"/>
      <point x="592" y="209"/>
      <point x="594" y="226"/>
      <point x="594" y="245" type="curve" smooth="yes"/>
      <point x="594" y="392"/>
      <point x="531" y="482"/>
      <point x="436" y="482" type="curve" smooth="yes"/>
      <point x="392" y="482"/>
      <point x="353" y="458"/>
      <point x="323" y="419" type="curve"/>
      <point x="303" y="462"/>
      <point x="264" y="482"/>
      <point x="201" y="482" type="curve" smooth="yes"/>
      <point x="164" y="482"/>
      <point x="116" y="478"/>
      <point x="65" y="469" type="curve"/>
      <point x="75" y="383" type="line"/>
      <point x="128" y="393"/>
      <point x="160" y="396"/>
      <point x="184" y="396" type="curve" smooth="yes"/>
      <point x="234" y="396"/>
      <point x="248" y="378"/>
      <point x="248" y="323" type="curve" smooth="yes"/>
      <point x="248" y="292" type="line"/>
      <point x="166" y="276" type="line" smooth="yes"/>
      <point x="57" y="255"/>
      <point x="21" y="211"/>
      <point x="21" y="128" type="curve" smooth="yes"/>
      <point x="21" y="39"/>
      <point x="65" y="-9"/>
      <point x="133" y="-9" type="curve" smooth="yes"/>
      <point x="182" y="-9"/>
      <point x="222" y="14"/>
      <point x="269" y="59" type="curve"/>
      <point x="290" y="59" type="line"/>
      <point x="321" y="16"/>
      <point x="372" y="-6"/>
      <point x="448" y="-8" type="curve" smooth="yes"/>
      <point x="513" y="-10" type="line"/>
    </contour>
    <contour>
      <point x="429" y="399" type="curve" smooth="yes"/>
      <point x="465" y="399"/>
      <point x="489" y="356"/>
      <point x="493" y="276" type="curve"/>
      <point x="351" y="276" type="line"/>
      <point x="359" y="356"/>
      <point x="391" y="399"/>
    </contour>
    <contour>
      <point x="171" y="75" type="curve" smooth="yes"/>
      <point x="143" y="75"/>
      <point x="128" y="99"/>
      <point x="128" y="135" type="curve" smooth="yes"/>
      <point x="128" y="174"/>
      <point x="141" y="194"/>
      <point x="195" y="208" type="curve" smooth="yes"/>
      <point x="248" y="222" type="line"/>
      <point x="248" y="184"/>
      <point x="252" y="150"/>
      <point x="261" y="121" type="curve"/>
      <point x="216" y="87"/>
      <point x="197" y="75"/>
    </contour>
  </outline>
</glyph>
<glyph name="ccedilla" format="2">
  <advance width="614"/>
  <unicode hex="00E7"/>
  <outline>
    <contour>
      <point x="332" y="390" type="curve" smooth="yes"/>
      <point x="375" y="390"/>
      <point x="415" y="383"/>
      <point x="497" y="329" type="curve"/>
      <point x="549" y="410" type="line"/>
      <point x="453" y="473"/>
      <point x="392" y="484"/>
      <point x="328" y="484" type="curve" smooth="yes"/>
      <point x="177" y="484"/>
      <point x="63" y="375"/>
      <point x="63" y="237" type="curve" smooth="yes"/>
      <point x="63" y="97"/>
      <point x="147" y="5"/>
      <point x="273" y="-11" type="curve"/>
      <point x="241" y="-104" type="line"/>
      <point x="247" y="-114" type="line"/>
      <point x="359" y="-118"/>
      <point x="380" y="-132"/>
      <point x="380" y="-154" type="curve" smooth="yes"/>
      <point x="380" y="-180"/>
      <point x="356" y="-194"/>
      <point x="189" y="-209" type="curve"/>
      <point x="206" y="-270" type="line"/>
      <point x="433" y="-251"/>
      <point x="460" y="-212"/>
      <point x="460" y="-152" type="curve" smooth="yes"/>
      <point x="460" y="-107"/>
      <point x="432" y="-76"/>
      <point x="311" y="-63" type="curve"/>
      <point x="326" y="-14" type="line"/>
      <point x="397" y="-12"/>
      <point x="459" y="5"/>
      <point x="552" y="60" type="curve"/>
      <point x="503" y="137" type="line"/>
      <point x="419" y="91"/>
      <point x="372" y="80"/>
      <point x="324" y="80" type="curve" smooth="yes"/>
      <point x="242" y="80"/>
      <point x="180" y="141"/>
      <point x="180" y="237" type="curve" smooth="yes"/>
      <point x="180" y="326"/>
      <point x="242" y="390"/>
    </contour>
  </outline>
</glyph>
<glyph name="eth" format="2">
  <advance width="614"/>
  <unicode hex="00F0"/>
  <outline>
    <contour>
      <point x="398" y="756" type="line"/>
      <point x="324" y="676" type="line"/>
      <point x="281" y="698"/>
      <point x="232" y="714"/>
      <point x="181" y="725" type="curve"/>
      <point x="152" y="633" type="line"/>
      <point x="196" y="623"/>
      <point x="230" y="612"/>
      <point x="261" y="597" type="curve"/>
      <point x="179" y="513" type="line"/>
      <point x="227" y="471" type="line"/>
      <point x="317" y="569" type="line"/>
      <point x="387" y="528"/>
      <point x="429" y="478"/>
      <point x="443" y="386" type="curve"/>
      <point x="386" y="416"/>
      <point x="337" y="423"/>
      <point x="288" y="423" type="curve" smooth="yes"/>
      <point x="152" y="423"/>
      <point x="56" y="325"/>
      <point x="56" y="211" type="curve" smooth="yes"/>
      <point x="56" y="73"/>
      <point x="154" y="-15"/>
      <point x="288" y="-15" type="curve" smooth="yes"/>
      <point x="451" y="-15"/>
      <point x="558" y="107"/>
      <point x="558" y="320" type="curve" smooth="yes"/>
      <point x="558" y="448"/>
      <point x="512" y="563"/>
      <point x="380" y="646" type="curve"/>
      <point x="448" y="714" type="line"/>
    </contour>
    <contour>
      <point x="172" y="211" type="curve" smooth="yes"/>
      <point x="172" y="284"/>
      <point x="218" y="339"/>
      <point x="309" y="339" type="curve" smooth="yes"/>
      <point x="347" y="339"/>
      <point x="383" y="333"/>
      <point x="445" y="301" type="curve"/>
      <point x="440" y="141"/>
      <point x="376" y="78"/>
      <point x="294" y="78" type="curve" smooth="yes"/>
      <point x="224" y="78"/>
      <point x="172" y="129"/>
    </contour>
  </outline>
</glyph>
<glyph name="divide" format="2">
  <advance width="614"/>
  <unicode hex="00F7"/>
  <outline>
    <contour>
      <point x="307" y="477" type="curve" smooth="yes"/>
      <point x="362" y="477"/>
      <point x="393" y="499"/>
      <point x="393" y="546" type="curve" smooth="yes"/>
      <point x="393" y="590"/>
      <point x="366" y="614"/>
      <point x="308" y="614" type="curve" smooth="yes"/>
      <point x="252" y="614"/>
      <point x="223" y="588"/>
      <point x="223" y="545" type="curve" smooth="yes"/>
      <point x="223" y="500"/>
      <point x="251" y="477"/>
    </contour>
    <contour>
      <point x="66" y="283" type="line"/>
      <point x="547" y="283" type="line"/>
      <point x="547" y="374" type="line"/>
      <point x="66" y="374" type="line"/>
    </contour>
    <contour>
      <point x="307" y="45" type="curve" smooth="yes"/>
      <point x="362" y="45"/>
      <point x="393" y="66"/>
      <point x="393" y="113" type="curve" smooth="yes"/>
      <point x="393" y="157"/>
      <point x="366" y="181"/>
      <point x="308" y="181" type="curve" smooth="yes"/>
      <point x="252" y="181"/>
      <point x="223" y="155"/>
      <point x="223" y="112" type="curve" smooth="yes"/>
      <point x="223" y="67"/>
      <point x="251" y="45"/>
    </contour>
  </outline>
</glyph>
<glyph name="oslash" format="2">
  <advance width="614"/>
  <unicode hex="00F8"/>
  <outline>
    <contour>
      <point x="558" y="235" type="curve" smooth="yes"/>
      <point x="558" y="303"/>
      <point x="529" y="365"/>
      <point x="484" y="410" type="curve"/>
      <point x="585" y="542" type="line"/>
      <point x="477" y="542" type="line"/>
      <point x="422" y="457" type="line"/>
      <point x="387" y="476"/>
      <point x="349" y="486"/>
      <point x="309" y="486" type="curve" smooth="yes"/>
      <point x="160" y="486"/>
      <point x="56" y="380"/>
      <point x="56" y="236" type="curve" smooth="yes"/>
      <point x="56" y="167"/>
      <point x="85" y="105"/>
      <point x="131" y="59" type="curve"/>
      <point x="29" y="-71" type="line"/>
      <point x="136" y="-71" type="line"/>
      <point x="191" y="14" type="line"/>
      <point x="226" y="-4"/>
      <point x="265" y="-15"/>
      <point x="305" y="-15" type="curve" smooth="yes"/>
      <point x="454" y="-15"/>
      <point x="558" y="90"/>
    </contour>
    <contour>
      <point x="172" y="236" type="curve" smooth="yes"/>
      <point x="172" y="337"/>
      <point x="227" y="392"/>
      <point x="307" y="392" type="curve" smooth="yes"/>
      <point x="393" y="392"/>
      <point x="442" y="338"/>
      <point x="442" y="235" type="curve" smooth="yes"/>
      <point x="442" y="133"/>
      <point x="387" y="78"/>
      <point x="307" y="78" type="curve" smooth="yes"/>
      <point x="221" y="78"/>
      <point x="172" y="133"/>
    </contour>
  </outline>
</glyph>
<glyph name="thorn" format="2">
  <advance width="614"/>
  <unicode hex="00FE"/>
  <outline>
    <contour>
      <point x="85" y="-230" type="line"/>
      <point x="197" y="-230" type="line"/>
      <point x="197" y="48" type="line"/>
      <point x="246" y="5"/>
      <point x="289" y="-6"/>
      <point x="334" y="-6" type="curve" smooth="yes"/>
      <point x="461" y="-6"/>
      <point x="562" y="95"/>
      <point x="562" y="244" type="curve" smooth="yes"/>
      <point x="562" y="392"/>
      <point x="468" y="480"/>
      <point x="359" y="480" type="curve" smooth="yes"/>
      <point x="297" y="480"/>
      <point x="249" y="459"/>
      <point x="197" y="406" type="curve"/>
      <point x="197" y="710" type="line"/>
      <point x="85" y="710" type="line"/>
    </contour>
    <contour>
      <point x="317" y="388" type="curve" smooth="yes"/>
      <point x="390" y="388"/>
      <point x="446" y="331"/>
      <point x="446" y="237" type="curve" smooth="yes"/>
      <point x="446" y="152"/>
      <point x="393" y="85"/>
      <point x="299" y="85" type="curve" smooth="yes"/>
      <point x="271" y="85"/>
      <point x="239" y="93"/>
      <point x="197" y="126" type="curve"/>
      <point x="197" y="330" type="line"/>
      <point x="245" y="374"/>
      <point x="279" y="388"/>
    </contour>
  </outline>
</glyph>
<glyph name="Aogonek" format="2">
  <advance width="614"/>
  <unicode hex="0104"/>
  <outline>
    <contour>
      <point x="147" y="0" type="line"/>
      <point x="195" y="155" type="line"/>
      <point x="413" y="155" type="line"/>
      <point x="461" y="0" type="line"/>
      <point x="480" y="0" type="line"/>
      <point x="407" y="-89"/>
      <point x="392" y="-126"/>
      <point x="392" y="-156" type="curve" smooth="yes"/>
      <point x="392" y="-203"/>
      <point x="418" y="-227"/>
      <point x="484" y="-230" type="curve" smooth="yes"/>
      <point x="579" y="-234" type="line"/>
      <point x="587" y="-160" type="line"/>
      <point x="521" y="-156" type="line" smooth="yes"/>
      <point x="486" y="-154"/>
      <point x="477" y="-142"/>
      <point x="477" y="-119" type="curve" smooth="yes"/>
      <point x="477" y="-103"/>
      <point x="481" y="-79"/>
      <point x="537" y="0" type="curve"/>
      <point x="579" y="0" type="line"/>
      <point x="377" y="655" type="line"/>
      <point x="237" y="655" type="line"/>
      <point x="35" y="0" type="line"/>
    </contour>
    <contour>
      <point x="219" y="244" type="line"/>
      <point x="304" y="538" type="line"/>
      <point x="388" y="244" type="line"/>
    </contour>
  </outline>
</glyph>
<glyph name="aogonek" format="2">
  <advance width="614"/>
  <unicode hex="0105"/>
  <outline>
    <contour>
      <point x="352" y="-156" type="curve" smooth="yes"/>
      <point x="352" y="-203"/>
      <point x="379" y="-227"/>
      <point x="445" y="-230" type="curve" smooth="yes"/>
      <point x="540" y="-234" type="line"/>
      <point x="548" y="-160" type="line"/>
      <point x="481" y="-156" type="line" smooth="yes"/>
      <point x="447" y="-154"/>
      <point x="438" y="-142"/>
      <point x="438" y="-119" type="curve" smooth="yes"/>
      <point x="438" y="-103"/>
      <point x="442" y="-79"/>
      <point x="498" y="0" type="curve"/>
      <point x="520" y="-2"/>
      <point x="541" y="-4"/>
      <point x="575" y="-5" type="curve"/>
      <point x="584" y="79" type="line"/>
      <point x="539" y="83" type="line" smooth="yes"/>
      <point x="509" y="85"/>
      <point x="502" y="95"/>
      <point x="502" y="131" type="curve" smooth="yes"/>
      <point x="502" y="324" type="line" smooth="yes"/>
      <point x="502" y="433"/>
      <point x="449" y="480"/>
      <point x="289" y="480" type="curve" smooth="yes"/>
      <point x="248" y="480"/>
      <point x="183" y="476"/>
      <point x="102" y="464" type="curve"/>
      <point x="113" y="375" type="line"/>
      <point x="188" y="386"/>
      <point x="249" y="391"/>
      <point x="284" y="391" type="curve" smooth="yes"/>
      <point x="375" y="391"/>
      <point x="395" y="372"/>
      <point x="395" y="323" type="curve" smooth="yes"/>
      <point x="395" y="294" type="line"/>
      <point x="225" y="276" type="line" smooth="yes"/>
      <point x="97" y="261"/>
      <point x="57" y="218"/>
      <point x="57" y="128" type="curve" smooth="yes"/>
      <point x="57" y="39"/>
      <point x="116" y="-9"/>
      <point x="201" y="-9" type="curve" smooth="yes"/>
      <point x="273" y="-9"/>
      <point x="335" y="15"/>
      <point x="390" y="59" type="curve"/>
      <point x="400" y="59" type="line"/>
      <point x="408" y="35"/>
      <point x="424" y="19"/>
      <point x="449" y="10" type="curve"/>
      <point x="370" y="-85"/>
      <point x="352" y="-125"/>
    </contour>
    <contour>
      <point x="230" y="75" type="curve" smooth="yes"/>
      <point x="187" y="75"/>
      <point x="166" y="98"/>
      <point x="166" y="135" type="curve" smooth="yes"/>
      <point x="166" y="173"/>
      <point x="181" y="197"/>
      <point x="251" y="206" type="curve" smooth="yes"/>
      <point x="395" y="225" type="line"/>
      <point x="395" y="144" type="line"/>
      <point x="319" y="90"/>
      <point x="273" y="75"/>
    </contour>
  </outline>
</glyph>
<glyph name="dcroat" format="2">
  <advance width="614"/>
  <unicode hex="0111"/>
  <anchor x="328" y="-32" name="below"/>
  <outline>
    <contour>
      <point x="250" y="-10" type="curve" smooth="yes"/>
      <point x="309" y="-10"/>
      <point x="357" y="12"/>
      <point x="409" y="68" type="curve"/>
      <point x="418" y="0" type="line"/>
      <point x="514" y="0" type="line"/>
      <point x="514" y="523" type="line"/>
      <point x="595" y="523" type="line"/>
      <point x="595" y="589" type="line"/>
      <point x="514" y="589" type="line"/>
      <point x="514" y="710" type="line"/>
      <point x="402" y="710" type="line"/>
      <point x="402" y="589" type="line"/>
      <point x="247" y="589" type="line"/>
      <point x="247" y="523" type="line"/>
      <point x="402" y="523" type="line"/>
      <point x="402" y="389" type="line"/>
      <point x="361" y="418"/>
      <point x="324" y="427"/>
      <point x="282" y="427" type="curve" smooth="yes"/>
      <point x="150" y="427"/>
      <point x="52" y="334"/>
      <point x="52" y="204" type="curve" smooth="yes"/>
      <point x="52" y="70"/>
      <point x="140" y="-10"/>
    </contour>
    <contour>
      <point x="168" y="210" type="curve" smooth="yes"/>
      <point x="168" y="286"/>
      <point x="216" y="342"/>
      <point x="298" y="342" type="curve" smooth="yes"/>
      <point x="327" y="342"/>
      <point x="359" y="333"/>
      <point x="402" y="300" type="curve"/>
      <point x="402" y="141" type="line"/>
      <point x="354" y="97"/>
      <point x="322" y="83"/>
      <point x="286" y="83" type="curve" smooth="yes"/>
      <point x="219" y="83"/>
      <point x="168" y="131"/>
    </contour>
  </outline>
</glyph>
<glyph name="Eogonek" format="2">
  <advance width="614"/>
  <unicode hex="0118"/>
  <outline>
    <contour>
      <point x="350" y="-156" type="curve" smooth="yes"/>
      <point x="350" y="-203"/>
      <point x="377" y="-227"/>
      <point x="442" y="-230" type="curve" smooth="yes"/>
      <point x="538" y="-234" type="line"/>
      <point x="545" y="-160" type="line"/>
      <point x="479" y="-156" type="line" smooth="yes"/>
      <point x="444" y="-154"/>
      <point x="435" y="-142"/>
      <point x="435" y="-119" type="curve" smooth="yes"/>
      <point x="435" y="-103"/>
      <point x="439" y="-79"/>
      <point x="495" y="0" type="curve"/>
      <point x="542" y="0" type="line"/>
      <point x="542" y="94" type="line"/>
      <point x="206" y="94" type="line"/>
      <point x="206" y="284" type="line"/>
      <point x="494" y="284" type="line"/>
      <point x="494" y="377" type="line"/>
      <point x="206" y="377" type="line"/>
      <point x="206" y="561" type="line"/>
      <point x="538" y="561" type="line"/>
      <point x="538" y="655" type="line"/>
      <point x="93" y="655" type="line"/>
      <point x="93" y="0" type="line"/>
      <point x="439" y="0" type="line"/>
      <point x="366" y="-89"/>
      <point x="350" y="-126"/>
    </contour>
  </outline>
</glyph>
<glyph name="eogonek" format="2">
  <advance width="614"/>
  <unicode hex="0119"/>
  <outline>
    <contour>
      <point x="301" y="-156" type="curve" smooth="yes"/>
      <point x="301" y="-203"/>
      <point x="327" y="-227"/>
      <point x="393" y="-230" type="curve" smooth="yes"/>
      <point x="488" y="-234" type="line"/>
      <point x="496" y="-160" type="line"/>
      <point x="430" y="-156" type="line" smooth="yes"/>
      <point x="395" y="-154"/>
      <point x="386" y="-142"/>
      <point x="386" y="-119" type="curve" smooth="yes"/>
      <point x="386" y="-104"/>
      <point x="393" y="-84"/>
      <point x="453" y="-10" type="curve"/>
      <point x="457" y="77" type="line"/>
      <point x="369" y="79" type="line" smooth="yes"/>
      <point x="241" y="83"/>
      <point x="189" y="116"/>
      <point x="177" y="197" type="curve"/>
      <point x="543" y="197" type="line"/>
      <point x="546" y="209"/>
      <point x="548" y="226"/>
      <point x="548" y="245" type="curve" smooth="yes"/>
      <point x="548" y="396"/>
      <point x="457" y="486"/>
      <point x="316" y="486" type="curve" smooth="yes"/>
      <point x="167" y="486"/>
      <point x="67" y="374"/>
      <point x="67" y="229" type="curve" smooth="yes"/>
      <point x="67" y="80"/>
      <point x="143" y="-5"/>
      <point x="333" y="-8" type="curve" smooth="yes"/>
      <point x="392" y="-9" type="line"/>
      <point x="315" y="-91"/>
      <point x="301" y="-127"/>
    </contour>
    <contour>
      <point x="317" y="400" type="curve" smooth="yes"/>
      <point x="386" y="400"/>
      <point x="433" y="359"/>
      <point x="439" y="276" type="curve"/>
      <point x="178" y="276" type="line"/>
      <point x="192" y="356"/>
      <point x="246" y="400"/>
    </contour>
  </outline>
</glyph>
<glyph name="hbar" format="2">
  <advance width="614"/>
  <unicode hex="0127"/>
  <outline>
    <contour>
      <point x="368" y="523" type="line"/>
      <point x="368" y="589" type="line"/>
      <point x="213" y="589" type="line"/>
      <point x="213" y="710" type="line"/>
      <point x="101" y="710" type="line"/>
      <point x="101" y="589" type="line"/>
      <point x="20" y="589" type="line"/>
      <point x="20" y="523" type="line"/>
      <point x="101" y="523" type="line"/>
      <point x="101" y="0" type="line"/>
      <point x="213" y="0" type="line"/>
      <point x="213" y="232" type="line"/>
      <point x="283" y="297"/>
      <point x="318" y="323"/>
      <point x="354" y="323" type="curve" smooth="yes"/>
      <point x="399" y="323"/>
      <point x="418" y="300"/>
      <point x="418" y="254" type="curve" smooth="yes"/>
      <point x="418" y="0" type="line"/>
      <point x="530" y="0" type="line"/>
      <point x="530" y="274" type="line" smooth="yes"/>
      <point x="530" y="372"/>
      <point x="486" y="428"/>
      <point x="391" y="428" type="curve" smooth="yes"/>
      <point x="334" y="428"/>
      <point x="289" y="401"/>
      <point x="213" y="332" type="curve"/>
      <point x="213" y="523" type="line"/>
    </contour>
  </outline>
</glyph>
<glyph name="Iogonek" format="2">
  <advance width="614"/>
  <unicode hex="012E"/>
  <outline>
    <contour>
      <point x="123" y="59" type="line"/>
      <point x="123" y="0" type="line"/>
      <point x="283" y="0" type="line"/>
      <point x="210" y="-88"/>
      <point x="194" y="-126"/>
      <point x="194" y="-156" type="curve" smooth="yes"/>
      <point x="194" y="-202"/>
      <point x="220" y="-226"/>
      <point x="286" y="-230" type="curve" smooth="yes"/>
      <point x="381" y="-234" type="line"/>
      <point x="389" y="-160" type="line"/>
      <point x="323" y="-156" type="line" smooth="yes"/>
      <point x="288" y="-154"/>
      <point x="279" y="-142"/>
      <point x="279" y="-118" type="curve" smooth="yes"/>
      <point x="279" y="-103"/>
      <point x="283" y="-79"/>
      <point x="339" y="0" type="curve"/>
      <point x="491" y="0" type="line"/>
      <point x="491" y="59" type="line"/>
      <point x="364" y="83" type="line"/>
      <point x="364" y="572" type="line"/>
      <point x="491" y="596" type="line"/>
      <point x="491" y="655" type="line"/>
      <point x="123" y="655" type="line"/>
      <point x="123" y="596" type="line"/>
      <point x="252" y="572" type="line"/>
      <point x="252" y="83" type="line"/>
    </contour>
  </outline>
</glyph>
<glyph name="iogonek" format="2">
  <advance width="614"/>
  <unicode hex="012F"/>
  <outline>
    <contour>
      <point x="314" y="592" type="curve" smooth="yes"/>
      <point x="368" y="592"/>
      <point x="403" y="618"/>
      <point x="403" y="665" type="curve" smooth="yes"/>
      <point x="403" y="713"/>
      <point x="372" y="740"/>
      <point x="315" y="740" type="curve" smooth="yes"/>
      <point x="261" y="740"/>
      <point x="227" y="708"/>
      <point x="227" y="666" type="curve" smooth="yes"/>
      <point x="227" y="617"/>
      <point x="261" y="592"/>
    </contour>
    <contour>
      <point x="104" y="95" type="line"/>
      <point x="104" y="0" type="line"/>
      <point x="297" y="0" type="line"/>
      <point x="224" y="-89"/>
      <point x="208" y="-126"/>
      <point x="208" y="-156" type="curve" smooth="yes"/>
      <point x="208" y="-203"/>
      <point x="235" y="-227"/>
      <point x="300" y="-230" type="curve" smooth="yes"/>
      <point x="396" y="-234" type="line"/>
      <point x="404" y="-160" type="line"/>
      <point x="337" y="-156" type="line" smooth="yes"/>
      <point x="303" y="-154"/>
      <point x="294" y="-142"/>
      <point x="294" y="-119" type="curve" smooth="yes"/>
      <point x="294" y="-103"/>
      <point x="298" y="-79"/>
      <point x="354" y="0" type="curve"/>
      <point x="541" y="0" type="line"/>
      <point x="541" y="95" type="line"/>
      <point x="378" y="95" type="line"/>
      <point x="378" y="471" type="line"/>
      <point x="124" y="471" type="line"/>
      <point x="124" y="376" type="line"/>
      <point x="266" y="376" type="line"/>
      <point x="266" y="95" type="line"/>
    </contour>
  </outline>
</glyph>
<glyph name="dotlessi" format="2">
  <advance width="614"/>
  <unicode hex="0131"/>
  <anchor x="323" y="-35" name="below"/>
  <anchor x="319" y="502" name="aboveLC"/>
  <anchor x="323" y="-9" name="belowogonek"/>
  <outline>
    <contour>
      <point x="104" y="95" type="line"/>
      <point x="104" y="0" type="line"/>
      <point x="541" y="0" type="line"/>
      <point x="541" y="95" type="line"/>
      <point x="378" y="95" type="line"/>
      <point x="378" y="471" type="line"/>
      <point x="124" y="471" type="line"/>
      <point x="124" y="376" type="line"/>
      <point x="266" y="376" type="line"/>
      <point x="266" y="95" type="line"/>
    </contour>
  </outline>
</glyph>
<glyph name="lslash" format="2">
  <advance width="614"/>
  <unicode hex="0142"/>
  <outline>
    <contour>
      <point x="87" y="217" type="line"/>
      <point x="230" y="301" type="line"/>
      <point x="230" y="182" type="line" smooth="yes"/>
      <point x="230" y="50"/>
      <point x="275" y="7"/>
      <point x="409" y="0" type="curve" smooth="yes"/>
      <point x="533" y="-6" type="line"/>
      <point x="538" y="90" type="line"/>
      <point x="429" y="96" type="line" smooth="yes"/>
      <point x="365" y="100"/>
      <point x="341" y="124"/>
      <point x="341" y="192" type="curve" smooth="yes"/>
      <point x="341" y="351" type="line"/>
      <point x="508" y="451" type="line"/>
      <point x="508" y="535" type="line"/>
      <point x="341" y="436" type="line"/>
      <point x="341" y="710" type="line"/>
      <point x="58" y="710" type="line"/>
      <point x="58" y="615" type="line"/>
      <point x="230" y="615" type="line"/>
      <point x="230" y="386" type="line"/>
      <point x="87" y="302" type="line"/>
    </contour>
  </outline>
</glyph>
<glyph name="eng" format="2">
  <advance width="614"/>
  <unicode hex="014B"/>
  <outline>
    <contour>
      <point x="184" y="471" type="line"/>
      <point x="88" y="471" type="line"/>
      <point x="88" y="0" type="line"/>
      <point x="200" y="0" type="line"/>
      <point x="200" y="284" type="line"/>
      <point x="274" y="350"/>
      <point x="316" y="375"/>
      <point x="354" y="375" type="curve" smooth="yes"/>
      <point x="399" y="375"/>
      <point x="418" y="352"/>
      <point x="418" y="305" type="curve" smooth="yes"/>
      <point x="418" y="-43" type="line" smooth="yes"/>
      <point x="418" y="-104"/>
      <point x="395" y="-127"/>
      <point x="331" y="-132" type="curve" smooth="yes"/>
      <point x="215" y="-141" type="line"/>
      <point x="219" y="-237" type="line"/>
      <point x="339" y="-230" type="line" smooth="yes"/>
      <point x="479" y="-222"/>
      <point x="530" y="-176"/>
      <point x="530" y="-37" type="curve" smooth="yes"/>
      <point x="530" y="325" type="line" smooth="yes"/>
      <point x="530" y="424"/>
      <point x="486" y="479"/>
      <point x="391" y="479" type="curve" smooth="yes"/>
      <point x="329" y="479"/>
      <point x="276" y="452"/>
      <point x="193" y="377" type="curve"/>
    </contour>
  </outline>
</glyph>
<glyph name="OE" format="2">
  <advance width="614"/>
  <unicode hex="0152"/>
  <outline>
    <contour>
      <point x="290" y="0" type="curve" smooth="yes"/>
      <point x="581" y="0" type="line"/>
      <point x="581" y="89" type="line"/>
      <point x="402" y="89" type="line"/>
      <point x="402" y="287" type="line"/>
      <point x="562" y="287" type="line"/>
      <point x="562" y="374" type="line"/>
      <point x="402" y="374" type="line"/>
      <point x="402" y="566" type="line"/>
      <point x="581" y="566" type="line"/>
      <point x="581" y="655" type="line"/>
      <point x="318" y="655" type="line" smooth="yes"/>
      <point x="118" y="655"/>
      <point x="27" y="523"/>
      <point x="27" y="320" type="curve" smooth="yes"/>
      <point x="27" y="119"/>
      <point x="118" y="0"/>
    </contour>
    <contour>
      <point x="256" y="89" type="line" smooth="yes"/>
      <point x="183" y="91"/>
      <point x="135" y="164"/>
      <point x="135" y="322" type="curve" smooth="yes"/>
      <point x="135" y="485"/>
      <point x="184" y="562"/>
      <point x="278" y="566" type="curve" smooth="yes"/>
      <point x="295" y="567" type="line"/>
      <point x="295" y="87" type="line"/>
    </contour>
  </outline>
</glyph>
<glyph name="oe" format="2">
  <advance width="614"/>
  <unicode hex="0153"/>
  <outline>
    <contour>
      <point x="191" y="-14" type="curve" smooth="yes"/>
      <point x="239" y="-14"/>
      <point x="280" y="17"/>
      <point x="307" y="69" type="curve"/>
      <point x="333" y="20"/>
      <point x="378" y="-7"/>
      <point x="447" y="-8" type="curve" smooth="yes"/>
      <point x="513" y="-10" type="line"/>
      <point x="517" y="74" type="line"/>
      <point x="472" y="77" type="line" smooth="yes"/>
      <point x="393" y="81"/>
      <point x="363" y="113"/>
      <point x="356" y="197" type="curve"/>
      <point x="590" y="197" type="line"/>
      <point x="592" y="209"/>
      <point x="594" y="226"/>
      <point x="594" y="245" type="curve" smooth="yes"/>
      <point x="594" y="393"/>
      <point x="532" y="484"/>
      <point x="439" y="484" type="curve" smooth="yes"/>
      <point x="388" y="484"/>
      <point x="343" y="447"/>
      <point x="313" y="390" type="curve"/>
      <point x="287" y="449"/>
      <point x="245" y="484"/>
      <point x="195" y="484" type="curve" smooth="yes"/>
      <point x="93" y="484"/>
      <point x="21" y="380"/>
      <point x="21" y="236" type="curve" smooth="yes"/>
      <point x="21" y="86"/>
      <point x="91" y="-14"/>
    </contour>
    <contour>
      <point x="432" y="401" type="curve" smooth="yes"/>
      <point x="466" y="401"/>
      <point x="490" y="357"/>
      <point x="493" y="276" type="curve"/>
      <point x="357" y="276" type="line"/>
      <point x="364" y="357"/>
      <point x="395" y="401"/>
    </contour>
    <contour>
      <point x="199" y="74" type="curve" smooth="yes"/>
      <point x="157" y="74"/>
      <point x="132" y="132"/>
      <point x="132" y="236" type="curve" smooth="yes"/>
      <point x="132" y="340"/>
      <point x="159" y="397"/>
      <point x="199" y="397" type="curve" smooth="yes"/>
      <point x="237" y="397"/>
      <point x="261" y="336"/>
      <point x="261" y="235" type="curve" smooth="yes"/>
      <point x="261" y="128"/>
      <point x="236" y="74"/>
    </contour>
  </outline>
</glyph>
<glyph name="Scedilla" format="2">
  <advance width="614"/>
  <unicode hex="015E"/>
  <outline>
    <contour>
      <point x="305" y="80" type="curve" smooth="yes"/>
      <point x="251" y="80"/>
      <point x="177" y="98"/>
      <point x="88" y="129" type="curve"/>
      <point x="64" y="33" type="line"/>
      <point x="141" y="6"/>
      <point x="207" y="-9"/>
      <point x="271" y="-13" type="curve"/>
      <point x="240" y="-104" type="line"/>
      <point x="246" y="-114" type="line"/>
      <point x="359" y="-118"/>
      <point x="380" y="-132"/>
      <point x="380" y="-154" type="curve" smooth="yes"/>
      <point x="380" y="-180"/>
      <point x="356" y="-194"/>
      <point x="188" y="-209" type="curve"/>
      <point x="206" y="-270" type="line"/>
      <point x="433" y="-251"/>
      <point x="459" y="-212"/>
      <point x="459" y="-152" type="curve" smooth="yes"/>
      <point x="459" y="-107"/>
      <point x="432" y="-76"/>
      <point x="311" y="-63" type="curve"/>
      <point x="327" y="-13" type="line"/>
      <point x="469" y="-6"/>
      <point x="545" y="71"/>
      <point x="545" y="182" type="curve" smooth="yes"/>
      <point x="545" y="282"/>
      <point x="499" y="333"/>
      <point x="379" y="369" type="curve" smooth="yes"/>
      <point x="310" y="391" type="line" smooth="yes"/>
      <point x="222" y="419"/>
      <point x="201" y="448"/>
      <point x="201" y="496" type="curve" smooth="yes"/>
      <point x="201" y="541"/>
      <point x="233" y="574"/>
      <point x="319" y="574" type="curve" smooth="yes"/>
      <point x="367" y="574"/>
      <point x="427" y="564"/>
      <point x="507" y="542" type="curve"/>
      <point x="523" y="638" type="line"/>
      <point x="449" y="657"/>
      <point x="393" y="667"/>
      <point x="321" y="667" type="curve" smooth="yes"/>
      <point x="166" y="667"/>
      <point x="88" y="582"/>
      <point x="88" y="487" type="curve" smooth="yes"/>
      <point x="88" y="392"/>
      <point x="136" y="334"/>
      <point x="254" y="296" type="curve" smooth="yes"/>
      <point x="321" y="275" type="line" smooth="yes"/>
      <point x="411" y="247"/>
      <point x="431" y="221"/>
      <point x="431" y="174" type="curve" smooth="yes"/>
      <point x="431" y="116"/>
      <point x="394" y="80"/>
    </contour>
  </outline>
</glyph>
<glyph name="scedilla" format="2">
  <advance width="614"/>
  <unicode hex="015F"/>
  <outline>
    <contour>
      <point x="530" y="136" type="curve" smooth="yes"/>
      <point x="530" y="207"/>
      <point x="503" y="248"/>
      <point x="376" y="276" type="curve" smooth="yes"/>
      <point x="283" y="296" type="line" smooth="yes"/>
      <point x="223" y="311"/>
      <point x="210" y="323"/>
      <point x="210" y="349" type="curve" smooth="yes"/>
      <point x="210" y="376"/>
      <point x="234" y="394"/>
      <point x="324" y="394" type="curve" smooth="yes"/>
      <point x="364" y="394"/>
      <point x="424" y="388"/>
      <point x="495" y="375" type="curve"/>
      <point x="506" y="467" type="line"/>
      <point x="442" y="478"/>
      <point x="371" y="484"/>
      <point x="327" y="484" type="curve" smooth="yes"/>
      <point x="162" y="484"/>
      <point x="96" y="426"/>
      <point x="96" y="342" type="curve" smooth="yes"/>
      <point x="96" y="274"/>
      <point x="121" y="233"/>
      <point x="246" y="206" type="curve" smooth="yes"/>
      <point x="341" y="186" type="line" smooth="yes"/>
      <point x="402" y="172"/>
      <point x="416" y="157"/>
      <point x="416" y="130" type="curve" smooth="yes"/>
      <point x="416" y="99"/>
      <point x="388" y="76"/>
      <point x="294" y="76" type="curve" smooth="yes"/>
      <point x="253" y="76"/>
      <point x="180" y="83"/>
      <point x="99" y="98" type="curve"/>
      <point x="87" y="6" type="line"/>
      <point x="153" y="-6"/>
      <point x="206" y="-12"/>
      <point x="267" y="-13" type="curve"/>
      <point x="236" y="-104" type="line"/>
      <point x="242" y="-114" type="line"/>
      <point x="354" y="-118"/>
      <point x="375" y="-132"/>
      <point x="375" y="-154" type="curve" smooth="yes"/>
      <point x="375" y="-180"/>
      <point x="351" y="-194"/>
      <point x="184" y="-209" type="curve"/>
      <point x="201" y="-270" type="line"/>
      <point x="428" y="-251"/>
      <point x="455" y="-212"/>
      <point x="455" y="-152" type="curve" smooth="yes"/>
      <point x="455" y="-107"/>
      <point x="427" y="-76"/>
      <point x="306" y="-63" type="curve"/>
      <point x="322" y="-12" type="line"/>
      <point x="464" y="-4"/>
      <point x="530" y="58"/>
    </contour>
  </outline>
</glyph>
<glyph name="Tcedilla" format="2">
  <advance width="614"/>
  <unicode hex="0162"/>
  <outline>
    <contour>
      <point x="45" y="561" type="line"/>
      <point x="251" y="561" type="line"/>
      <point x="251" y="0" type="line"/>
      <point x="276" y="0" type="line"/>
      <point x="243" y="-98" type="line"/>
      <point x="249" y="-108" type="line"/>
      <point x="362" y="-113"/>
      <point x="383" y="-126"/>
      <point x="383" y="-148" type="curve" smooth="yes"/>
      <point x="383" y="-174"/>
      <point x="358" y="-189"/>
      <point x="191" y="-203" type="curve"/>
      <point x="208" y="-264" type="line"/>
      <point x="435" y="-245"/>
      <point x="462" y="-206"/>
      <point x="462" y="-146" type="curve" smooth="yes"/>
      <point x="462" y="-102"/>
      <point x="434" y="-70"/>
      <point x="313" y="-57" type="curve"/>
      <point x="331" y="0" type="line"/>
      <point x="363" y="0" type="line"/>
      <point x="363" y="561" type="line"/>
      <point x="569" y="561" type="line"/>
      <point x="569" y="655" type="line"/>
      <point x="45" y="655" type="line"/>
    </contour>
  </outline>
</glyph>
<glyph name="tcedilla" format="2">
  <advance width="614"/>
  <unicode hex="0163"/>
  <outline>
    <contour>
      <point x="209" y="186" type="line" smooth="yes"/>
      <point x="209" y="82"/>
      <point x="229" y="33"/>
      <point x="296" y="13" type="curve"/>
      <point x="258" y="-99" type="line"/>
      <point x="264" y="-109" type="line"/>
      <point x="377" y="-113"/>
      <point x="398" y="-127"/>
      <point x="398" y="-149" type="curve" smooth="yes"/>
      <point x="398" y="-175"/>
      <point x="373" y="-189"/>
      <point x="206" y="-204" type="curve"/>
      <point x="223" y="-265" type="line"/>
      <point x="450" y="-246"/>
      <point x="477" y="-207"/>
      <point x="477" y="-147" type="curve" smooth="yes"/>
      <point x="477" y="-102"/>
      <point x="449" y="-71"/>
      <point x="328" y="-58" type="curve"/>
      <point x="347" y="3" type="line"/>
      <point x="358" y="1"/>
      <point x="369" y="1"/>
      <point x="381" y="0" type="curve" smooth="yes"/>
      <point x="535" y="-7" type="line"/>
      <point x="543" y="89" type="line"/>
      <point x="407" y="97" type="line" smooth="yes"/>
      <point x="339" y="101"/>
      <point x="321" y="123"/>
      <point x="321" y="200" type="curve" smooth="yes"/>
      <point x="321" y="376" type="line"/>
      <point x="517" y="376" type="line"/>
      <point x="517" y="471" type="line"/>
      <point x="319" y="471" type="line"/>
      <point x="319" y="639" type="line"/>
      <point x="210" y="639" type="line"/>
      <point x="210" y="471" type="line"/>
      <point x="57" y="471" type="line"/>
      <point x="57" y="376" type="line"/>
      <point x="209" y="376" type="line"/>
    </contour>
  </outline>
</glyph>
<glyph name="Uogonek" format="2">
  <advance width="614"/>
  <unicode hex="0172"/>
  <outline>
    <contour>
      <point x="203" y="-161" type="curve" smooth="yes"/>
      <point x="203" y="-208"/>
      <point x="229" y="-232"/>
      <point x="295" y="-235" type="curve" smooth="yes"/>
      <point x="390" y="-239" type="line"/>
      <point x="398" y="-165" type="line"/>
      <point x="332" y="-161" type="line" smooth="yes"/>
      <point x="297" y="-159"/>
      <point x="288" y="-147"/>
      <point x="288" y="-124" type="curve" smooth="yes"/>
      <point x="288" y="-108"/>
      <point x="291" y="-85"/>
      <point x="343" y="-13" type="curve"/>
      <point x="475" y="-1"/>
      <point x="541" y="76"/>
      <point x="541" y="230" type="curve" smooth="yes"/>
      <point x="541" y="655" type="line"/>
      <point x="429" y="655" type="line"/>
      <point x="429" y="229" type="line" smooth="yes"/>
      <point x="429" y="129"/>
      <point x="387" y="87"/>
      <point x="307" y="87" type="curve" smooth="yes"/>
      <point x="228" y="87"/>
      <point x="186" y="131"/>
      <point x="186" y="229" type="curve" smooth="yes"/>
      <point x="186" y="655" type="line"/>
      <point x="73" y="655" type="line"/>
      <point x="73" y="230" type="line" smooth="yes"/>
      <point x="73" y="72"/>
      <point x="143" y="-8"/>
      <point x="284" y="-15" type="curve"/>
      <point x="218" y="-96"/>
      <point x="203" y="-132"/>
    </contour>
  </outline>
</glyph>
<glyph name="uogonek" format="2">
  <advance width="614"/>
  <unicode hex="0173"/>
  <outline>
    <contour>
      <point x="363" y="-156" type="curve" smooth="yes"/>
      <point x="363" y="-203"/>
      <point x="390" y="-227"/>
      <point x="455" y="-230" type="curve" smooth="yes"/>
      <point x="551" y="-234" type="line"/>
      <point x="558" y="-160" type="line"/>
      <point x="492" y="-156" type="line" smooth="yes"/>
      <point x="457" y="-154"/>
      <point x="448" y="-142"/>
      <point x="448" y="-119" type="curve" smooth="yes"/>
      <point x="448" y="-103"/>
      <point x="452" y="-79"/>
      <point x="508" y="0" type="curve"/>
      <point x="526" y="0" type="line"/>
      <point x="526" y="471" type="line"/>
      <point x="414" y="471" type="line"/>
      <point x="414" y="187" type="line"/>
      <point x="340" y="121"/>
      <point x="298" y="96"/>
      <point x="260" y="96" type="curve" smooth="yes"/>
      <point x="215" y="96"/>
      <point x="196" y="119"/>
      <point x="196" y="166" type="curve" smooth="yes"/>
      <point x="196" y="471" type="line"/>
      <point x="84" y="471" type="line"/>
      <point x="84" y="145" type="line" smooth="yes"/>
      <point x="84" y="47"/>
      <point x="128" y="-9"/>
      <point x="223" y="-9" type="curve" smooth="yes"/>
      <point x="285" y="-9"/>
      <point x="338" y="18"/>
      <point x="420" y="93" type="curve"/>
      <point x="427" y="0" type="line"/>
      <point x="452" y="0" type="line"/>
      <point x="379" y="-89"/>
      <point x="363" y="-126"/>
    </contour>
  </outline>
</glyph>
<glyph name="Schwa" format="2">
  <advance width="614"/>
  <unicode hex="018F"/>
  <outline>
    <contour>
      <point x="557" y="328" type="curve" smooth="yes"/>
      <point x="557" y="553"/>
      <point x="473" y="665"/>
      <point x="259" y="665" type="curve" smooth="yes"/>
      <point x="222" y="665"/>
      <point x="186" y="662"/>
      <point x="140" y="655" type="curve"/>
      <point x="149" y="562" type="line"/>
      <point x="188" y="569"/>
      <point x="223" y="571"/>
      <point x="254" y="571" type="curve" smooth="yes"/>
      <point x="372" y="571"/>
      <point x="431" y="529"/>
      <point x="441" y="381" type="curve"/>
      <point x="63" y="381" type="line"/>
      <point x="59" y="351"/>
      <point x="57" y="328"/>
      <point x="57" y="311" type="curve" smooth="yes"/>
      <point x="57" y="93"/>
      <point x="133" y="-15"/>
      <point x="299" y="-15" type="curve" smooth="yes"/>
      <point x="464" y="-15"/>
      <point x="557" y="93"/>
    </contour>
    <contour>
      <point x="298" y="79" type="curve" smooth="yes"/>
      <point x="226" y="79"/>
      <point x="174" y="123"/>
      <point x="170" y="293" type="curve"/>
      <point x="442" y="293" type="line"/>
      <point x="437" y="123"/>
      <point x="386" y="79"/>
    </contour>
  </outline>
</glyph>
<glyph name="Ohorn" format="2">
  <advance width="614"/>
  <unicode hex="01A0"/>
  <anchor x="308" y="696" name="aboveUC"/>
  <anchor x="308" y="661" name="aboveUCx"/>
  <anchor x="309" y="-40" name="below"/>
  <outline>
    <contour>
      <point x="307" y="655" type="line" smooth="yes"/>
      <point x="152.0" y="655.0"/>
      <point x="53" y="543"/>
      <point x="53" y="321" type="curve" smooth="yes"/>
      <point x="53" y="94"/>
      <point x="151" y="-15"/>
      <point x="306" y="-15" type="curve" smooth="yes"/>
      <point x="462" y="-15"/>
      <point x="561" y="97"/>
      <point x="561" y="323" type="curve" smooth="yes"/>
      <point x="561" y="463"/>
      <point x="518" y="542"/>
      <point x="436" y="592" type="curve"/>
      <point x="439" y="599" type="line"/>
      <point x="466" y="592"/>
      <point x="485" y="590"/>
      <point x="500" y="590" type="curve" smooth="yes"/>
      <point x="576" y="590"/>
      <point x="618" y="640"/>
      <point x="621" y="768" type="curve"/>
      <point x="519" y="768" type="line"/>
      <point x="515" y="682"/>
      <point x="497.0" y="655.0"/>
      <point x="420" y="655" type="curve" smooth="yes"/>
    </contour>
    <contour>
      <point x="168" y="323" type="curve" smooth="yes"/>
      <point x="168" y="496"/>
      <point x="220" y="561"/>
      <point x="307" y="561" type="curve" smooth="yes"/>
      <point x="393" y="561"/>
      <point x="446" y="496"/>
      <point x="446" y="321" type="curve" smooth="yes"/>
      <point x="446" y="145"/>
      <point x="394" y="79"/>
      <point x="307" y="79" type="curve" smooth="yes"/>
      <point x="221" y="79"/>
      <point x="168" y="146"/>
    </contour>
  </outline>
</glyph>
<glyph name="ohorn" format="2">
  <advance width="614"/>
  <unicode hex="01A1"/>
  <outline>
    <contour>
      <point x="488" y="407" type="curve" smooth="yes"/>
      <point x="564" y="407"/>
      <point x="606" y="457"/>
      <point x="610" y="583" type="curve"/>
      <point x="506" y="583" type="line"/>
      <point x="502" y="498"/>
      <point x="487" y="471"/>
      <point x="423" y="471" type="curve" smooth="yes"/>
      <point x="309" y="471" type="line" smooth="yes"/>
      <point x="160" y="471"/>
      <point x="56" y="370"/>
      <point x="56" y="233" type="curve" smooth="yes"/>
      <point x="56" y="84"/>
      <point x="159" y="-15"/>
      <point x="305" y="-15" type="curve" smooth="yes"/>
      <point x="453" y="-15"/>
      <point x="558" y="85"/>
      <point x="558" y="226" type="curve" smooth="yes"/>
      <point x="558" y="298"/>
      <point x="522" y="356"/>
      <point x="441" y="405" type="curve"/>
      <point x="443" y="412" type="line"/>
      <point x="459" y="409"/>
      <point x="474" y="407"/>
    </contour>
    <contour>
      <point x="307" y="78" type="curve" smooth="yes"/>
      <point x="224" y="78"/>
      <point x="172" y="134"/>
      <point x="172" y="233" type="curve" smooth="yes"/>
      <point x="172" y="333"/>
      <point x="227" y="386"/>
      <point x="307" y="386" type="curve" smooth="yes"/>
      <point x="390" y="386"/>
      <point x="442" y="329"/>
      <point x="442" y="232" type="curve" smooth="yes"/>
      <point x="442" y="130"/>
      <point x="388" y="78"/>
    </contour>
  </outline>
</glyph>
<glyph name="Uhorn" format="2">
  <advance width="614"/>
  <unicode hex="01AF"/>
  <outline>
    <contour>
      <point x="429" y="229" type="line" smooth="yes"/>
      <point x="429" y="129"/>
      <point x="387" y="87"/>
      <point x="307" y="87" type="curve" smooth="yes"/>
      <point x="228" y="87"/>
      <point x="186" y="131"/>
      <point x="186" y="229" type="curve" smooth="yes"/>
      <point x="186" y="655" type="line"/>
      <point x="73" y="655" type="line"/>
      <point x="73" y="230" type="line" smooth="yes"/>
      <point x="73" y="65"/>
      <point x="150" y="-15"/>
      <point x="304" y="-15" type="curve" smooth="yes"/>
      <point x="462" y="-15"/>
      <point x="541" y="62"/>
      <point x="541" y="230" type="curve" smooth="yes"/>
      <point x="541" y="588" type="line"/>
      <point x="626" y="588"/>
      <point x="673" y="636"/>
      <point x="676" y="768" type="curve"/>
      <point x="574" y="768" type="line"/>
      <point x="570" y="680"/>
      <point x="552" y="655"/>
      <point x="476" y="655" type="curve" smooth="yes"/>
      <point x="429" y="655" type="line"/>
    </contour>
  </outline>
</glyph>
<glyph name="Oogonek" format="2">
  <advance width="614"/>
  <unicode hex="01EA"/>
  <outline>
    <contour>
      <point x="205" y="-161" type="curve" smooth="yes"/>
      <point x="205" y="-208"/>
      <point x="231" y="-232"/>
      <point x="297" y="-235" type="curve" smooth="yes"/>
      <point x="392" y="-239" type="line"/>
      <point x="400" y="-165" type="line"/>
      <point x="334" y="-161" type="line" smooth="yes"/>
      <point x="299" y="-159"/>
      <point x="290" y="-147"/>
      <point x="290" y="-124" type="curve" smooth="yes"/>
      <point x="290" y="-108"/>
      <point x="293" y="-85"/>
      <point x="345" y="-12" type="curve"/>
      <point x="478" y="6"/>
      <point x="561" y="119"/>
      <point x="561" y="328" type="curve" smooth="yes"/>
      <point x="561" y="558"/>
      <point x="464" y="670"/>
      <point x="308" y="670" type="curve" smooth="yes"/>
      <point x="152" y="670"/>
      <point x="53" y="554"/>
      <point x="53" y="326" type="curve" smooth="yes"/>
      <point x="53" y="106"/>
      <point x="143" y="-5"/>
      <point x="287" y="-14" type="curve"/>
      <point x="220" y="-96"/>
      <point x="205" y="-132"/>
    </contour>
    <contour>
      <point x="168" y="328" type="curve" smooth="yes"/>
      <point x="168" y="508"/>
      <point x="220" y="576"/>
      <point x="307" y="576" type="curve" smooth="yes"/>
      <point x="393" y="576"/>
      <point x="446" y="508"/>
      <point x="446" y="326" type="curve" smooth="yes"/>
      <point x="446" y="146"/>
      <point x="394" y="79"/>
      <point x="307" y="79" type="curve" smooth="yes"/>
      <point x="221" y="79"/>
      <point x="168" y="147"/>
    </contour>
  </outline>
</glyph>
<glyph name="oogonek" format="2">
  <advance width="614"/>
  <unicode hex="01EB"/>
  <outline>
    <contour>
      <point x="200" y="-161" type="curve" smooth="yes"/>
      <point x="200" y="-208"/>
      <point x="226" y="-232"/>
      <point x="292" y="-235" type="curve" smooth="yes"/>
      <point x="387" y="-239" type="line"/>
      <point x="395" y="-165" type="line"/>
      <point x="329" y="-161" type="line" smooth="yes"/>
      <point x="294" y="-159"/>
      <point x="285" y="-147"/>
      <point x="285" y="-124" type="curve" smooth="yes"/>
      <point x="285" y="-108"/>
      <point x="288" y="-85"/>
      <point x="340" y="-13" type="curve"/>
      <point x="469" y="2"/>
      <point x="558" y="100"/>
      <point x="558" y="235" type="curve" smooth="yes"/>
      <point x="558" y="383"/>
      <point x="455" y="486"/>
      <point x="309" y="486" type="curve" smooth="yes"/>
      <point x="160" y="486"/>
      <point x="56" y="380"/>
      <point x="56" y="236" type="curve" smooth="yes"/>
      <point x="56" y="93"/>
      <point x="148" y="-4"/>
      <point x="282" y="-14" type="curve"/>
      <point x="215" y="-96"/>
      <point x="200" y="-132"/>
    </contour>
    <contour>
      <point x="307" y="78" type="curve" smooth="yes"/>
      <point x="224" y="78"/>
      <point x="172" y="135"/>
      <point x="172" y="236" type="curve" smooth="yes"/>
      <point x="172" y="337"/>
      <point x="227" y="392"/>
      <point x="307" y="392" type="curve" smooth="yes"/>
      <point x="390" y="392"/>
      <point x="442" y="333"/>
      <point x="442" y="235" type="curve" smooth="yes"/>
      <point x="442" y="131"/>
      <point x="388" y="78"/>
    </contour>
  </outline>
</glyph>
<glyph name="dotlessj" format="2">
  <advance width="614"/>
  <unicode hex="0237"/>
  <outline>
    <contour>
      <point x="440" y="-24" type="curve" smooth="yes"/>
      <point x="440" y="471" type="line"/>
      <point x="113" y="471" type="line"/>
      <point x="113" y="376" type="line"/>
      <point x="328" y="376" type="line"/>
      <point x="328" y="-31" type="line" smooth="yes"/>
      <point x="328" y="-100"/>
      <point x="302" y="-127"/>
      <point x="229" y="-132" type="curve" smooth="yes"/>
      <point x="100" y="-141" type="line"/>
      <point x="104" y="-237" type="line"/>
      <point x="237" y="-230" type="line" smooth="yes"/>
      <point x="386" y="-222"/>
      <point x="440" y="-173"/>
    </contour>
  </outline>
</glyph>
<glyph name="schwa" format="2">
  <advance width="614"/>
  <unicode hex="0259"/>
  <outline>
    <contour>
      <point x="245" y="392" type="line" smooth="yes"/>
      <point x="373" y="388"/>
      <point x="425" y="356"/>
      <point x="437" y="274" type="curve"/>
      <point x="71" y="274" type="line"/>
      <point x="68" y="262"/>
      <point x="66" y="246"/>
      <point x="66" y="227" type="curve" smooth="yes"/>
      <point x="66" y="76"/>
      <point x="157" y="-14"/>
      <point x="298" y="-14" type="curve" smooth="yes"/>
      <point x="447" y="-14"/>
      <point x="547" y="98"/>
      <point x="547" y="242" type="curve" smooth="yes"/>
      <point x="547" y="392"/>
      <point x="471" y="477"/>
      <point x="281" y="480" type="curve" smooth="yes"/>
      <point x="161" y="482" type="line"/>
      <point x="157" y="395" type="line"/>
    </contour>
    <contour>
      <point x="297" y="72" type="curve" smooth="yes"/>
      <point x="228" y="72"/>
      <point x="181" y="113"/>
      <point x="175" y="196" type="curve"/>
      <point x="436" y="196" type="line"/>
      <point x="422" y="116"/>
      <point x="368" y="72"/>
    </contour>
  </outline>
</glyph>
<glyph name="ringhalfright" format="2">
  <advance width="614"/>
  <unicode hex="02BE"/>
  <outline>
    <contour>
      <point x="180" y="315" type="line"/>
      <point x="366" y="315"/>
      <point x="444" y="406"/>
      <point x="444" y="523" type="curve" smooth="yes"/>
      <point x="444" y="638"/>
      <point x="366" y="725"/>
      <point x="180" y="725" type="curve"/>
      <point x="180" y="639" type="line"/>
      <point x="306" y="639"/>
      <point x="343" y="593"/>
      <point x="343" y="523" type="curve" smooth="yes"/>
      <point x="343" y="450"/>
      <point x="306" y="401"/>
      <point x="180" y="401" type="curve"/>
    </contour>
  </outline>
</glyph>
<glyph name="ringhalfleft" format="2">
  <advance width="614"/>
  <unicode hex="02BF"/>
  <outline>
    <contour>
      <point x="418" y="725" type="line"/>
      <point x="232" y="725"/>
      <point x="154" y="637"/>
      <point x="154" y="523" type="curve" smooth="yes"/>
      <point x="154" y="405"/>
      <point x="232" y="315"/>
      <point x="418" y="315" type="curve"/>
      <point x="418" y="401" type="line"/>
      <point x="291" y="401"/>
      <point x="255" y="449"/>
      <point x="255" y="523" type="curve" smooth="yes"/>
      <point x="255" y="593"/>
      <point x="292" y="639"/>
      <point x="418" y="639" type="curve"/>
    </contour>
  </outline>
</glyph>
<glyph name="gravecmb" format="2">
  <unicode hex="0300"/>
  <anchor x="0" y="502" name="_aboveLC"/>
  <anchor x="0" y="472" name="_aboveLCx"/>
  <outline>
    <contour>
      <point x="95" y="606" type="line"/>
      <point x="-125" y="752" type="line"/>
      <point x="-171" y="678" type="line"/>
      <point x="58" y="546" type="line"/>
    </contour>
  </outline>
</glyph>
<glyph name="acutecmb" format="2">
  <unicode hex="0301"/>
  <anchor x="0" y="502" name="_aboveLC"/>
  <anchor x="0" y="472" name="_aboveLCx"/>
  <outline>
    <contour>
      <point x="-95" y="607" type="line"/>
      <point x="-58" y="547" type="line"/>
      <point x="171" y="678" type="line"/>
      <point x="125" y="752" type="line"/>
    </contour>
  </outline>
</glyph>
<glyph name="circumflexcmb" format="2">
  <unicode hex="0302"/>
  <anchor x="0" y="502" name="_aboveLC"/>
  <anchor x="0" y="472" name="_aboveLCx"/>
  <outline>
    <contour>
      <point x="-186" y="593" type="line"/>
      <point x="-146" y="547" type="line"/>
      <point x="0" y="666" type="line"/>
      <point x="146" y="547" type="line"/>
      <point x="186" y="593" type="line"/>
      <point x="26" y="752" type="line"/>
      <point x="-26" y="752" type="line"/>
    </contour>
  </outline>
</glyph>
<glyph name="tildecmb" format="2">
  <unicode hex="0303"/>
  <anchor x="0" y="502" name="_aboveLC"/>
  <anchor x="0" y="472" name="_aboveLCx"/>
  <outline>
    <contour>
      <point x="-20" y="610" type="curve" smooth="yes"/>
      <point x="34" y="557"/>
      <point x="57" y="547"/>
      <point x="80" y="547" type="curve" smooth="yes"/>
      <point x="119" y="547"/>
      <point x="151" y="564"/>
      <point x="204" y="722" type="curve"/>
      <point x="138" y="746" type="line"/>
      <point x="102" y="644"/>
      <point x="92" y="632"/>
      <point x="79" y="632" type="curve" smooth="yes"/>
      <point x="68" y="632"/>
      <point x="61" y="638"/>
      <point x="18" y="679" type="curve" smooth="yes"/>
      <point x="-36" y="732"/>
      <point x="-58" y="743"/>
      <point x="-82" y="743" type="curve" smooth="yes"/>
      <point x="-121" y="743"/>
      <point x="-153" y="725"/>
      <point x="-206" y="567" type="curve"/>
      <point x="-138" y="543" type="line"/>
      <point x="-103" y="645"/>
      <point x="-94" y="657"/>
      <point x="-81" y="657" type="curve" smooth="yes"/>
      <point x="-71" y="657"/>
      <point x="-63" y="652"/>
    </contour>
  </outline>
</glyph>
<glyph name="macroncmb" format="2">
  <unicode hex="0304"/>
  <anchor x="0" y="502" name="_aboveLC"/>
  <anchor x="0" y="472" name="_aboveLCx"/>
  <outline>
    <contour>
      <point x="-168" y="587" type="line"/>
      <point x="168" y="587" type="line"/>
      <point x="168" y="666" type="line"/>
      <point x="-168" y="666" type="line"/>
    </contour>
  </outline>
</glyph>
<glyph name="brevecmb" format="2">
  <unicode hex="0306"/>
  <anchor x="0" y="502" name="_aboveLC"/>
  <anchor x="0" y="472" name="_aboveLCx"/>
  <outline>
    <contour>
      <point x="0" y="624" type="curve" smooth="yes"/>
      <point x="-52" y="624"/>
      <point x="-92" y="656"/>
      <point x="-123" y="745" type="curve"/>
      <point x="-191" y="722" type="line"/>
      <point x="-157" y="595"/>
      <point x="-87" y="547"/>
      <point x="0" y="547" type="curve" smooth="yes"/>
      <point x="87" y="547"/>
      <point x="157" y="595"/>
      <point x="191" y="722" type="curve"/>
      <point x="123" y="745" type="line"/>
      <point x="92" y="656"/>
      <point x="52" y="624"/>
    </contour>
  </outline>
</glyph>
<glyph name="dotaccentcmb" format="2">
  <unicode hex="0307"/>
  <anchor x="0" y="502" name="_aboveLC"/>
  <anchor x="0" y="472" name="_aboveLCx"/>
  <outline>
    <contour>
      <point x="0" y="567" type="curve" smooth="yes"/>
      <point x="43" y="567"/>
      <point x="70" y="590"/>
      <point x="70" y="633" type="curve" smooth="yes"/>
      <point x="70" y="677"/>
      <point x="46" y="700"/>
      <point x="1" y="700" type="curve" smooth="yes"/>
      <point x="-42" y="700"/>
      <point x="-69" y="673"/>
      <point x="-69" y="633" type="curve" smooth="yes"/>
      <point x="-69" y="590"/>
      <point x="-43" y="567"/>
    </contour>
  </outline>
</glyph>
<glyph name="dieresiscmb" format="2">
  <unicode hex="0308"/>
  <anchor x="0" y="502" name="_aboveLC"/>
  <anchor x="0" y="472" name="_aboveLCx"/>
  <outline>
    <contour>
      <point x="-117" y="567" type="curve" smooth="yes"/>
      <point x="-76" y="567"/>
      <point x="-51" y="588"/>
      <point x="-51" y="629" type="curve" smooth="yes"/>
      <point x="-51" y="670"/>
      <point x="-73" y="693"/>
      <point x="-116" y="693" type="curve" smooth="yes"/>
      <point x="-157" y="693"/>
      <point x="-182" y="667"/>
      <point x="-182" y="629" type="curve" smooth="yes"/>
      <point x="-182" y="588"/>
      <point x="-158" y="567"/>
    </contour>
    <contour>
      <point x="115" y="567" type="curve" smooth="yes"/>
      <point x="156" y="567"/>
      <point x="182" y="588"/>
      <point x="182" y="629" type="curve" smooth="yes"/>
      <point x="182" y="670"/>
      <point x="159" y="693"/>
      <point x="116" y="693" type="curve" smooth="yes"/>
      <point x="76" y="693"/>
      <point x="51" y="667"/>
      <point x="51" y="629" type="curve" smooth="yes"/>
      <point x="51" y="588"/>
      <point x="74" y="567"/>
    </contour>
  </outline>
</glyph>
<glyph name="hookcmb" format="2">
  <unicode hex="0309"/>
  <anchor x="0" y="502" name="_aboveLC"/>
  <anchor x="0" y="472" name="_aboveLCx"/>
  <outline>
    <contour>
      <point x="-94" y="547" type="line"/>
      <point x="67" y="567"/>
      <point x="115" y="620"/>
      <point x="115" y="668" type="curve" smooth="yes"/>
      <point x="115" y="717"/>
      <point x="79" y="753"/>
      <point x="-83" y="773" type="curve"/>
      <point x="-128" y="717" type="line"/>
      <point x="-128" y="714" type="line"/>
      <point x="0" y="696"/>
      <point x="17" y="677"/>
      <point x="17" y="656" type="curve" smooth="yes"/>
      <point x="17" y="636"/>
      <point x="-5" y="616"/>
      <point x="-118" y="596" type="curve"/>
      <point x="-118" y="594" type="line"/>
    </contour>
  </outline>
</glyph>
<glyph name="ringcmb" format="2">
  <unicode hex="030A"/>
  <anchor x="0" y="502" name="_aboveLC"/>
  <anchor x="0" y="472" name="_aboveLCx"/>
  <outline>
    <contour>
      <point x="-1" y="547" type="curve" smooth="yes"/>
      <point x="86" y="547"/>
      <point x="149" y="595"/>
      <point x="149" y="678" type="curve" smooth="yes"/>
      <point x="149" y="758"/>
      <point x="88" y="807"/>
      <point x="1" y="807" type="curve" smooth="yes"/>
      <point x="-87" y="807"/>
      <point x="-149" y="757"/>
      <point x="-149" y="677" type="curve" smooth="yes"/>
      <point x="-149" y="594"/>
      <point x="-87" y="547"/>
    </contour>
    <contour>
      <point x="0" y="612" type="curve" smooth="yes"/>
      <point x="-50" y="612"/>
      <point x="-78" y="631"/>
      <point x="-78" y="676" type="curve" smooth="yes"/>
      <point x="-78" y="722"/>
      <point x="-49" y="742"/>
      <point x="-1" y="742" type="curve" smooth="yes"/>
      <point x="50" y="742"/>
      <point x="77" y="722"/>
      <point x="77" y="679" type="curve" smooth="yes"/>
      <point x="77" y="632"/>
      <point x="49" y="612"/>
    </contour>
  </outline>
</glyph>
<glyph name="hungarumlautcmb" format="2">
  <unicode hex="030B"/>
  <anchor x="0" y="502" name="_aboveLC"/>
  <anchor x="0" y="472" name="_aboveLCx"/>
  <outline>
    <contour>
      <point x="-189" y="592" type="line"/>
      <point x="-139" y="547" type="line"/>
      <point x="-1" y="695" type="line"/>
      <point x="-70" y="749" type="line"/>
    </contour>
    <contour>
      <point x="48" y="592" type="line"/>
      <point x="98" y="547" type="line"/>
      <point x="235" y="695" type="line"/>
      <point x="167" y="749" type="line"/>
    </contour>
  </outline>
</glyph>
<glyph name="caroncmb" format="2">
  <unicode hex="030C"/>
  <anchor x="0" y="502" name="_aboveLC"/>
  <anchor x="0" y="472" name="_aboveLCx"/>
  <outline>
    <contour>
      <point x="186" y="705" type="line"/>
      <point x="146" y="752" type="line"/>
      <point x="0" y="632" type="line"/>
      <point x="-146" y="752" type="line"/>
      <point x="-186" y="705" type="line"/>
      <point x="-26" y="547" type="line"/>
      <point x="26" y="547" type="line"/>
    </contour>
  </outline>
</glyph>
<glyph name="commaturnedabovecmb" format="2">
  <unicode hex="0312"/>
  <anchor x="0" y="502" name="_aboveLC"/>
  <anchor x="0" y="472" name="_aboveLCx"/>
  <outline>
    <contour>
      <point x="92" y="773" type="line"/>
      <point x="-68" y="753"/>
      <point x="-117" y="700"/>
      <point x="-117" y="652" type="curve" smooth="yes"/>
      <point x="-117" y="603"/>
      <point x="-80" y="567"/>
      <point x="82" y="547" type="curve"/>
      <point x="126" y="603" type="line"/>
      <point x="126" y="605" type="line"/>
      <point x="-2" y="624"/>
      <point x="-18" y="643"/>
      <point x="-18" y="663" type="curve" smooth="yes"/>
      <point x="-18" y="684"/>
      <point x="4" y="704"/>
      <point x="116" y="724" type="curve"/>
      <point x="116" y="726" type="line"/>
    </contour>
  </outline>
</glyph>
<glyph name="commaaboverightcmb" format="2">
  <unicode hex="0315"/>
  <anchor x="0" y="710" name="_topright"/>
  <outline>
    <contour>
      <point x="0" y="486" type="line"/>
      <point x="74" y="486" type="line"/>
      <point x="101" y="710" type="line"/>
      <point x="0" y="710" type="line"/>
    </contour>
  </outline>
</glyph>
<glyph name="dotbelowcmb" format="2">
  <unicode hex="0323"/>
  <anchor x="0" y="-35" name="_below"/>
  <anchor x="0" y="-5" name="_belowx"/>
  <outline>
    <contour>
      <point x="0" y="-230" type="curve" smooth="yes"/>
      <point x="43" y="-230"/>
      <point x="70" y="-207"/>
      <point x="70" y="-163" type="curve" smooth="yes"/>
      <point x="70" y="-120"/>
      <point x="46" y="-96"/>
      <point x="1" y="-96" type="curve" smooth="yes"/>
      <point x="-42" y="-96"/>
      <point x="-69" y="-124"/>
      <point x="-69" y="-163" type="curve" smooth="yes"/>
      <point x="-69" y="-207"/>
      <point x="-43" y="-230"/>
    </contour>
  </outline>
</glyph>
<glyph name="dieresisbelowcmb" format="2">
  <unicode hex="0324"/>
  <anchor x="0" y="-35" name="_below"/>
  <anchor x="0" y="-5" name="_belowx"/>
  <outline>
    <contour>
      <point x="-117" y="-222" type="curve" smooth="yes"/>
      <point x="-76" y="-222"/>
      <point x="-51" y="-200"/>
      <point x="-51" y="-160" type="curve" smooth="yes"/>
      <point x="-51" y="-118"/>
      <point x="-73" y="-96"/>
      <point x="-116" y="-96" type="curve" smooth="yes"/>
      <point x="-157" y="-96"/>
      <point x="-182" y="-122"/>
      <point x="-182" y="-160" type="curve" smooth="yes"/>
      <point x="-182" y="-200"/>
      <point x="-158" y="-222"/>
    </contour>
    <contour>
      <point x="115" y="-222" type="curve" smooth="yes"/>
      <point x="156" y="-222"/>
      <point x="182" y="-200"/>
      <point x="182" y="-160" type="curve" smooth="yes"/>
      <point x="182" y="-118"/>
      <point x="159" y="-96"/>
      <point x="116" y="-96" type="curve" smooth="yes"/>
      <point x="76" y="-96"/>
      <point x="51" y="-122"/>
      <point x="51" y="-160" type="curve" smooth="yes"/>
      <point x="51" y="-200"/>
      <point x="74" y="-222"/>
    </contour>
  </outline>
</glyph>
<glyph name="uni0326" format="2">
  <unicode hex="0326"/>
  <anchor x="0" y="-35" name="_below"/>
  <anchor x="0" y="-5" name="_belowx"/>
  <outline>
    <contour>
      <point x="-94" y="-303" type="line"/>
      <point x="67" y="-283"/>
      <point x="115" y="-229"/>
      <point x="115" y="-182" type="curve" smooth="yes"/>
      <point x="115" y="-132"/>
      <point x="79" y="-97"/>
      <point x="-83" y="-76" type="curve"/>
      <point x="-128" y="-132" type="line"/>
      <point x="-128" y="-135" type="line"/>
      <point x="0" y="-153"/>
      <point x="17" y="-173"/>
      <point x="17" y="-193" type="curve" smooth="yes"/>
      <point x="17" y="-214"/>
      <point x="-5" y="-233"/>
      <point x="-118" y="-253" type="curve"/>
      <point x="-118" y="-255" type="line"/>
    </contour>
  </outline>
</glyph>
<glyph name="cedillacmb" format="2">
  <unicode hex="0327"/>
  <anchor x="0" y="-10" name="_belowcedilla"/>
  <outline>
    <contour>
      <point x="-21" y="21" type="line"/>
      <point x="-62" y="-99" type="line"/>
      <point x="-56" y="-109" type="line"/>
      <point x="56" y="-113"/>
      <point x="77" y="-127"/>
      <point x="77" y="-149" type="curve" smooth="yes"/>
      <point x="77" y="-175"/>
      <point x="53" y="-189"/>
      <point x="-114" y="-204" type="curve"/>
      <point x="-97" y="-265" type="line"/>
      <point x="130" y="-246"/>
      <point x="157" y="-207"/>
      <point x="157" y="-147" type="curve" smooth="yes"/>
      <point x="157" y="-102"/>
      <point x="129" y="-71"/>
      <point x="8" y="-58" type="curve"/>
      <point x="33" y="21" type="line"/>
    </contour>
  </outline>
</glyph>
<glyph name="ogonekcmb" format="2">
  <unicode hex="0328"/>
  <anchor x="0" y="-10" name="_belowogonek"/>
  <outline>
    <contour>
      <point x="-113" y="-156" type="curve" smooth="yes"/>
      <point x="-113" y="-203"/>
      <point x="-87" y="-227"/>
      <point x="-21" y="-230" type="curve" smooth="yes"/>
      <point x="74" y="-234" type="line"/>
      <point x="82" y="-160" type="line"/>
      <point x="16" y="-156" type="line" smooth="yes"/>
      <point x="-19" y="-154"/>
      <point x="-28" y="-142"/>
      <point x="-28" y="-119" type="curve" smooth="yes"/>
      <point x="-28" y="-102"/>
      <point x="-24" y="-77"/>
      <point x="39" y="9" type="curve"/>
      <point x="-13" y="13" type="line"/>
      <point x="-95" y="-85"/>
      <point x="-113" y="-125"/>
    </contour>
  </outline>
</glyph>
<glyph name="circumflexbelowcmb" format="2">
  <unicode hex="032D"/>
  <anchor x="0" y="-35" name="_below"/>
  <anchor x="0" y="-5" name="_belowx"/>
  <outline>
    <contour>
      <point x="-186" y="-235" type="line"/>
      <point x="-146" y="-281" type="line"/>
      <point x="0" y="-162" type="line"/>
      <point x="146" y="-281" type="line"/>
      <point x="186" y="-235" type="line"/>
      <point x="26" y="-76" type="line"/>
      <point x="-26" y="-76" type="line"/>
    </contour>
  </outline>
</glyph>
<glyph name="brevebelowcmb" format="2">
  <unicode hex="032E"/>
  <anchor x="0" y="-35" name="_below"/>
  <anchor x="0" y="-5" name="_belowx"/>
  <outline>
    <contour>
      <point x="0" y="-197" type="curve" smooth="yes"/>
      <point x="-52" y="-197"/>
      <point x="-92" y="-166"/>
      <point x="-123" y="-76" type="curve"/>
      <point x="-191" y="-99" type="line"/>
      <point x="-157" y="-226"/>
      <point x="-87" y="-275"/>
      <point x="0" y="-275" type="curve" smooth="yes"/>
      <point x="87" y="-275"/>
      <point x="157" y="-226"/>
      <point x="191" y="-99" type="curve"/>
      <point x="123" y="-76" type="line"/>
      <point x="92" y="-165"/>
      <point x="52" y="-197"/>
    </contour>
  </outline>
</glyph>
<glyph name="bahtthai" format="2">
  <advance width="614"/>
  <unicode hex="0E3F"/>
  <outline>
    <contour>
      <point x="352" y="-142" type="line"/>
      <point x="352" y="0" type="line"/>
      <point x="515" y="3"/>
      <point x="569" y="70"/>
      <point x="569" y="164" type="curve" smooth="yes"/>
      <point x="569" y="257"/>
      <point x="506" y="318"/>
      <point x="393" y="334" type="curve"/>
      <point x="393" y="338" type="line"/>
      <point x="509" y="362"/>
      <point x="552" y="427"/>
      <point x="552" y="502" type="curve" smooth="yes"/>
      <point x="552" y="593"/>
      <point x="494" y="654"/>
      <point x="352" y="655" type="curve"/>
      <point x="352" y="796" type="line"/>
      <point x="274" y="796" type="line"/>
      <point x="274" y="655" type="line"/>
      <point x="88" y="655" type="line"/>
      <point x="88" y="0" type="line"/>
      <point x="274" y="0" type="line"/>
      <point x="274" y="-142" type="line"/>
    </contour>
    <contour>
      <point x="333" y="568" type="line" smooth="yes"/>
      <point x="405" y="568"/>
      <point x="438" y="540"/>
      <point x="438" y="481" type="curve" smooth="yes"/>
      <point x="438" y="423"/>
      <point x="398" y="379"/>
      <point x="299" y="374" type="curve" smooth="yes"/>
      <point x="199" y="368" type="line"/>
      <point x="199" y="568" type="line"/>
    </contour>
    <contour>
      <point x="300" y="285" type="line" smooth="yes"/>
      <point x="413" y="280"/>
      <point x="456" y="238"/>
      <point x="456" y="178" type="curve" smooth="yes"/>
      <point x="456" y="122"/>
      <point x="421" y="86"/>
      <point x="334" y="86" type="curve" smooth="yes"/>
      <point x="199" y="86" type="line"/>
      <point x="199" y="290" type="line"/>
    </contour>
  </outline>
</glyph>
<glyph name="Hcedilla" format="2">
  <advance width="614"/>
  <unicode hex="1E28"/>
  <outline>
    <contour>
      <point x="85" y="655" type="line"/>
      <point x="85" y="0" type="line"/>
      <point x="112" y="0" type="line"/>
      <point x="78" y="-99" type="line"/>
      <point x="84" y="-109" type="line"/>
      <point x="196" y="-113"/>
      <point x="217" y="-127"/>
      <point x="217" y="-149" type="curve" smooth="yes"/>
      <point x="217" y="-175"/>
      <point x="193" y="-189"/>
      <point x="26" y="-204" type="curve"/>
      <point x="43" y="-265" type="line"/>
      <point x="270" y="-246"/>
      <point x="297" y="-207"/>
      <point x="297" y="-147" type="curve" smooth="yes"/>
      <point x="297" y="-102"/>
      <point x="269" y="-71"/>
      <point x="148" y="-58" type="curve"/>
      <point x="166" y="0" type="line"/>
      <point x="197" y="0" type="line"/>
      <point x="197" y="283" type="line"/>
      <point x="417" y="283" type="line"/>
      <point x="417" y="0" type="line"/>
      <point x="529" y="0" type="line"/>
      <point x="529" y="655" type="line"/>
      <point x="417" y="655" type="line"/>
      <point x="417" y="377" type="line"/>
      <point x="197" y="377" type="line"/>
      <point x="197" y="655" type="line"/>
    </contour>
  </outline>
</glyph>
<glyph name="hcedilla" format="2">
  <advance width="614"/>
  <unicode hex="1E29"/>
  <outline>
    <contour>
      <point x="200" y="710" type="line"/>
      <point x="88" y="710" type="line"/>
      <point x="88" y="0" type="line"/>
      <point x="114" y="0" type="line"/>
      <point x="80" y="-99" type="line"/>
      <point x="86" y="-109" type="line"/>
      <point x="199" y="-113"/>
      <point x="220" y="-127"/>
      <point x="220" y="-149" type="curve" smooth="yes"/>
      <point x="220" y="-175"/>
      <point x="195" y="-189"/>
      <point x="28" y="-204" type="curve"/>
      <point x="46" y="-265" type="line"/>
      <point x="273" y="-246"/>
      <point x="299" y="-207"/>
      <point x="299" y="-147" type="curve" smooth="yes"/>
      <point x="299" y="-102"/>
      <point x="272" y="-71"/>
      <point x="151" y="-58" type="curve"/>
      <point x="169" y="0" type="line"/>
      <point x="200" y="0" type="line"/>
      <point x="200" y="284" type="line"/>
      <point x="274" y="350"/>
      <point x="316" y="375"/>
      <point x="354" y="375" type="curve" smooth="yes"/>
      <point x="399" y="375"/>
      <point x="418" y="352"/>
      <point x="418" y="305" type="curve" smooth="yes"/>
      <point x="418" y="0" type="line"/>
      <point x="530" y="0" type="line"/>
      <point x="530" y="325" type="line" smooth="yes"/>
      <point x="530" y="424"/>
      <point x="486" y="479"/>
      <point x="391" y="479" type="curve" smooth="yes"/>
      <point x="331" y="479"/>
      <point x="279" y="454"/>
      <point x="200" y="384" type="curve"/>
    </contour>
  </outline>
</glyph>
<glyph name="uni1E9E" format="2">
  <advance width="614"/>
  <unicode hex="1E9E"/>
  <outline>
    <contour>
      <point x="326" y="311" type="line"/>
      <point x="454" y="218"/>
      <point x="473" y="191"/>
      <point x="473" y="147" type="curve" smooth="yes"/>
      <point x="473" y="112"/>
      <point x="452" y="84"/>
      <point x="399" y="84" type="curve" smooth="yes"/>
      <point x="372" y="84"/>
      <point x="351" y="86"/>
      <point x="323" y="91" type="curve"/>
      <point x="316" y="2" type="line"/>
      <point x="344" y="-3"/>
      <point x="373" y="-6"/>
      <point x="413" y="-6" type="curve" smooth="yes"/>
      <point x="515" y="-6"/>
      <point x="580" y="54"/>
      <point x="580" y="144" type="curve" smooth="yes"/>
      <point x="580" y="212"/>
      <point x="560" y="257"/>
      <point x="434" y="347" type="curve"/>
      <point x="548" y="559" type="line"/>
      <point x="548" y="583" type="line"/>
      <point x="445" y="650"/>
      <point x="376" y="670"/>
      <point x="307" y="670" type="curve" smooth="yes"/>
      <point x="170" y="670"/>
      <point x="78" y="587"/>
      <point x="78" y="427" type="curve" smooth="yes"/>
      <point x="78" y="0" type="line"/>
      <point x="191" y="0" type="line"/>
      <point x="191" y="433" type="line" smooth="yes"/>
      <point x="191" y="533"/>
      <point x="235" y="576"/>
      <point x="314" y="576" type="curve" smooth="yes"/>
      <point x="351" y="576"/>
      <point x="385" y="566"/>
      <point x="432" y="541" type="curve"/>
      <point x="326" y="344" type="line"/>
    </contour>
  </outline>
</glyph>
<glyph name="emdash" format="2">
  <advance width="614"/>
  <unicode hex="2014"/>
  <outline>
    <contour>
      <point x="50" y="333" type="line"/>
      <point x="50" y="223" type="line"/>
      <point x="564" y="223" type="line"/>
      <point x="564" y="333" type="line"/>
    </contour>
  </outline>
</glyph>
<glyph name="quoteleft" format="2">
  <advance width="614"/>
  <unicode hex="2018"/>
  <outline>
    <contour>
      <point x="470" y="710" type="line"/>
      <point x="365" y="710" type="line"/>
      <point x="247" y="622"/>
      <point x="192" y="544"/>
      <point x="173" y="410" type="curve"/>
      <point x="343" y="410" type="line"/>
      <point x="352" y="525"/>
      <point x="381" y="590"/>
      <point x="470" y="708" type="curve"/>
    </contour>
  </outline>
</glyph>
<glyph name="quoteright" format="2">
  <advance width="614"/>
  <unicode hex="2019"/>
  <outline>
    <contour>
      <point x="144" y="410" type="line"/>
      <point x="249" y="410" type="line"/>
      <point x="367" y="497"/>
      <point x="422" y="575"/>
      <point x="441" y="710" type="curve"/>
      <point x="271" y="710" type="line"/>
      <point x="262" y="594"/>
      <point x="233" y="529"/>
      <point x="144" y="412" type="curve"/>
    </contour>
  </outline>
</glyph>
<glyph name="quotedblleft" format="2">
  <advance width="614"/>
  <unicode hex="201C"/>
  <outline>
    <contour>
      <point x="321" y="710" type="line"/>
      <point x="230" y="710" type="line"/>
      <point x="119" y="616"/>
      <point x="80" y="548"/>
      <point x="49" y="405" type="curve"/>
      <point x="195" y="405" type="line"/>
      <point x="214" y="531"/>
      <point x="235" y="578"/>
      <point x="321" y="708" type="curve"/>
    </contour>
    <contour>
      <point x="577" y="710" type="line"/>
      <point x="486" y="710" type="line"/>
      <point x="375" y="616"/>
      <point x="337" y="548"/>
      <point x="306" y="405" type="curve"/>
      <point x="452" y="405" type="line"/>
      <point x="471" y="531"/>
      <point x="491" y="578"/>
      <point x="577" y="708" type="curve"/>
    </contour>
  </outline>
</glyph>
<glyph name="quotedblright" format="2">
  <advance width="614"/>
  <unicode hex="201D"/>
  <outline>
    <contour>
      <point x="293" y="405" type="line"/>
      <point x="384" y="405" type="line"/>
      <point x="495" y="498"/>
      <point x="534" y="567"/>
      <point x="565" y="710" type="curve"/>
      <point x="419" y="710" type="line"/>
      <point x="400" y="584"/>
      <point x="379" y="536"/>
      <point x="293" y="407" type="curve"/>
    </contour>
    <contour>
      <point x="36" y="405" type="line"/>
      <point x="128" y="405" type="line"/>
      <point x="239" y="498"/>
      <point x="277" y="567"/>
      <point x="308" y="710" type="curve"/>
      <point x="162" y="710" type="line"/>
      <point x="143" y="584"/>
      <point x="122" y="536"/>
      <point x="36" y="407" type="curve"/>
    </contour>
  </outline>
</glyph>
<glyph name="dagger" format="2">
  <advance width="614"/>
  <unicode hex="2020"/>
  <outline>
    <contour>
      <point x="539" y="425" type="curve"/>
      <point x="539" y="527" type="line"/>
      <point x="471" y="527"/>
      <point x="401" y="502"/>
      <point x="333" y="496" type="curve"/>
      <point x="337" y="567"/>
      <point x="363" y="640"/>
      <point x="363" y="710" type="curve"/>
      <point x="251" y="710" type="line"/>
      <point x="251" y="640"/>
      <point x="278" y="567"/>
      <point x="283" y="496" type="curve"/>
      <point x="213" y="501"/>
      <point x="140" y="527"/>
      <point x="75" y="527" type="curve"/>
      <point x="75" y="425" type="line"/>
      <point x="139" y="425"/>
      <point x="213" y="453"/>
      <point x="284" y="459" type="curve"/>
      <point x="282" y="306"/>
      <point x="251" y="152"/>
      <point x="251" y="0" type="curve"/>
      <point x="363" y="0" type="line"/>
      <point x="363" y="152"/>
      <point x="334" y="306"/>
      <point x="332" y="459" type="curve"/>
      <point x="401" y="453"/>
      <point x="471" y="425"/>
    </contour>
  </outline>
</glyph>
<glyph name="daggerdbl" format="2">
  <advance width="614"/>
  <unicode hex="2021"/>
  <outline>
    <contour>
      <point x="524" y="185" type="curve"/>
      <point x="524" y="287" type="line"/>
      <point x="460" y="287"/>
      <point x="396" y="262"/>
      <point x="332" y="256" type="curve"/>
      <point x="332" y="459" type="line"/>
      <point x="402" y="453"/>
      <point x="474" y="425"/>
      <point x="539" y="425" type="curve"/>
      <point x="539" y="527" type="line"/>
      <point x="472" y="527"/>
      <point x="402" y="502"/>
      <point x="333" y="496" type="curve"/>
      <point x="337" y="567"/>
      <point x="363" y="639"/>
      <point x="363" y="710" type="curve"/>
      <point x="251" y="710" type="line"/>
      <point x="251" y="639"/>
      <point x="279" y="567"/>
      <point x="283" y="496" type="curve"/>
      <point x="214" y="501"/>
      <point x="146" y="527"/>
      <point x="75" y="527" type="curve"/>
      <point x="75" y="425" type="line"/>
      <point x="144" y="425"/>
      <point x="214" y="453"/>
      <point x="284" y="459" type="curve"/>
      <point x="284" y="256" type="line"/>
      <point x="220" y="261"/>
      <point x="157" y="287"/>
      <point x="91" y="287" type="curve"/>
      <point x="91" y="185" type="line"/>
      <point x="157" y="185"/>
      <point x="220" y="213"/>
      <point x="284" y="219" type="curve"/>
      <point x="280" y="146"/>
      <point x="254" y="73"/>
      <point x="254" y="0" type="curve"/>
      <point x="360" y="0" type="line"/>
      <point x="360" y="72"/>
      <point x="336" y="146"/>
      <point x="332" y="219" type="curve"/>
      <point x="396" y="212"/>
      <point x="460" y="185"/>
    </contour>
  </outline>
</glyph>
<glyph name="bullet" format="2">
  <advance width="614"/>
  <unicode hex="2022"/>
  <outline>
    <contour>
      <point x="308" y="476" type="curve" smooth="yes"/>
      <point x="211" y="476"/>
      <point x="160" y="415"/>
      <point x="160" y="332" type="curve" smooth="yes"/>
      <point x="160" y="230"/>
      <point x="222" y="189"/>
      <point x="308" y="189" type="curve" smooth="yes"/>
      <point x="404" y="189"/>
      <point x="455" y="248"/>
      <point x="455" y="332" type="curve" smooth="yes"/>
      <point x="455" y="434"/>
      <point x="393" y="476"/>
    </contour>
  </outline>
</glyph>
<glyph name="twodotleader" format="2">
  <advance width="614"/>
  <unicode hex="2025"/>
  <outline>
    <contour>
      <point x="152" y="-15" type="curve" smooth="yes"/>
      <point x="206" y="-15"/>
      <point x="237" y="17"/>
      <point x="237" y="79" type="curve" smooth="yes"/>
      <point x="237" y="141"/>
      <point x="210" y="172"/>
      <point x="154" y="172" type="curve" smooth="yes"/>
      <point x="99" y="172"/>
      <point x="70" y="136"/>
      <point x="70" y="78" type="curve" smooth="yes"/>
      <point x="70" y="17"/>
      <point x="97" y="-15"/>
    </contour>
    <contour>
      <point x="460" y="-15" type="curve" smooth="yes"/>
      <point x="513" y="-15"/>
      <point x="544" y="17"/>
      <point x="544" y="79" type="curve" smooth="yes"/>
      <point x="544" y="141"/>
      <point x="517" y="172"/>
      <point x="460" y="172" type="curve" smooth="yes"/>
      <point x="406" y="172"/>
      <point x="377" y="136"/>
      <point x="377" y="78" type="curve" smooth="yes"/>
      <point x="377" y="17"/>
      <point x="405" y="-15"/>
    </contour>
  </outline>
</glyph>
<glyph name="ellipsis" format="2">
  <advance width="614"/>
  <unicode hex="2026"/>
  <outline>
    <contour>
      <point x="307" y="-15" type="curve" smooth="yes"/>
      <point x="349" y="-15"/>
      <point x="371" y="9"/>
      <point x="371" y="67" type="curve" smooth="yes"/>
      <point x="371" y="120"/>
      <point x="353" y="147"/>
      <point x="309" y="147" type="curve" smooth="yes"/>
      <point x="265" y="147"/>
      <point x="243" y="116"/>
      <point x="243" y="67" type="curve" smooth="yes"/>
      <point x="243" y="6"/>
      <point x="268" y="-15"/>
    </contour>
    <contour>
      <point x="512" y="-15" type="curve" smooth="yes"/>
      <point x="554" y="-15"/>
      <point x="576" y="9"/>
      <point x="576" y="67" type="curve" smooth="yes"/>
      <point x="576" y="120"/>
      <point x="558" y="147"/>
      <point x="514" y="147" type="curve" smooth="yes"/>
      <point x="470" y="147"/>
      <point x="448" y="116"/>
      <point x="448" y="67" type="curve" smooth="yes"/>
      <point x="448" y="6"/>
      <point x="473" y="-15"/>
    </contour>
    <contour>
      <point x="102" y="-15" type="curve" smooth="yes"/>
      <point x="144" y="-15"/>
      <point x="166" y="9"/>
      <point x="166" y="67" type="curve" smooth="yes"/>
      <point x="166" y="120"/>
      <point x="148" y="147"/>
      <point x="104" y="147" type="curve" smooth="yes"/>
      <point x="60" y="147"/>
      <point x="38" y="116"/>
      <point x="38" y="67" type="curve" smooth="yes"/>
      <point x="38" y="6"/>
      <point x="63" y="-15"/>
    </contour>
  </outline>
</glyph>
<glyph name="dong" format="2">
  <advance width="614"/>
  <unicode hex="20AB"/>
  <outline>
    <contour>
      <point x="248" y="-10" type="curve" smooth="yes"/>
      <point x="308" y="-10"/>
      <point x="357" y="11"/>
      <point x="409" y="67" type="curve"/>
      <point x="418" y="0" type="line"/>
      <point x="515" y="0" type="line"/>
      <point x="515" y="498" type="line"/>
      <point x="595" y="498" type="line"/>
      <point x="595" y="563" type="line"/>
      <point x="515" y="563" type="line"/>
      <point x="515" y="655" type="line"/>
      <point x="402" y="655" type="line"/>
      <point x="402" y="563" type="line"/>
      <point x="247" y="563" type="line"/>
      <point x="247" y="498" type="line"/>
      <point x="402" y="498" type="line"/>
      <point x="402" y="376" type="line"/>
      <point x="360" y="406"/>
      <point x="323" y="415"/>
      <point x="279" y="415" type="curve" smooth="yes"/>
      <point x="149" y="415"/>
      <point x="52" y="326"/>
      <point x="52" y="201" type="curve" smooth="yes"/>
      <point x="52" y="69"/>
      <point x="140" y="-10"/>
    </contour>
    <contour>
      <point x="168" y="207" type="curve" smooth="yes"/>
      <point x="168" y="280"/>
      <point x="215" y="333"/>
      <point x="295" y="333" type="curve" smooth="yes"/>
      <point x="325" y="333"/>
      <point x="358" y="325"/>
      <point x="402" y="291" type="curve"/>
      <point x="402" y="140" type="line"/>
      <point x="353" y="96"/>
      <point x="320" y="83"/>
      <point x="283" y="83" type="curve" smooth="yes"/>
      <point x="218" y="83"/>
      <point x="168" y="130"/>
    </contour>
    <contour>
      <point x="74" y="-169" type="line"/>
      <point x="507" y="-169" type="line"/>
      <point x="507" y="-96" type="line"/>
      <point x="74" y="-96" type="line"/>
    </contour>
  </outline>
</glyph>
